<?xml version="1.0" encoding="UTF-8"?>
<svg width="48px" height="48px" viewBox="0 0 48 48" version="1.1" xmlns="http://www.w3.org/2000/svg" xmlns:xlink="http://www.w3.org/1999/xlink">
    <!-- Generator: Sketch 52.1 (67048) - http://www.bohemiancoding.com/sketch -->
    <title>dinero-3</title>
    <desc>Created with Sketch.</desc>
    <defs>
        <polygon id="path-1" points="0.005625 0.00149333333 48 0.00149333333 48 47.0344 0.005625 47.0344"></polygon>
    </defs>
    <g id="Page-1" stroke="none" stroke-width="1" fill="none" fill-rule="evenodd">
        <g id="17.-Dashboard-(Marketplace)" transform="translate(-1012.000000, -290.000000)">
            <g id="Group-15" transform="translate(758.000000, 335.000000) scale(-1, 1) translate(-758.000000, -335.000000) translate(390.000000, 245.000000)">
                <g id="Group-16" transform="translate(40.000000, 45.000000)">
                    <g id="dinero-3" transform="translate(50.080000, 24.160000) scale(-1, 1) translate(-50.080000, -24.160000) translate(26.080000, 0.640000)">
                        <path d="M8.9236875,22.0445867 L8.9236875,21.27636 C8.9236875,20.8889333 8.60821875,20.5750533 8.21915625,20.5750533 C7.83009375,20.5750533 7.51471875,20.8889333 7.51471875,21.27636 L7.51471875,22.0781867 C6.4029375,22.29276 5.560875,23.2687467 5.560875,24.4371867 C5.560875,25.7624267 6.64378125,26.8406133 7.9749375,26.8406133 L8.463375,26.8406133 C9.017625,26.8406133 9.46846875,27.2894533 9.46846875,27.84124 C9.46846875,28.3929333 9.017625,28.8418667 8.463375,28.8418667 L7.73071875,28.8418667 C7.3111875,28.8418667 6.96984375,28.5019467 6.96984375,28.08428 C6.96984375,27.6968533 6.65446875,27.38288 6.26540625,27.38288 C5.87625,27.38288 5.560875,27.6968533 5.560875,28.08428 C5.560875,29.2027867 6.41925,30.1253867 7.51471875,30.2337467 L7.51471875,31.0019733 C7.51471875,31.3894 7.83009375,31.70328 8.21915625,31.70328 C8.60821875,31.70328 8.9236875,31.3894 8.9236875,31.0019733 L8.9236875,30.2001467 C10.035375,29.98548 10.8775313,29.0095867 10.8775313,27.8411467 C10.8775313,26.5159067 9.79453125,25.43772 8.463375,25.43772 L7.9749375,25.43772 C7.42078125,25.43772 6.96984375,24.98888 6.96984375,24.4370933 C6.96984375,23.8854 7.42078125,23.4364667 7.9749375,23.4364667 L8.70759375,23.4364667 C9.127125,23.4364667 9.46846875,23.7763867 9.46846875,24.1940533 L9.46846875,24.68032 C9.46846875,25.06784 9.7839375,25.38172 10.173,25.38172 C10.5620625,25.38172 10.8775313,25.06784 10.8775313,24.68032 L10.8775313,24.1940533 C10.8775313,23.0755467 10.0190625,22.1529467 8.9236875,22.0445867" id="Fill-1" fill="#0A090B"></path>
                        <g id="Group-10">
                            <mask id="mask-2" fill="white">
                                <use xlink:href="#path-1"></use>
                            </mask>
                            <g id="Clip-3"></g>
                            <path d="M24.7045312,4.08949333 L24.7045312,3.32126667 C24.7045312,2.93384 24.3891562,2.61996 24,2.61996 C23.6109375,2.61996 23.2954687,2.93384 23.2954687,3.32126667 L23.2954687,4.12309333 C22.1837812,4.33776 21.3417187,5.31365333 21.3417187,6.48218667 C21.3417187,7.80733333 22.424625,8.88552 23.7557812,8.88552 L24.2442187,8.88552 C24.7984687,8.88552 25.2493125,9.33436 25.2493125,9.88614667 C25.2493125,10.43784 24.7984687,10.8867733 24.2442187,10.8867733 L23.5115625,10.8867733 C23.0920312,10.8867733 22.7506875,10.5469467 22.7506875,10.1291867 C22.7506875,9.74176 22.4352187,9.42778667 22.0461562,9.42778667 C21.6570937,9.42778667 21.3417187,9.74176 21.3417187,10.1291867 C21.3417187,11.2476933 22.2,12.1703867 23.2954687,12.2786533 L23.2954687,13.04688 C23.2954687,13.4343067 23.6109375,13.74828 24,13.74828 C24.3891562,13.74828 24.7045312,13.4343067 24.7045312,13.04688 L24.7045312,12.2450533 C25.816125,12.03048 26.6582812,11.0544933 26.6582812,9.88605333 C26.6582812,8.56081333 25.575375,7.48262667 24.2442187,7.48262667 L23.7557812,7.48262667 C23.2015312,7.48262667 22.7506875,7.03378667 22.7506875,6.48209333 C22.7506875,5.93030667 23.2015312,5.48146667 23.7557812,5.48146667 L24.4884375,5.48146667 C24.9079687,5.48146667 25.2493125,5.82129333 25.2493125,6.23896 L25.2493125,6.72532 C25.2493125,7.11274667 25.5646875,7.42662667 25.9538437,7.42662667 C26.343,7.42662667 26.6582812,7.11274667 26.6582812,6.72532 L26.6582812,6.23896 C26.6582812,5.12045333 25.7999062,4.19785333 24.7045312,4.08949333" id="Fill-2" fill="#0A090B" mask="url(#mask-2)"></path>
                            <path d="M39.7808437,28.43036 C36.0256875,28.43036 32.9706562,25.3889067 32.9706562,21.65044 C32.9706562,19.88644 33.6512812,18.2780267 34.7642812,17.07076 C34.8764062,17.0296933 34.9798125,16.96044 35.06175,16.8625333 C35.1148125,16.7992533 35.1538125,16.7290667 35.181,16.6559867 C36.3936562,15.54812 38.0090625,14.87052 39.7808437,14.87052 C43.536,14.87052 46.5910313,17.9119733 46.5910313,21.65044 C46.5910313,25.3889067 43.536,28.43036 39.7808437,28.43036 Z M24,14.96404 C20.2448438,14.96404 17.1898125,11.9225867 17.1898125,8.18412 C17.1898125,4.44565333 20.2448438,1.4042 24,1.4042 C27.7551563,1.4042 30.8101875,4.44565333 30.8101875,8.18412 C30.8101875,11.9225867 27.7551563,14.96404 24,14.96404 Z M15.0293437,26.1392133 C15.0293437,29.87768 11.9743125,32.9191333 8.21915625,32.9191333 C4.464,32.9191333 1.40896875,29.87768 1.40896875,26.1392133 C1.40896875,22.4007467 4.464,19.3592933 8.21915625,19.3592933 C11.9743125,19.3592933 15.0293437,22.4007467 15.0293437,26.1392133 Z M39.7808438,13.4678133 C37.7443125,13.4678133 35.8786875,14.2092533 34.4414062,15.4349067 L30.9538125,12.54148 C31.7549062,11.27896 32.2191562,9.78469333 32.2191562,8.18412 C32.2191562,3.6722 28.5320625,0.00149333333 24,0.00149333333 C19.4679375,0.00149333333 15.7808438,3.6722 15.7808438,8.18412 C15.7808438,10.55152 16.79625,12.6868 18.415875,14.1823733 L12.6725625,19.26484 C11.3884688,18.4375333 9.85921875,17.9565867 8.21915625,17.9565867 C3.68709375,17.9565867 0,21.6272933 0,26.1392133 C0,30.6511333 3.68709375,34.32184 8.21915625,34.32184 C12.7513125,34.32184 16.4383125,30.6511333 16.4383125,26.1392133 C16.4383125,23.7718133 15.4229063,21.6365333 13.803375,20.14096 L19.5465937,15.0584933 C20.8306875,15.8858 22.3599375,16.3667467 24,16.3667467 C26.4185625,16.3667467 28.5962812,15.3212267 30.101625,13.6605467 L33.4497188,16.4381467 C32.271,17.8546667 31.5616875,19.6715867 31.5616875,21.65044 C31.5616875,26.16236 35.2486875,29.8330667 39.7808438,29.8330667 C44.3129062,29.8330667 48,26.16236 48,21.65044 C48,17.13852 44.3129062,13.4678133 39.7808438,13.4678133 Z" id="Fill-4" fill="#FC9712" mask="url(#mask-2)"></path>
                            <path d="M40.4852812,17.5558133 L40.4852812,16.7875867 C40.4852812,16.40016 40.17,16.08628 39.7808438,16.08628 C39.3916875,16.08628 39.0763125,16.40016 39.0763125,16.7875867 L39.0763125,17.5894133 C37.9647188,17.80408 37.1224688,18.7799733 37.1224688,19.9484133 C37.1224688,21.2736533 38.2054688,22.35184 39.536625,22.35184 L40.0249687,22.35184 C40.579125,22.35184 41.0300625,22.80068 41.0300625,23.3524667 C41.0300625,23.90416 40.579125,24.3530933 40.0249687,24.3530933 L39.2923125,24.3530933 C38.8727813,24.3530933 38.5314375,24.0131733 38.5314375,23.5955067 C38.5314375,23.20808 38.2160625,22.8941067 37.8269063,22.8941067 C37.43775,22.8941067 37.122375,23.20808 37.122375,23.5955067 C37.122375,24.7140133 37.98075,25.6366133 39.0762188,25.7449733 L39.0762188,26.5132 C39.0762188,26.9006267 39.3915938,27.2145067 39.78075,27.2145067 C40.1699062,27.2145067 40.4851875,26.9006267 40.4851875,26.5132 L40.4851875,25.7113733 C41.596875,25.4967067 42.4390312,24.5208133 42.4390312,23.3523733 C42.4390312,22.0271333 41.356125,20.9489467 40.0249687,20.9489467 L39.536625,20.9489467 C38.982375,20.9489467 38.5315313,20.5001067 38.5315313,19.94832 C38.5315313,19.3966267 38.982375,18.9476933 39.536625,18.9476933 L40.2692812,18.9476933 C40.6888125,18.9476933 41.0301563,19.2876133 41.0301563,19.70528 L41.0301563,20.1915467 C41.0301563,20.5790667 41.3454375,20.8929467 41.7345938,20.8929467 C42.1238438,20.8929467 42.439125,20.5790667 42.439125,20.1915467 L42.439125,19.70528 C42.439125,18.5867733 41.5806563,17.6641733 40.4852812,17.5558133" id="Fill-5" fill="#0A090B" mask="url(#mask-2)"></path>
                            <path d="M9.6751875,45.6372933 L14.2778438,45.6372933 L14.2778438,38.0624533 L9.6751875,38.0624533 L9.6751875,45.6372933 Z M14.982375,36.6597467 L8.97065625,36.6597467 C8.58159375,36.6597467 8.266125,36.97372 8.266125,37.3611467 L8.266125,46.3386933 C8.266125,46.72612 8.58159375,47.04 8.97065625,47.04 L14.982375,47.04 C15.3714375,47.04 15.6869063,46.72612 15.6869063,46.3386933 L15.6869063,37.3611467 C15.6869063,36.97372 15.3714375,36.6597467 14.982375,36.6597467 Z" id="Fill-6" fill="#FC9712" mask="url(#mask-2)"></path>
                            <path d="M38.982375,45.6372933 L43.585125,45.6372933 L43.585125,38.0624533 L38.982375,38.0624533 L38.982375,45.6372933 Z M44.2896563,36.6597467 L38.2778438,36.6597467 C37.8886875,36.6597467 37.5734063,36.97372 37.5734063,37.3611467 L37.5734063,46.3386933 C37.5734063,46.72612 37.8886875,47.04 38.2778438,47.04 L44.2896563,47.04 C44.6788125,47.04 44.9940938,46.72612 44.9940938,46.3386933 L44.9940938,37.3611467 C44.9940938,36.97372 44.6788125,36.6597467 44.2896563,36.6597467 Z" id="Fill-7" fill="#FC9712" mask="url(#mask-2)"></path>
                            <path d="M24.7515,27.6822 L18.7396875,27.6822 C18.350625,27.6822 18.03525,27.9961733 18.03525,28.3836 L18.03525,46.3386933 C18.03525,46.72612 18.350625,47.04 18.7396875,47.04 L24.7515,47.04 C25.1406562,47.04 25.4559375,46.72612 25.4559375,46.3386933 L25.4559375,42.1774267 C25.4559375,41.7899067 25.1406562,41.4760267 24.7515,41.4760267 C24.3623438,41.4760267 24.0469688,41.7899067 24.0469688,42.1774267 L24.0469688,45.6372933 L19.4442188,45.6372933 L19.4442188,29.085 L24.0469688,29.085 L24.0469688,38.9044133 C24.0469688,39.29184 24.3623438,39.6058133 24.7515,39.6058133 C25.1406562,39.6058133 25.4559375,39.29184 25.4559375,38.9044133 L25.4559375,28.3836 C25.4559375,27.9961733 25.1406562,27.6822 24.7515,27.6822" id="Fill-8" fill="#FC9712" mask="url(#mask-2)"></path>
                            <path d="M29.2133437,45.6372933 L33.816,45.6372933 L33.816,33.5737733 L29.2133437,33.5737733 L29.2133437,45.6372933 Z M34.5205312,32.1709733 L28.5088125,32.1709733 C28.1196562,32.1709733 27.8042812,32.4849467 27.8042812,32.8723733 L27.8042812,46.3386933 C27.8042812,46.72612 28.1196562,47.04 28.5088125,47.04 L34.5205312,47.04 C34.9096875,47.04 35.2250625,46.72612 35.2250625,46.3386933 L35.2250625,32.8723733 C35.2250625,32.4849467 34.9096875,32.1709733 34.5205312,32.1709733 Z" id="Fill-9" fill="#FC9712" mask="url(#mask-2)"></path>
                        </g>
                    </g>
                </g>
            </g>
        </g>
    </g>
</svg>