<?xml version="1.0" encoding="UTF-8"?>
<svg width="64px" height="64px" viewBox="0 0 64 64" version="1.1" xmlns="http://www.w3.org/2000/svg" xmlns:xlink="http://www.w3.org/1999/xlink">
    <!-- Generator: Sketch 52.1 (67048) - http://www.bohemiancoding.com/sketch -->
    <title>tiempo-es-dinero</title>
    <desc>Created with Sketch.</desc>
    <defs>
        <polygon id="path-1" points="0.0075 0 64 0 64 64 0.0075 64"></polygon>
    </defs>
    <g id="Page-1" stroke="none" stroke-width="1" fill="none" fill-rule="evenodd">
        <g id="4.-Fund-Raiser-Screen" transform="translate(-825.000000, -3665.000000)">
            <g id="tiempo-es-dinero" transform="translate(825.000000, 3665.000000)">
                <g id="Group-3">
                    <mask id="mask-2" fill="white">
                        <use xlink:href="#path-1"></use>
                    </mask>
                    <g id="Clip-2"></g>
                    <path d="M44.82675,61.995875 C35.359625,61.995875 27.657625,54.29375 27.657625,44.82675 C27.657625,35.359625 35.359625,27.657625 44.82675,27.657625 C54.29375,27.657625 61.995875,35.359625 61.995875,44.82675 C61.995875,54.29375 54.29375,61.995875 44.82675,61.995875 Z M2.004125,23.448875 C2.004125,11.62425 11.62425,2.004125 23.448875,2.004125 C35.2735,2.004125 44.8935,11.62425 44.8935,23.448875 C44.8935,24.184875 44.854375,24.923375 44.78,25.654 C34.245,25.679375 25.6795,34.24475 25.654125,44.779875 C24.923375,44.85425 24.185,44.893375 23.449,44.893375 C11.62425,44.8935 2.004125,35.2735 2.004125,23.448875 Z M46.782875,25.7525 C46.857375,24.988375 46.89775,24.217375 46.89775,23.448875 C46.89775,10.519125 36.378625,0 23.448875,0 C10.519125,0 0,10.519125 0,23.448875 C0,36.378625 10.519125,46.89775 23.448875,46.89775 C24.2175,46.89775 24.988375,46.857375 25.7525,46.782875 C26.735625,56.43975 34.914875,64 44.82675,64 C55.398875,64 64,55.398875 64,44.82675 C64,34.914875 56.43975,26.735625 46.782875,25.7525 Z" id="Fill-1" fill="#FC9712" mask="url(#mask-2)"></path>
                </g>
                <path d="M44.82675,57.72025 C37.71725,57.72025 31.93325,51.93625 31.93325,44.82675 C31.93325,37.71725 37.71725,31.93325 44.82675,31.93325 C51.93625,31.93325 57.72025,37.71725 57.72025,44.82675 C57.72025,51.93625 51.93625,57.72025 44.82675,57.72025 Z M44.82675,29.929 C36.612125,29.929 29.929,36.612125 29.929,44.82675 C29.929,53.04125 36.612125,59.724375 44.82675,59.724375 C53.04125,59.724375 59.724375,53.04125 59.724375,44.82675 C59.724375,36.612125 53.04125,29.929 44.82675,29.929 Z" id="Fill-4" fill="#0A0B09"></path>
                <path d="M48.10025,48.43425 C48.10025,49.130125 47.2055,49.89075 45.82875,50.1475 L45.82875,46.22775 C47.5385,46.88025 48.10025,47.47025 48.10025,48.43425 Z M41.55325,41.21925 C41.55325,40.523375 42.447875,39.76275 43.824625,39.505875 L43.824625,43.425625 C42.115,42.77325 41.55325,42.18325 41.55325,41.21925 Z M48.10025,41.21925 C48.10025,41.772625 48.548875,42.22125 49.10225,42.22125 C49.65575,42.22125 50.104375,41.772625 50.104375,41.21925 C50.104375,39.332 48.292875,37.806875 45.82875,37.478 L45.82875,36.275625 C45.82875,35.722125 45.380125,35.2735 44.82675,35.2735 C44.27325,35.2735 43.824625,35.722125 43.824625,36.275625 L43.824625,37.478 C41.360625,37.806875 39.549,39.33175 39.549,41.21925 C39.549,43.8885 41.907875,44.926 43.824625,45.558875 L43.824625,50.1475 C42.447875,49.89075 41.55325,49.13025 41.55325,48.43425 C41.55325,47.880875 41.104625,47.432125 40.551125,47.432125 C39.99775,47.432125 39.549,47.880875 39.549,48.43425 C39.549,50.3215 41.360625,51.8465 43.824625,52.1755 L43.824625,53.377875 C43.824625,53.93125 44.27325,54.38 44.82675,54.38 C45.380125,54.38 45.82875,53.93125 45.82875,53.377875 L45.82875,52.1755 C48.292875,51.8465 50.104375,50.321625 50.104375,48.43425 C50.104375,45.765 47.745625,44.7275 45.82875,44.0945 L45.82875,39.505875 C47.2055,39.76275 48.10025,40.523375 48.10025,41.21925 Z" id="Fill-5" fill="#0A0B09"></path>
                <path d="M22.313125,23.448875 C22.313125,22.822625 22.822625,22.313125 23.448875,22.313125 C24.075125,22.313125 24.5845,22.822625 24.5845,23.448875 C24.5845,24.075125 24.075125,24.5845 23.448875,24.5845 C22.822625,24.5845 22.313125,24.075125 22.313125,23.448875 Z M26.58875,23.448875 C26.58875,23.086125 26.52625,22.73775 26.4125,22.41325 L33.684125,16.757625 C34.121125,16.41775 34.19975,15.78825 33.859875,15.3515 C33.520125,14.9145 32.8905,14.835875 32.45375,15.17575 L25.181375,20.832125 C24.6845,20.502 24.088875,20.309125 23.449,20.309125 C22.948125,20.309125 22.47475,20.427625 22.05425,20.637 L13.468625,12.051375 C13.07725,11.66 12.44275,11.66 12.0515,12.051375 C11.660125,12.44275 11.660125,13.07725 12.0515,13.4685 L20.637125,22.054125 C20.427625,22.4745 20.30925,22.948125 20.30925,23.448875 C20.30925,25.18025 21.71775,26.58875 23.449125,26.58875 C25.1805,26.58875 26.58875,25.18025 26.58875,23.448875 Z" id="Fill-6" fill="#FC9712"></path>
                <path d="M23.448875,8.4175 C24.00225,8.4175 24.451,7.968875 24.451,7.4155 L24.451,5.277625 C24.451,4.72425 24.00225,4.275625 23.448875,4.275625 C22.895375,4.275625 22.44675,4.72425 22.44675,5.277625 L22.44675,7.4155 C22.44675,7.968875 22.895375,8.4175 23.448875,8.4175" id="Fill-7" fill="#FC9712"></path>
                <path d="M23.448875,38.480125 C22.895375,38.480125 22.44675,38.928875 22.44675,39.48225 L22.44675,41.62 C22.44675,42.1735 22.895375,42.622125 23.448875,42.622125 C24.00225,42.622125 24.451,42.1735 24.451,41.62 L24.451,39.48225 C24.451,38.928875 24.00225,38.480125 23.448875,38.480125" id="Fill-8" fill="#FC9712"></path>
                <path d="M38.480125,23.448875 C38.480125,24.00225 38.928875,24.451 39.48225,24.451 L41.62,24.451 C42.1735,24.451 42.622125,24.00225 42.622125,23.448875 C42.622125,22.895375 42.1735,22.44675 41.62,22.44675 L39.48225,22.44675 C38.928875,22.44675 38.480125,22.895375 38.480125,23.448875" id="Fill-9" fill="#FC9712"></path>
                <path d="M8.4175,23.448875 C8.4175,22.895375 7.968875,22.44675 7.4155,22.44675 L5.277625,22.44675 C4.72425,22.44675 4.275625,22.895375 4.275625,23.448875 C4.275625,24.00225 4.72425,24.451 5.277625,24.451 L7.4155,24.451 C7.968875,24.451 8.4175,24.00225 8.4175,23.448875" id="Fill-10" fill="#FC9712"></path>
                <path d="M31.499,9.505625 C31.65675,9.59675 31.829125,9.640125 31.999125,9.640125 C32.345375,9.640125 32.68225,9.46025 32.86775,9.138875 L33.40225,8.21325 C33.679,7.734 33.51475,7.121125 33.0355,6.844375 C32.556125,6.567375 31.943375,6.731875 31.666625,7.211125 L31.13225,8.13675 C30.8555,8.616125 31.01975,9.229 31.499,9.505625" id="Fill-11" fill="#FC9712"></path>
                <path d="M15.39875,37.392 C14.9195,37.115 14.306625,37.2795 14.029875,37.75875 L13.4955,38.6845 C13.21875,39.16375 13.383,39.776625 13.86225,40.05325 C14.02,40.144375 14.192375,40.18775 14.362375,40.18775 C14.708625,40.18775 15.0455,40.007875 15.231125,39.6865 L15.7655,38.760875 C16.04225,38.281625 15.878,37.66875 15.39875,37.392" id="Fill-12" fill="#FC9712"></path>
                <path d="M14.029875,9.138875 C14.2155,9.460375 14.552375,9.640125 14.898625,9.640125 C15.068625,9.640125 15.241,9.59675 15.39875,9.505625 C15.878,9.229 16.04225,8.616125 15.7655,8.136875 L15.231125,7.211125 C14.954375,6.73175 14.3415,6.5675 13.86225,6.844375 C13.383,7.121125 13.21875,7.734 13.4955,8.21325 L14.029875,9.138875" id="Fill-13" fill="#FC9712"></path>
                <path d="M9.138875,14.029875 L8.21325,13.4955 C7.734,13.218625 7.121125,13.382875 6.844375,13.86225 C6.56775,14.3415 6.731875,14.954375 7.211125,15.231125 L8.136875,15.7655 C8.294625,15.856625 8.467,15.899875 8.636875,15.899875 C8.98325,15.899875 9.320125,15.720125 9.505625,15.39875 C9.782375,14.9195 9.618125,14.306625 9.138875,14.029875" id="Fill-14" fill="#FC9712"></path>
                <path d="M38.26075,15.899875 C38.43075,15.899875 38.603125,15.856625 38.760875,15.7655 L39.6865,15.231125 C40.165875,14.954375 40.33,14.3415 40.053375,13.86225 C39.776625,13.382875 39.16375,13.21875 38.6845,13.4955 L37.75875,14.029875 C37.2795,14.306625 37.115375,14.9195 37.392,15.39875 C37.577625,15.72025 37.9145,15.899875 38.26075,15.899875" id="Fill-15" fill="#FC9712"></path>
                <path d="M8.13675,31.13225 L7.211125,31.666625 C6.731875,31.943375 6.56775,32.55625 6.844375,33.0355 C7.03,33.357 7.366875,33.536625 7.713125,33.536625 C7.883125,33.536625 8.0555,33.493375 8.21325,33.40225 L9.138875,32.86775 C9.618125,32.591125 9.782375,31.97825 9.505625,31.499 C9.229,31.0195 8.616,30.8555 8.13675,31.13225" id="Fill-16" fill="#FC9712"></path>
            </g>
        </g>
    </g>
</svg>