<?xml version="1.0" encoding="UTF-8"?>
<svg width="26px" height="26px" viewBox="0 0 26 26" version="1.1" xmlns="http://www.w3.org/2000/svg" xmlns:xlink="http://www.w3.org/1999/xlink">
    <!-- Generator: Sketch 52.1 (67048) - http://www.bohemiancoding.com/sketch -->
    <title>Fill 1</title>
    <desc>Created with Sketch.</desc>
    <g id="Page-1" stroke="none" stroke-width="1" fill="none" fill-rule="evenodd">
        <g id="5.-Dashboard" transform="translate(-1574.000000, -748.000000)" fill="#9EDE59">
            <path d="M1589.8017,760.889043 C1589.97182,760.998578 1590.1623,761.050934 1590.3506,761.050883 C1590.68438,761.050883 1591.01131,760.886504 1591.20545,760.585016 C1591.80959,759.646883 1592.12891,758.576566 1592.12891,757.489898 C1592.12891,754.465824 1589.82806,752.005523 1587,752.005523 C1584.17194,752.005523 1581.87109,754.465824 1581.87109,757.489898 C1581.87109,758.653094 1582.16552,759.695734 1582.74621,760.588773 C1583.05196,761.059008 1583.68109,761.192359 1584.15127,760.886605 C1584.62151,760.580852 1584.75486,759.951773 1584.44911,759.481539 C1584.08632,758.923504 1583.90234,758.253496 1583.90234,757.489898 C1583.90234,755.585855 1585.29192,754.036773 1587,754.036773 C1588.70808,754.036773 1590.09766,755.585855 1590.09766,757.489898 C1590.09766,758.185703 1589.89021,758.875719 1589.49768,759.485246 C1589.194,759.956902 1589.3301,760.585371 1589.8017,760.889043 Z M1589.89159,769.570555 L1588.01562,771.424375 L1588.01562,762.015625 C1588.01562,761.454695 1587.56093,761 1587,761 C1586.43907,761 1585.98438,761.454695 1585.98438,762.015625 L1585.98438,771.32398 L1584.20998,769.570555 C1583.81099,769.176289 1583.16795,769.180148 1582.77368,769.579086 C1582.37941,769.978074 1582.38327,770.621117 1582.78221,771.015383 L1584.89415,773.102391 C1585.47037,773.681297 1586.236,774 1587.05078,774 C1587.86557,774 1588.6312,773.681297 1589.20741,773.102391 L1591.31935,771.015383 C1591.71829,770.621117 1591.72215,769.978074 1591.32788,769.579086 C1590.93357,769.180098 1590.29057,769.176238 1589.89159,769.570555 Z M1577.91016,757.496094 C1577.91016,758.057023 1578.36485,758.511719 1578.92578,758.511719 C1579.48671,758.511719 1579.94141,758.057023 1579.94141,757.496094 C1579.94141,756.935164 1579.48671,756.480469 1578.92578,756.480469 C1578.36485,756.480469 1577.91016,756.935164 1577.91016,757.496094 Z M1596.08984,757.496094 C1596.08984,756.935164 1595.63515,756.480469 1595.07422,756.480469 C1594.51329,756.480469 1594.05859,756.935164 1594.05859,757.496094 C1594.05859,758.057023 1594.51329,758.511719 1595.07422,758.511719 C1595.63515,758.511719 1596.08984,758.057023 1596.08984,757.496094 Z M1598.98438,762.015625 C1598.42345,762.015625 1597.96875,762.47032 1597.96875,763.03125 C1597.96875,764.151281 1597.05753,765.0625 1595.9375,765.0625 L1591.0625,765.0625 C1590.50157,765.0625 1590.04688,765.517195 1590.04688,766.078125 C1590.04688,766.639055 1590.50157,767.09375 1591.0625,767.09375 L1595.9375,767.09375 C1598.17756,767.09375 1600,765.271313 1600,763.03125 C1600,762.47032 1599.5453,762.015625 1598.98438,762.015625 Z M1600,752.0625 L1600,757.953125 C1600,758.514055 1599.5453,758.96875 1598.98438,758.96875 C1598.42345,758.96875 1597.96875,758.514055 1597.96875,757.953125 L1597.96875,752.0625 C1597.96875,750.942469 1597.05753,750.03125 1595.9375,750.03125 L1578.0625,750.03125 C1576.94247,750.03125 1576.03125,750.942469 1576.03125,752.0625 L1576.03125,763.03125 C1576.03125,764.151281 1576.94247,765.0625 1578.0625,765.0625 L1582.9375,765.0625 C1583.49843,765.0625 1583.95312,765.517195 1583.95312,766.078125 C1583.95312,766.639055 1583.49843,767.09375 1582.9375,767.09375 L1578.0625,767.09375 C1575.82244,767.09375 1574,765.271313 1574,763.03125 L1574,752.0625 C1574,749.822437 1575.82244,748 1578.0625,748 L1595.9375,748 C1598.17756,748 1600,749.822437 1600,752.0625 Z" id="Fill-1" transform="translate(1587.000000, 761.000000) scale(-1, -1) translate(-1587.000000, -761.000000) "></path>
        </g>
    </g>
</svg>