<?xml version="1.0" encoding="UTF-8"?>
<svg width="21px" height="16px" viewBox="0 0 21 16" version="1.1" xmlns="http://www.w3.org/2000/svg" xmlns:xlink="http://www.w3.org/1999/xlink">
    <!-- Generator: Sketch 52.1 (67048) - http://www.bohemiancoding.com/sketch -->
    <title>cartera</title>
    <desc>Created with Sketch.</desc>
    <defs>
        <polygon id="path-1" points="0.0024609375 0.00164524422 21 0.00164524422 21 15.9588689 0.0024609375 15.9588689"></polygon>
    </defs>
    <g id="Page-1" stroke="none" stroke-width="1" fill="none" fill-rule="evenodd">
        <g id="5.-Dashboard" transform="translate(-108.000000, -835.000000)">
            <g id="cartera" transform="translate(108.000000, 835.000000)">
                <g id="Group-3">
                    <mask id="mask-2" fill="white">
                        <use xlink:href="#path-1"></use>
                    </mask>
                    <g id="Clip-2"></g>
                    <path d="M20.3847656,9.62467866 L18.5396777,9.62467866 C18.2585566,9.62467866 17.9967539,9.75152699 17.8212891,9.97268895 L17.4950508,10.384 C17.225332,10.7239897 17.225332,11.1989306 17.4950508,11.5389203 L17.8212891,11.9502314 C17.9967129,12.1713933 18.2585566,12.2982416 18.5396777,12.2982416 L20.3847656,12.2982416 L20.3847656,15.0334602 C20.3847656,15.2035784 20.2484297,15.3419434 20.0808398,15.3419434 L1.36758398,15.3419434 C0.938683594,15.3419023 0.615234375,15.0103445 0.615234375,14.5706941 L0.615234375,6.06905913 C0.829746094,6.21120823 1.08761133,6.29305913 1.36758398,6.29305913 L20.0808398,6.29305913 C20.2484297,6.29305913 20.3847656,6.43142416 20.3847656,6.60154242 L20.3847656,9.62467866 Z M20.3847656,11.6812339 L18.5396777,11.6812339 C18.4471465,11.6812339 18.3608496,11.6392802 18.3028125,11.5661491 L17.9765332,11.154838 C17.8862578,11.0409871 17.8862578,10.8819332 17.9765332,10.7680823 L18.3028125,10.3567712 C18.3028125,10.3567712 18.3028125,10.3567712 18.3028535,10.3567712 C18.3608496,10.2836401 18.4471875,10.2416864 18.5396777,10.2416864 L20.3847656,10.2416864 L20.3847656,11.6812339 Z M1.43443945,4.11311054 L2.296875,4.11311054 L2.296875,5.67609254 L1.36758398,5.67609254 C0.938683594,5.67609254 0.615234375,5.34013368 0.615234375,4.89460154 C0.615234375,4.35557841 1.09429687,4.11311054 1.43443945,4.11311054 Z M10.8895664,4.11311054 L10.7870684,4.11311054 C10.7870684,3.85472494 10.4703457,3.6707455 10.2052207,3.92966581 C10.1841797,3.95023136 10.171875,3.9784473 10.171875,4.0079383 L10.171875,4.1876401 C9.90847266,4.30811311 9.72455859,4.57410797 9.72455859,4.88296144 C9.72455859,5.30122365 10.0612559,5.64207712 10.4771543,5.64730077 C10.5108281,5.64771208 10.5428203,5.6584473 10.5696445,5.67613368 L8.77582617,5.67613368 C8.7635625,5.56869923 8.75683594,5.45900257 8.75683594,5.3471671 C8.75683594,4.09978406 9.53879883,3.0849563 10.5,3.0849563 C11.4612012,3.0849563 12.2431641,4.09978406 12.2431641,5.3471671 C12.2431641,5.45896144 12.2363965,5.56869923 12.2241738,5.67613368 L11.2381172,5.67613368 C11.1788906,5.31487918 10.8670898,5.03777892 10.4908125,5.03584576 C10.4252285,5.03551671 10.3631309,4.99656555 10.3427051,4.93404627 C10.3081289,4.82833933 10.3863047,4.73011825 10.486875,4.73011825 L10.9948125,4.73011825 C11.0242617,4.73011825 11.0524395,4.71773779 11.0729473,4.69655527 C11.3306074,4.43023136 11.1471035,4.11311054 10.8895664,4.11311054 Z M10.5,2.46794859 C9.19955859,2.46794859 8.14160156,3.75954756 8.14160156,5.34712596 C8.14160156,5.45842674 8.14726172,5.56808226 8.15751563,5.67609254 L4.14257812,5.67609254 C4.14257812,5.39944473 4.14257812,4.98278663 4.14257812,4.30186118 C5.42390625,4.15917738 6.44429297,3.13587661 6.58657617,1.85089974 L14.4134238,1.85089974 C14.555707,3.13587661 15.5760938,4.15913625 16.8574219,4.30186118 L16.8574219,5.67609254 L12.8424844,5.67609254 C12.8527383,5.56812339 12.8583984,5.45842674 12.8583984,5.34712596 C12.8583984,3.75954756 11.8004414,2.46794859 10.5,2.46794859 Z M2.91210938,0.925449871 C2.91210938,0.75533162 3.05008594,0.616966581 3.21972656,0.616966581 L17.7802734,0.616966581 C17.9499141,0.616966581 18.0878906,0.75533162 18.0878906,0.925449871 L18.0878906,5.67609254 L17.4726562,5.67609254 L17.4726562,4.01036504 C17.4726562,3.84312596 17.3362383,3.7015527 17.1694277,3.70188175 C15.9785801,3.70426735 15.0092578,2.73225707 15.0116777,1.53801542 C15.0120059,1.37073522 14.8708301,1.23393316 14.7040605,1.23393316 L6.29593945,1.23393316 C6.12912891,1.23393316 5.98799414,1.37073522 5.98832227,1.53801542 C5.99074219,2.73225707 5.02141992,3.70426735 3.83057227,3.70188175 C3.66376172,3.7015527 3.52734375,3.84312596 3.52734375,4.01036504 C3.52734375,4.9328946 3.52734375,4.73135219 3.52734375,5.67609254 L2.91210938,5.67609254 L2.91210938,0.925449871 Z M20.2563047,5.69320308 C20.1474902,5.6719383 20.0350254,5.67609254 19.9241602,5.67609254 L18.703125,5.67609254 L18.703125,4.11311054 L19.4656055,4.11311054 C19.6329492,4.11352185 19.7691211,4.25172237 19.7695312,4.42159383 L19.7695312,4.70951157 C19.7695312,4.87979434 19.9073027,5.01799486 20.0771484,5.01799486 C20.246543,5.01799486 20.3847656,4.87979434 20.3847656,4.70951157 L20.3847656,4.42159383 C20.3847656,4.1748072 20.2891992,3.94241645 20.1161133,3.76802057 C19.9426172,3.59280206 19.7116992,3.49655527 19.4656055,3.49614396 L18.703125,3.49614396 L18.703125,0.925449871 C18.703125,0.415136247 18.2891133,0 17.7802734,0 L3.21972656,0 C2.71088672,0 2.296875,0.415136247 2.296875,0.925449871 L2.296875,3.49614396 L1.43443945,3.49614396 C0.729298828,3.49614396 0,4.01924936 0,4.89460154 L0,14.5706941 C0,15.3491003 0.600714844,15.9588689 1.36758398,15.9588689 L20.0808398,15.9588689 C20.5876699,15.9588689 21,15.5437326 21,15.033419 L21,6.60154242 C21,6.15165039 20.6794629,5.77591774 20.2563047,5.69320308 Z" id="Fill-1" fill="#0A090B" mask="url(#mask-2)"></path>
                </g>
                <path d="M3.96727734,2.63366581 C4.04598633,2.63366581 4.12473633,2.60355784 4.1847832,2.54330077 C4.30491797,2.42282776 4.30491797,2.22749614 4.1847832,2.10706427 C4.14819727,2.07037532 4.14274219,2.02751671 4.14274219,2.00526478 C4.14274219,1.98301285 4.14819727,1.94015424 4.1847832,1.9034653 C4.22136914,1.86677635 4.26406641,1.86130591 4.28625586,1.86130591 C4.30844531,1.86130591 4.35118359,1.86677635 4.38776953,1.9034653 C4.5079043,2.0239383 4.7026875,2.0239383 4.82278125,1.9034653 C4.94291602,1.78299229 4.94291602,1.58766067 4.82278125,1.46722879 C4.67947266,1.32351671 4.48891406,1.24438046 4.28621484,1.24438046 C4.08351563,1.24438046 3.89299805,1.32351671 3.74968945,1.46722879 C3.60638086,1.61094087 3.5274668,1.80203599 3.5274668,2.00530591 C3.5274668,2.20857584 3.60638086,2.39962982 3.74968945,2.54338303 C3.80981836,2.60351671 3.88852734,2.63366581 3.96727734,2.63366581" id="Fill-4" fill="#0A090B"></path>
                <path d="M16.6121895,1.9034653 C16.6681758,1.84736247 16.7592305,1.84736247 16.8152168,1.9034653 C16.8711621,1.95960925 16.8711621,2.05092031 16.8152168,2.10706427 C16.695082,2.22753728 16.695123,2.42286889 16.8152168,2.5433419 C16.8753047,2.60355784 16.9540137,2.63366581 17.0327227,2.63366581 C17.1114316,2.63366581 17.1901816,2.60355784 17.2502695,2.54330077 C17.5460742,2.24662211 17.5460742,1.76386632 17.2502695,1.46718766 C16.9544238,1.170509 16.4730234,1.170509 16.1771777,1.46718766 C16.057043,1.58766067 16.057043,1.78299229 16.1771777,1.90342416 C16.2973125,2.02389717 16.4920957,2.02389717 16.6121895,1.9034653" id="Fill-5" fill="#0A090B"></path>
            </g>
        </g>
    </g>
</svg>