<?xml version="1.0" encoding="UTF-8"?>
<svg width="48px" height="49px" viewBox="0 0 48 49" version="1.1" xmlns="http://www.w3.org/2000/svg" xmlns:xlink="http://www.w3.org/1999/xlink">
    <!-- Generator: Sketch 52.1 (67048) - http://www.bohemiancoding.com/sketch -->
    <title>cartera</title>
    <desc>Created with Sketch.</desc>
    <defs>
        <polygon id="path-1" points="0.005625 0 48 0 48 47.999625 0.005625 47.999625"></polygon>
    </defs>
    <g id="Page-1" stroke="none" stroke-width="1" fill="none" fill-rule="evenodd">
        <g id="17.-Dashboard-(Marketplace)" transform="translate(-869.000000, -289.000000)">
            <g id="Group-15" transform="translate(758.000000, 335.000000) scale(-1, 1) translate(-758.000000, -335.000000) translate(390.000000, 245.000000)">
                <g id="Group-14" transform="translate(193.000000, 44.000000)">
                    <g id="cartera" transform="translate(40.000000, 24.640000) scale(-1, 1) translate(-40.000000, -24.640000) translate(16.000000, 0.640000)">
                        <g id="Group-4">
                            <mask id="mask-2" fill="white">
                                <use xlink:href="#path-1"></use>
                            </mask>
                            <g id="Clip-2"></g>
                            <path d="M37.485,31.5524063 L39.7694062,31.5524063 C40.1634375,31.5524063 40.483125,31.232625 40.483125,30.8382187 C40.483125,30.4441875 40.1634375,30.1245 39.7694062,30.1245 L37.485,30.1245 C37.0909687,30.1245 36.7712813,30.4441875 36.7712813,30.8382187 C36.7712813,31.232625 37.0909687,31.5524063 37.485,31.5524063 Z" id="Fill-1" fill="#000000" mask="url(#mask-2)"></path>
                            <path d="M47.2862813,20.1587813 L42.7759687,20.1587813 L42.7759687,13.0389375 C42.7759687,11.0669062 41.171625,9.4621875 39.1999687,9.4621875 L26.4705,9.4621875 L26.4705,3.12271875 C26.4705,1.40071875 25.0689375,0 23.3466563,0 L7.6333125,0 C5.91103125,0 4.5095625,1.40071875 4.5095625,3.12271875 L4.5095625,14.9007187 C3.343125,14.9817188 2.2569375,15.4735312 1.422,16.3088438 C0.5083125,17.2225312 0.00403125,18.4365 0.00075,19.7281875 C0.00075,19.7325 0,19.7365312 0,19.7409375 L0,43.1462813 C0,45.8224688 2.17753125,47.999625 4.85371875,47.999625 L26.6129062,47.999625 C27.0069375,47.999625 27.326625,47.6803125 27.326625,47.2859063 C27.326625,46.891875 27.0069375,46.5721875 26.6129062,46.5721875 L4.85371875,46.5721875 C2.96446875,46.5721875 1.42753125,45.0351562 1.42753125,43.1462813 L1.42753125,23.1752812 C2.3060625,24.0516563 3.5175,24.594375 4.8534375,24.594375 L31.8102188,24.59475 C33.3523125,24.59475 34.6069688,25.8494062 34.6069688,27.3915 L34.6069688,43.7750625 C34.6069688,45.3171563 33.3523125,46.5721875 31.8102188,46.5721875 L28.9921875,46.5721875 C28.5981563,46.5721875 28.2784688,46.8915 28.2784688,47.2859063 C28.2784688,47.6799375 28.5981563,47.999625 28.9921875,47.999625 L31.8102188,47.999625 C34.139625,47.999625 36.0347812,46.1044688 36.0347812,43.7750625 L36.0347812,41.5180312 L47.2862813,41.5180312 C47.6803125,41.5180312 48,41.1983438 48,40.8043125 L48,20.8725938 C48,20.4785625 47.6806875,20.1587813 47.2862813,20.1587813 Z M17.12625,20.1587812 L41.3481563,20.1587812 L41.3481563,18.0974062 L17.12625,18.0974062 L17.12625,20.1587812 Z M41.3481563,13.0389375 L41.3481563,13.1982187 L34.4640937,13.1982187 C34.0700625,13.1982187 33.750375,13.5179062 33.750375,13.9123125 C33.750375,14.3064375 34.0700625,14.626125 34.4640937,14.626125 L41.3481563,14.626125 L41.3481563,16.669875 L17.12625,16.669875 L17.12625,14.626125 L32.0848125,14.626125 C32.4788438,14.626125 32.798625,14.3064375 32.798625,13.9123125 C32.798625,13.5179062 32.4788438,13.1982187 32.0848125,13.1982187 L17.12625,13.1982187 L17.12625,12.8181562 C17.12625,11.7550312 17.9908125,10.89 19.0535625,10.89 L39.1999687,10.89 C40.3846875,10.89 41.3481563,11.8538437 41.3481563,13.0389375 Z M5.937375,3.12271875 C5.937375,2.18775 6.69796875,1.42753125 7.6333125,1.42753125 L23.3466563,1.42753125 C24.282,1.42753125 25.0429688,2.188125 25.0429688,3.12271875 L25.0429688,9.4621875 L24.4632188,9.4621875 L24.4632188,6.14428125 C24.4632188,5.08078125 23.5971563,4.21509375 22.533,4.21509375 L8.4463125,4.21509375 C7.3824375,4.21509375 6.517125,5.08078125 6.517125,6.14428125 L6.517125,8.68284375 C6.517125,9.076875 6.8364375,9.3965625 7.23084375,9.3965625 C7.624875,9.3965625 7.9445625,9.076875 7.9445625,8.68284375 L7.9445625,6.14428125 C7.9445625,5.8678125 8.16946875,5.64290625 8.4463125,5.64290625 L22.533,5.64290625 C22.8102188,5.64290625 23.0354063,5.8678125 23.0354063,6.14428125 L23.0354063,9.4621875 L19.0535625,9.4621875 C17.2035,9.4621875 15.6983438,10.967625 15.6983438,12.8181562 L15.6983438,20.1587812 L12.6466875,20.1587812 C12.2526563,20.1587812 11.9329688,20.4785625 11.9329688,20.8729687 L11.9329688,23.1668437 L7.9445625,23.1664687 L7.9445625,10.9973438 C7.9445625,10.6033125 7.624875,10.2835312 7.23084375,10.2835312 C6.8364375,10.2835312 6.517125,10.6033125 6.517125,10.9973438 L6.517125,23.1664687 L5.937375,23.1664687 L5.937375,3.12271875 Z M1.4278125,19.7409375 C1.4278125,18.8258437 1.78415625,17.9655937 2.4313125,17.3181562 C2.99671875,16.7530312 3.7246875,16.4095312 4.5095625,16.3319062 L4.5095625,23.1493125 C2.78175,22.9764375 1.4278125,21.51375 1.4278125,19.7409375 Z M34.9629375,24.5837812 L39.9488438,24.5837812 C40.2527813,26.437875 41.7209063,27.906 43.5754688,28.2099375 L43.5754688,33.46725 C41.7209063,33.7712812 40.2527813,35.2390312 39.9488438,37.0935 L36.0347813,37.0935 L36.0347813,27.3915 C36.0347813,26.3145 35.6290313,25.3307812 34.9629375,24.5837812 Z M46.5724688,40.0905937 L36.0347813,40.0905937 L36.0347813,38.5210312 L40.6047188,38.5210312 C40.999125,38.5210312 41.3188125,38.201625 41.3188125,37.8072188 C41.3188125,36.1695937 42.6510938,34.8369375 44.2891875,34.8369375 C44.6832188,34.8369375 45.0029063,34.51725 45.0029063,34.123125 L45.0029063,27.5540625 C45.0029063,27.1600313 44.6832188,26.8403438 44.2891875,26.8403438 C42.6510938,26.8403438 41.3188125,25.5076875 41.3188125,23.8699688 C41.3188125,23.4755625 40.999125,23.155875 40.6047188,23.155875 L13.3605,23.1668438 L13.3605,21.5866875 L46.5724688,21.5866875 L46.5724688,40.0905937 Z" id="Fill-3" fill="#FC9712" mask="url(#mask-2)"></path>
                        </g>
                        <path d="M43.6304063,24.1425 C43.7299687,24.3973125 43.9877812,24.5716875 44.2591875,24.5826562 C44.561625,24.59475 44.8461562,24.4086562 44.954625,24.126375 C45.0659062,23.8363125 44.9732812,23.4975938 44.7275625,23.3074687 C44.4920625,23.12475 44.1628125,23.10825 43.9097813,23.26575 C43.6193437,23.4466875 43.4967187,23.8260937 43.6304063,24.1425 Z" id="Fill-5" fill="#000000"></path>
                        <path d="M44.9483438,37.5336562 C44.8326563,37.2594375 44.5521563,37.0785 44.2536563,37.095 C43.9610625,37.11075 43.70475,37.3059375 43.6120313,37.5835313 C43.4018438,38.2119375 44.1331875,38.7696563 44.6847188,38.4008437 C44.968125,38.2111875 45.0714375,37.8479063 44.9483438,37.5336562 Z" id="Fill-6" fill="#000000"></path>
                        <path d="M32.0375625,35.3968125 C32.0375625,33.5075625 30.500625,31.970625 28.611375,31.970625 C26.7220313,31.970625 25.1850938,33.5075625 25.1850938,35.3968125 C25.1850938,37.2857812 26.7220313,38.8227187 28.611375,38.8227187 C30.500625,38.8227187 32.0375625,37.2857812 32.0375625,35.3968125 Z M26.6129062,35.3968125 C26.6129062,34.2945937 27.5094375,33.3980625 28.611375,33.3980625 C29.7135937,33.3980625 30.610125,34.2945937 30.610125,35.3968125 C30.610125,36.49875 29.7135937,37.3952812 28.611375,37.3952812 C27.5094375,37.3952812 26.6129062,36.49875 26.6129062,35.3968125 Z" id="Fill-7" fill="#000000"></path>
                    </g>
                </g>
            </g>
        </g>
    </g>
</svg>