<?xml version="1.0" encoding="UTF-8"?>
<svg width="55px" height="54px" viewBox="0 0 55 54" version="1.1" xmlns="http://www.w3.org/2000/svg" xmlns:xlink="http://www.w3.org/1999/xlink">
    <!-- Generator: Sketch 52.1 (67048) - http://www.bohemiancoding.com/sketch -->
    <title>dinero-4</title>
    <desc>Created with Sketch.</desc>
    <defs>
        <polygon id="path-1" points="0.00655020383 0.00435505596 54.1483516 0.00435505596 54.1483516 54.0026938 0.00655020383 54.0026938"></polygon>
    </defs>
    <g id="Page-1" stroke="none" stroke-width="1" fill="none" fill-rule="evenodd">
        <g id="17.-Dashboard-(Marketplace)" transform="translate(-728.000000, -286.000000)">
            <g id="Group-15" transform="translate(758.000000, 335.000000) scale(-1, 1) translate(-758.000000, -335.000000) translate(390.000000, 245.000000)">
                <g id="Group-13" transform="translate(334.000000, 41.000000)">
                    <g id="dinero-4" transform="translate(36.700549, 27.055785) scale(-1, 1) translate(-36.700549, -27.055785) translate(9.626374, 0.000000)">
                        <g id="Group-5">
                            <mask id="mask-2" fill="white">
                                <use xlink:href="#path-1"></use>
                            </mask>
                            <g id="Clip-2"></g>
                            <path d="M27.9475363,30.4853917 L29.6942574,30.4853917 L29.6942574,5.22606715 L27.9475363,5.22606715 L27.9475363,30.4853917 Z M32.7510191,33.5339309 C32.7510191,34.2542571 32.1632475,34.8404476 31.4409784,34.8404476 L24.9353159,34.8404476 L17.6881704,42.9713371 L18.9938444,44.128911 L22.6864126,39.9855108 C22.7117401,40.0116411 22.7388143,40.0360294 22.7650151,40.0612887 C22.1920906,40.6161229 21.8340128,41.3878388 21.8340128,42.2440428 C21.8340128,43.0976337 22.1894705,43.8676076 22.7580282,44.4215707 C22.1894705,44.9755339 21.8340128,45.7455078 21.8340128,46.5990987 C21.8340128,47.4526897 22.1894705,48.2226636 22.7580282,48.7766267 C22.1894705,49.3305898 21.8340128,50.1005637 21.8340128,50.9541547 C21.8340128,51.4236297 21.9501697,51.8634904 22.1405623,52.2606715 L18.702142,52.2606715 L16.0820604,49.6476379 L1.74672102,49.6476379 L1.74672102,39.1955036 L16.9903554,39.1955036 L23.1038789,32.2274141 L31.4409784,32.2274141 C32.1632475,32.2274141 32.7510191,32.8136046 32.7510191,33.5339309 Z M37.5545019,37.8889868 C37.5545019,38.6093131 36.9667303,39.1955036 36.2444612,39.1955036 L24.8907745,39.1955036 C24.4724349,39.1955036 24.10213,38.9855899 23.8602091,38.6694128 L25.7195937,36.58247 L36.2444612,36.58247 C36.9667303,36.58247 37.5545019,37.1686606 37.5545019,37.8889868 Z M37.5545019,42.2440428 C37.5545019,42.964369 36.9667303,43.5505596 36.2444612,43.5505596 L24.8907745,43.5505596 C24.1685054,43.5505596 23.5807338,42.964369 23.5807338,42.2440428 C23.5807338,41.5237165 24.1685054,40.937526 24.8907745,40.937526 L36.2444612,40.937526 C36.9667303,40.937526 37.5545019,41.5237165 37.5545019,42.2440428 Z M37.5545019,46.5990987 C37.5545019,47.319425 36.9667303,47.9056155 36.2444612,47.9056155 L24.8907745,47.9056155 C24.1685054,47.9056155 23.5807338,47.319425 23.5807338,46.5990987 C23.5807338,45.8787725 24.1685054,45.2925819 24.8907745,45.2925819 L36.2444612,45.2925819 C36.9667303,45.2925819 37.5545019,45.8787725 37.5545019,46.5990987 Z M37.5545019,50.9541547 C37.5545019,51.6744809 36.9667303,52.2606715 36.2444612,52.2606715 L24.8907745,52.2606715 C24.1685054,52.2606715 23.5807338,51.6744809 23.5807338,50.9541547 C23.5807338,50.2338284 24.1685054,49.6476379 24.8907745,49.6476379 L36.2444612,49.6476379 C36.9667303,49.6476379 37.5545019,50.2338284 37.5545019,50.9541547 Z M28.8208968,1.74202238 C29.3021185,1.74202238 29.6942574,2.13310641 29.6942574,2.61303357 L29.6942574,3.48404476 L27.9475363,3.48404476 L27.9475363,2.61303357 C27.9475363,2.13310641 28.3396752,1.74202238 28.8208968,1.74202238 Z M33.1876994,20.9042686 L54.1483516,20.9042686 L54.1483516,3.48404476 L31.4409784,3.48404476 L31.4409784,2.61303357 C31.4409784,1.17238106 30.2654351,0 28.8208968,0 C27.3763586,0 26.2008153,1.17238106 26.2008153,2.61303357 L26.2008153,30.4853917 L22.3108676,30.4853917 L16.197344,37.4534812 L0,37.4534812 L0,51.3896603 L15.3589179,51.3896603 L17.9789995,54.0026938 L36.2444612,54.0026938 C37.930047,54.0026938 39.301223,52.6352063 39.301223,50.9541547 C39.301223,50.1005637 38.9457652,49.3305898 38.3772076,48.7766267 C38.9457652,48.2226636 39.301223,47.4526897 39.301223,46.5990987 C39.301223,45.7455078 38.9457652,44.9755339 38.3772076,44.4215707 C38.9457652,43.8676076 39.301223,43.0976337 39.301223,42.2440428 C39.301223,41.3904518 38.9457652,40.6204779 38.3772076,40.0665148 C38.9457652,39.5125517 39.301223,38.7425778 39.301223,37.8889868 C39.301223,36.2079352 37.930047,34.8404476 36.2444612,34.8404476 L34.1911906,34.8404476 C34.3824566,34.4432665 34.4977402,34.0034059 34.4977402,33.5339309 C34.4977402,31.8528793 33.1265642,30.4853917 31.4409784,30.4853917 L31.4409784,5.22606715 L52.4016306,5.22606715 L52.4016306,19.1622462 L33.1876994,19.1622462 L33.1876994,20.9042686 Z" id="Fill-1" fill="#FC9712" mask="url(#mask-2)"></path>
                            <path d="M38.4278625,12.1941567 C38.4278625,11.5496084 38.615635,10.9538367 38.9230579,10.4355851 L43.6846194,15.1843381 C43.1649699,15.490934 42.5675913,15.6782014 41.9213045,15.6782014 C39.9946712,15.6782014 38.4278625,14.1156074 38.4278625,12.1941567 Z M45.4147465,12.1941567 C45.4147465,12.838705 45.226974,13.4344766 44.9195511,13.9527283 L40.1579896,9.20397526 C40.6776391,8.89737932 41.2750177,8.71011191 41.9213045,8.71011191 C43.8479378,8.71011191 45.4147465,10.272706 45.4147465,12.1941567 Z M47.1614676,12.1941567 C47.1614676,9.31198064 44.8112544,6.96808953 41.9213045,6.96808953 C39.0313546,6.96808953 36.6811414,9.31198064 36.6811414,12.1941567 C36.6811414,15.0763327 39.0313546,17.4202238 41.9213045,17.4202238 C44.8112544,17.4202238 47.1614676,15.0763327 47.1614676,12.1941567 Z" id="Fill-3" fill="#0A090B" mask="url(#mask-2)"></path>
                            <path d="M4.19387717,21.1951863 C2.61571473,19.4374857 1.74672102,17.1685016 1.74672102,14.8071902 C1.74672102,9.52450737 6.05675514,5.22606715 11.3536866,5.22606715 C13.0418925,5.22606715 14.7012775,5.66854083 16.153676,6.50558259 L17.0279099,4.99786221 C15.3108831,4.00752249 13.348442,3.48404476 11.3536866,3.48404476 C5.0934385,3.48404476 0,8.56378203 0,14.8071902 C0,17.5987811 1.02707196,20.2797536 2.89257001,22.3571153 L4.19387717,21.1951863" id="Fill-4" fill="#FC9712" mask="url(#mask-2)"></path>
                        </g>
                        <path d="M20.9606523,14.8071902 C20.9606523,20.0898731 16.6506181,24.3883134 11.3536866,24.3883134 C9.32661689,24.3883134 7.38862992,23.7664114 5.74933224,22.5905463 L4.72924716,24.0041974 C6.66723414,25.3952023 8.95805876,26.1303357 11.3536866,26.1303357 C17.6139348,26.1303357 22.7073733,21.0505985 22.7073733,14.8071902 C22.7073733,11.5905459 21.3274637,8.51413439 18.9231022,6.36709181 L17.7580393,7.66489848 C19.7929692,9.48182783 20.9606523,12.0852803 20.9606523,14.8071902" id="Fill-6" fill="#FC9712"></path>
                        <path d="M13.1004077,19.1622462 L9.60696562,19.1622462 C8.64364897,19.1622462 7.86024459,18.3809492 7.86024459,17.4202238 L6.11352357,17.4202238 C6.11352357,19.3416745 7.68033233,20.9042686 9.60696562,20.9042686 L10.4803261,20.9042686 L10.4803261,22.646291 L12.2270471,22.646291 L12.2270471,20.9042686 L13.1004077,20.9042686 C15.0270409,20.9042686 16.5938497,19.3416745 16.5938497,17.4202238 C16.5938497,15.4987731 15.0270409,13.9361791 13.1004077,13.9361791 L9.60696562,13.9361791 C8.64364897,13.9361791 7.86024459,13.154882 7.86024459,12.1941567 C7.86024459,11.2334313 8.64364897,10.4521343 9.60696562,10.4521343 L13.1004077,10.4521343 C14.0637243,10.4521343 14.8471287,11.2334313 14.8471287,12.1941567 L16.5938497,12.1941567 C16.5938497,10.272706 15.0270409,8.71011191 13.1004077,8.71011191 L12.2270471,8.71011191 L12.2270471,6.96808953 L10.4803261,6.96808953 L10.4803261,8.71011191 L9.60696562,8.71011191 C7.68033233,8.71011191 6.11352357,10.272706 6.11352357,12.1941567 C6.11352357,14.1156074 7.68033233,15.6782014 9.60696562,15.6782014 L13.1004077,15.6782014 C14.0637243,15.6782014 14.8471287,16.4594985 14.8471287,17.4202238 C14.8471287,18.3809492 14.0637243,19.1622462 13.1004077,19.1622462" id="Fill-7" fill="#0A090B"></path>
                        <polygon id="Fill-8" fill="#0A090B" points="10.4803261 31.3564029 12.2270471 31.3564029 12.2270471 29.6143805 10.4803261 29.6143805"></polygon>
                        <polygon id="Fill-9" fill="#0A090B" points="15.7204892 31.3564029 17.4672102 31.3564029 17.4672102 29.6143805 15.7204892 29.6143805"></polygon>
                        <polygon id="Fill-10" fill="#0A090B" points="5.24016306 31.3564029 6.98688408 31.3564029 6.98688408 29.6143805 5.24016306 29.6143805"></polygon>
                    </g>
                </g>
            </g>
        </g>
    </g>
</svg>