<?xml version="1.0" encoding="UTF-8"?>
<svg width="39px" height="28px" viewBox="0 0 39 28" version="1.1" xmlns="http://www.w3.org/2000/svg" xmlns:xlink="http://www.w3.org/1999/xlink">
    <!-- Generator: Sketch 52.1 (67048) - http://www.bohemiancoding.com/sketch -->
    <title>caminar</title>
    <desc>Created with Sketch.</desc>
    <g id="Page-1" stroke="none" stroke-width="1" fill="none" fill-rule="evenodd">
        <g id="20.-Deposit-Money" transform="translate(-892.000000, -432.000000)">
            <g id="Group-12" transform="translate(892.000000, 432.000000)">
                <g id="caminar" transform="translate(19.500000, 14.000000) scale(-1, -1) rotate(90.000000) translate(-19.500000, -14.000000) translate(6.000000, -5.000000)">
                    <path d="M26.0441917,17.6121066 C24.9880885,16.3647473 22.6447711,13.598066 21.2234204,11.9206185 C20.4695666,11.0299934 20.0579554,9.91238711 20.0579554,8.75671986 L20.0579554,8 L7.06901861,8 L8.28438674,12.5437791 C8.69139697,14.2679378 8.31836325,16.0803286 7.26119827,17.5166084 L1.67206236,23.0596591 C0.728152511,24.0516645 0.785487827,25.6042031 1.80018217,26.5273529 C2.93591778,27.5608792 4.7136679,27.4982517 5.77047889,26.3872195 L8.71263238,23.2949446 C10.0621369,21.8770032 12.4872103,22.5524112 12.8687381,24.45338 L13.2021327,26.1131811 L10.9299536,27.0916922 C9.83881207,27.5619172 9.37128116,28.8286531 9.90464161,29.8708298 C10.396947,30.8341165 11.5694906,31.2569384 12.5838309,30.8375765 L14.0310179,30.2393284 L14.9812985,35.520451 C15.2339987,36.7781906 16.5442179,37.7985687 17.8257694,37.5276443 C19.3133035,37.2134689 19.9829238,36.2342657 19.6997862,34.8267045 L18.426375,27.9362981 L21.8208407,26.110413 C24.4200437,24.7336466 26.7722092,22.08011 26.6787738,19.1912879 L26.678066,19.1819456 C26.659308,18.6041121 26.4214725,18.0574192 26.0441917,17.6121066 Z" id="Path" fill="#FFD578"></path>
                    <g id="Group" transform="translate(0.000000, 7.174825)" fill="#54596E">
                        <path d="M25.7032299,10.2529138 L26.1796088,9.86746071 C25.1235056,8.62010123 22.7801882,5.85342 21.3591915,4.17597244 C20.6970035,3.393994 20.3356491,2.41306094 20.3356491,1.39787296 L20.3356491,0.64149917 C20.3356491,0.481643357 20.2701735,0.32593973 20.154795,0.213832998 C20.0394164,0.101034382 19.8801516,0.0366768205 19.7173474,0.0366768205 L6.72805679,0.0366768205 C6.53623112,0.0366768205 6.35608486,0.122832918 6.23858276,0.271616382 C6.12143456,0.420399935 6.0814414,0.612434396 6.13028259,0.794434732 L7.34529672,5.33752181 L7.94342492,5.18458625 L7.34104975,5.32091342 C7.43837823,5.73300916 7.48615772,6.15098701 7.48615772,6.56654279 C7.48615772,7.71771195 7.11914065,8.85261871 6.41872903,9.80414119 L6.92059035,10.1574155 L6.47995751,9.73286347 L0.890821601,15.2759142 L0.878434309,15.2890625 C0.319237671,15.8762383 0.0399931611,16.6274221 0.0410549497,17.3709936 C0.0403470604,18.1882649 0.377280785,19.0093422 1.03805314,19.6107044 C1.69670193,20.2099905 2.53868234,20.5089416 3.37252252,20.5082496 C4.2891805,20.5092875 5.20866976,20.1484011 5.8825372,19.4401224 L8.82504459,16.3471554 C9.20197148,15.9533982 9.66348574,15.7838541 10.1352637,15.7817781 C10.542274,15.7814321 10.9489304,15.9167213 11.2695836,16.1613491 C11.5898831,16.4070148 11.8277187,16.751985 11.9211541,17.2107918 L12.1593435,18.3958698 L10.3398307,19.1792323 C9.32442844,19.6172786 8.72346896,20.5885235 8.72453075,21.6012894 C8.72417676,21.9985067 8.81690436,22.4036822 9.01049971,22.7822152 C9.48227768,23.7039809 10.4353896,24.2454837 11.4309721,24.2444456 C11.7834784,24.2444456 12.1420014,24.176628 12.4835361,24.0354567 L12.4842439,24.0354567 L13.2158006,23.7330456 L14.0315909,28.2660985 L14.0340682,28.2778628 C14.1770527,28.9837194 14.5716758,29.60515 15.1036205,30.0615348 C15.6359192,30.5165355 16.3204042,30.8154866 17.0632865,30.8165246 C17.2462641,30.8165246 17.4313654,30.7981861 17.614343,30.7597793 L17.6161127,30.7594332 C18.3398831,30.6071896 18.9546456,30.3027025 19.3885539,29.8297094 C19.8249397,29.3587922 20.0450792,28.7332095 20.04154,28.0716419 C20.04154,27.8367024 20.0157036,27.5962267 19.9665085,27.3505609 L19.3595323,27.4671657 L19.968632,27.3599031 L18.7737914,20.8971628 L21.778943,19.2809586 L21.7754038,19.2830346 C23.1252622,18.5667978 24.4029206,17.5360395 25.3613412,16.2907561 C26.3169306,15.0472028 26.9589451,13.5756301 26.9596529,11.998871 C26.9596529,11.9365894 26.9589451,11.874654 26.9564676,11.8130645 L26.9554058,11.7850379 L26.337812,11.8227527 L26.9564676,11.8026843 C26.9313392,11.0736451 26.6333368,10.4023893 26.1799628,9.86746071 L25.7032299,10.2529138 L25.2272048,10.6387129 C25.5276846,10.9940633 25.7057073,11.4165392 25.7195103,11.8424752 L25.7202181,11.8604677 L25.7209259,11.8701558 L26.3381659,11.832095 L25.7195103,11.8511255 L25.7219877,11.999217 C25.7234034,13.2462304 25.2088009,14.4752513 24.3721293,15.564485 C23.5372273,16.6516426 22.3845035,17.5851727 21.1850618,18.2197516 L21.1818766,18.2214817 L17.7874108,20.0477127 C17.5545302,20.1722756 17.4292419,20.4297057 17.4763135,20.6847137 L18.7504326,27.5747742 L18.7522022,27.5841164 C18.7875944,27.7605806 18.8038747,27.9235505 18.8038747,28.0716419 C18.8003356,28.4923878 18.6838953,28.7816507 18.467295,29.0221263 C18.2489251,29.2601799 17.8942953,29.4629407 17.3542103,29.5774694 L17.3556261,29.5771234 C17.2575896,29.5978839 17.1595533,29.6075721 17.0625786,29.6075721 C16.6711409,29.6089561 16.2570523,29.4425262 15.917995,29.1515334 C15.5782299,28.8626166 15.3290688,28.458133 15.2469589,28.0446533 L14.6399827,28.1616041 L15.2494364,28.0564176 L14.2988019,22.775641 C14.2662411,22.5946787 14.1501547,22.436553 13.985581,22.349359 C13.8199455,22.2614729 13.6217492,22.2517847 13.4490352,22.3230624 L12.0014944,22.9213104 L12.0018483,22.9213104 C11.8139157,22.9991623 11.6210282,23.0348011 11.4306182,23.0351472 C10.8894715,23.0344551 10.3723915,22.7427702 10.1168598,22.2414044 C10.0103293,22.0327615 9.961488,21.8161604 9.9611341,21.6012894 C9.96184199,21.0504444 10.2856806,20.5234739 10.8385067,20.2861123 L13.1103319,19.3079472 C13.3754195,19.1934186 13.5240667,18.915228 13.468501,18.6377294 L13.1343986,16.9775823 C12.9864592,16.2319347 12.5723705,15.6184623 12.0291003,15.2070586 C11.4854761,14.7942708 10.8169175,14.5735177 10.1349098,14.5728256 C9.34672554,14.5704036 8.5302276,14.8783508 7.91829643,15.524002 L4.97685093,18.616623 C4.54400432,19.0705857 3.9618026,19.2986051 3.37216862,19.299297 C2.83633079,19.2986051 2.30438603,19.1107226 1.88074136,18.7256156 C1.47903998,18.359885 1.27836619,17.8688994 1.2776583,17.3713396 C1.27836619,16.9187609 1.44435558,16.4703343 1.78412068,16.1129079 L1.33145444,15.7008122 L1.77173348,16.1253642 L7.36086938,10.5819675 L7.42245176,10.5106898 C8.27575768,9.35156252 8.72346896,7.96925991 8.72346896,6.56688886 C8.72346896,6.06033292 8.66507186,5.5513549 8.54650797,5.04860506 L8.54190701,5.03165069 L7.52933615,1.24597536 L19.0990457,1.24597536 L19.0990457,1.39787296 C19.0990457,2.69367349 19.56056,3.9486451 20.4067875,4.94757068 C21.8277841,6.62501823 24.1711016,9.39169947 25.2272048,10.6387129 L25.7032299,10.2529138 Z" id="Path"></path>
                        <path d="M12.2113701,18.6574519 L13.1520947,23.3797712 C13.2175702,23.707441 13.5421167,23.9212741 13.8776348,23.8576086 C14.2131528,23.7939431 14.4318766,23.4763075 14.3667549,23.1482918 L13.4256764,18.4259724 C13.3605548,18.0983027 13.0356544,17.8844697 12.7004902,17.9481352 C12.3649722,18.0121467 12.1462484,18.3294362 12.2113701,18.6574519" id="Path"></path>
                        <path d="M18.7380453,20.6857517 L17.7806864,14.8596663 C17.7265363,14.5295746 17.4094222,14.3057073 17.0721345,14.3583005 C16.7348469,14.4115858 16.5051516,14.7216091 16.5593016,15.0513549 L17.5166605,20.8774402 C17.5708107,21.2071861 17.8882787,21.4313994 18.2255663,21.37846 C18.5628539,21.3258668 18.7921953,21.0154975 18.7380453,20.6857517" id="Path"></path>
                        <path d="M20.3784737,14.7939248 L19.8967858,19.2006847 C19.8603319,19.5328526 20.1063076,19.8307656 20.4460727,19.8664044 C20.7858378,19.9016973 21.0905647,19.6615676 21.1266647,19.3293998 L21.6083526,14.9222939 C21.6448065,14.590126 21.3988308,14.292213 21.0590657,14.2569202 C20.7196545,14.2212813 20.4149276,14.461757 20.3784737,14.7939248" id="Path"></path>
                        <path d="M23.6196911,12.9808421 L23.6196911,16.3692999 C23.6196911,16.7031978 23.8968121,16.9737762 24.2383468,16.9737762 C24.5798815,16.9737762 24.8570024,16.7031978 24.8570024,16.3692999 L24.8570024,12.9808421 C24.8570024,12.6465982 24.5798815,12.3760198 24.2383468,12.3760198 C23.8968121,12.3760198 23.6196911,12.6465982 23.6196911,12.9808421" id="Path"></path>
                    </g>
                    <polygon id="Path" fill="#FFFFFF" points="20.7748663 0.604822261 20.7748663 7.86095938 5.31130717 7.86095938 5.31130717 0.604822261"></polygon>
                    <path d="M20.7748663,0.604822261 L20.1558568,0.604822261 L20.1558568,7.2564831 L5.9299628,7.2564831 L5.9299628,1.20895255 L20.7748663,1.20929854 L20.7748663,0.604822261 L20.1558568,0.604822261 L20.7748663,0.604822261 L20.7748663,0 L5.31130717,0 C5.14885696,0 4.98923813,0.0643574732 4.87385961,0.177156177 C4.75918889,0.289954881 4.69300545,0.445658508 4.69300545,0.604822261 L4.69300545,7.86095938 C4.69300545,8.02254512 4.75741921,8.17409674 4.87385961,8.28862546 C4.99100781,8.40280811 5.14602559,8.46543556 5.31130717,8.46543556 L20.7748663,8.46543556 C20.9401479,8.46543556 21.0951657,8.40280811 21.211606,8.28862546 C21.3287542,8.17409674 21.393168,8.02254512 21.393168,7.86095938 L21.393168,0.604822261 C21.393168,0.445658508 21.3269846,0.289954881 21.211606,0.177156177 C21.0969353,0.0643574732 20.9373165,7.86731467e-17 20.7748663,7.86731467e-17 L20.7748663,0.604822261 Z" id="Path" fill="#54596E"></path>
                    <path d="M18.3002438,4.23271778 C18.3002438,4.90085956 17.7467099,5.4423623 17.0632865,5.4423623 C16.380217,5.4423623 15.8263292,4.90085956 15.8263292,4.23271778 C15.8263292,3.56492208 16.380217,3.02341924 17.0632865,3.02341924 C17.7467099,3.02341924 18.3002438,3.56492208 18.3002438,4.23271778 Z" id="Path" fill="#54596E"></path>
                    <polygon id="Path" fill="#E6E6E9" points="10.2598443 1.20929854 5.92960881 1.20929854 5.92960881 7.2564831 10.2598443 7.2564831"></polygon>
                </g>
            </g>
        </g>
    </g>
</svg>