<?xml version="1.0" encoding="UTF-8"?>
<svg width="26px" height="26px" viewBox="0 0 26 26" version="1.1" xmlns="http://www.w3.org/2000/svg" xmlns:xlink="http://www.w3.org/1999/xlink">
    <!-- Generator: Sketch 52.1 (67048) - http://www.bohemiancoding.com/sketch -->
    <title>conversacion</title>
    <desc>Created with Sketch.</desc>
    <defs>
        <polygon id="path-1" points="0.003046875 0 18.078125 0 18.078125 17.1640625 0.003046875 17.1640625"></polygon>
    </defs>
    <g id="Page-1" stroke="none" stroke-width="1" fill="none" fill-rule="evenodd">
        <g id="5.-Dashboard" transform="translate(-108.000000, -929.000000)">
            <g id="conversacion" transform="translate(108.000000, 929.000000)">
                <g id="Group-3" transform="translate(0.000000, 8.835938)">
                    <mask id="mask-2" fill="white">
                        <use xlink:href="#path-1"></use>
                    </mask>
                    <g id="Clip-2"></g>
                    <path d="M9.03916406,17.1640625 C8.90698047,17.1640625 8.77713281,17.1124687 8.67998828,17.0153242 L6.59435156,14.9296875 L3.5546875,14.9296875 C1.59463281,14.9296875 0,13.3350547 0,11.375 L0,3.5546875 C0,1.59463281 1.59463281,0 3.5546875,0 L8.68359375,0 C8.96400781,0 9.19140625,0.227347656 9.19140625,0.5078125 C9.19140625,0.788277344 8.96400781,1.015625 8.68359375,1.015625 L3.5546875,1.015625 C2.15464844,1.015625 1.015625,2.15464844 1.015625,3.5546875 L1.015625,11.375 C1.015625,12.7750391 2.15464844,13.9140625 3.5546875,13.9140625 L6.85440234,13.9140625 C7.06209766,13.9140625 7.24166016,14.0390352 7.32011719,14.2191562 L8.53216406,15.4311523 L8.532875,14.4215195 C8.53307812,14.141207 8.76032422,13.9140625 9.0406875,13.9140625 L14.5234375,13.9140625 C15.9234766,13.9140625 17.0625,12.7750391 17.0625,11.375 L17.0625,7.87109375 C17.0625,7.59062891 17.2898984,7.36328125 17.5703125,7.36328125 C17.8507266,7.36328125 18.078125,7.59062891 18.078125,7.87109375 L18.078125,11.375 C18.078125,13.3350547 16.4834922,14.9296875 14.5234375,14.9296875 L9.54809375,14.9296875 L9.546875,16.6566055 C9.54672266,16.8619141 9.42296875,17.0469609 9.23319922,17.1254687 C9.17048438,17.151418 9.10451953,17.1640625 9.03916406,17.1640625" id="Fill-1" fill="#0A090B" mask="url(#mask-2)"></path>
                </g>
                <path d="M20.6404961,13.4437266 C20.7731367,13.4437266 20.902832,13.4957773 20.9995195,13.5923633 L22.2421875,14.8343711 L22.2421875,12.8742148 C22.2421875,12.7147109 22.3171406,12.5645 22.4444492,12.4685742 C24.0586328,11.2528711 24.984375,9.39844141 24.984375,7.38085156 C24.984375,3.87105469 22.1289961,1.015625 18.6191992,1.015625 L17.3339766,1.015625 C13.8241797,1.015625 10.96875,3.87105469 10.96875,7.38085156 C10.96875,10.8906484 13.8241289,13.7460781 17.3339766,13.7460781 L18.6191992,13.7460781 C19.2570625,13.7460781 19.8869531,13.6519297 20.4914023,13.4661719 C20.540457,13.4510898 20.5907305,13.4437266 20.6404961,13.4437266 Z M22.7501016,16.5676367 C22.6179688,16.5676367 22.4881719,16.516043 22.3910273,16.419 L20.4924688,14.5215078 C19.8830938,14.6809609 19.2543711,14.7616523 18.6191484,14.7616523 L17.3339258,14.7616523 C13.2641641,14.7616523 9.953125,11.4506641 9.953125,7.38085156 C9.953125,3.31103906 13.2641641,0 17.3339766,0 L18.6191992,0 C22.6889609,0 26,3.31103906 26,7.38085156 C26,8.55978906 25.7301992,9.68657422 25.1979609,10.7299258 C24.7293516,11.6485586 24.0616289,12.4708594 23.2578125,13.1218242 L23.2578125,16.0598242 C23.2578125,16.2651836 23.1341094,16.450332 22.9443906,16.5289414 C22.8815742,16.5549922 22.8155586,16.5676367 22.7501016,16.5676367 Z" id="Fill-4" fill="#0A090B"></path>
                <path d="M18.11875,9.48461719 C17.8383359,9.48461719 17.6109375,9.25726953 17.6109375,8.97680469 L17.6109375,7.75678516 C17.6109375,7.3019375 17.9222266,6.91457812 18.3679844,6.81484375 C18.9181484,6.69175 19.289207,6.19196094 19.250207,5.62641016 C19.2116133,5.06644531 18.7602188,4.61505078 18.2002031,4.57645703 C17.8807891,4.55441797 17.5772188,4.66171875 17.3449453,4.87850391 C17.1124688,5.09549219 16.9843984,5.39007422 16.9843984,5.70791406 C16.9843984,5.98837891 16.757,6.21572656 16.4765859,6.21572656 C16.1961719,6.21572656 15.9687734,5.98837891 15.9687734,5.70791406 C15.9687734,5.11423047 16.2177539,4.54131641 16.6519336,4.13603125 C17.0921563,3.72505859 17.6673047,3.52178125 18.2699766,3.56316797 C19.3331328,3.63644531 20.1901172,4.49342969 20.2633945,5.55653516 C20.3362656,6.61385156 19.6497539,7.55015625 18.6265117,7.79735937 L18.6265117,8.97680469 C18.6265625,9.25726953 18.3992148,9.48461719 18.11875,9.48461719" id="Fill-5" fill="#0A090B"></path>
                <path d="M18.11875,11.4933203 C17.9851953,11.4933203 17.8541797,11.4394922 17.7597266,11.3450391 C17.6653242,11.2505859 17.6109375,11.1195703 17.6109375,10.9855078 C17.6109375,10.8519531 17.6652734,10.7209375 17.7597266,10.6264844 C17.8541797,10.5320312 17.9851953,10.4776953 18.11875,10.4776953 C18.2523047,10.4776953 18.3833203,10.5320312 18.4777734,10.6264844 C18.5721758,10.7209375 18.6265625,10.8519531 18.6265625,10.9855078 C18.6265625,11.1195703 18.5722266,11.2500781 18.4777734,11.3450391 C18.3833203,11.4394922 18.2523047,11.4933203 18.11875,11.4933203" id="Fill-6" fill="#0A090B"></path>
                <path d="M13.9648438,16.7578125 L3.25,16.7578125 C2.96958594,16.7578125 2.7421875,16.5304648 2.7421875,16.25 C2.7421875,15.9695352 2.96958594,15.7421875 3.25,15.7421875 L13.9648438,15.7421875 C14.2452578,15.7421875 14.4726562,15.9695352 14.4726562,16.25 C14.4726562,16.5304648 14.2453086,16.7578125 13.9648438,16.7578125" id="Fill-7" fill="#0A090B"></path>
                <path d="M13.9648438,19.6015625 C13.8312891,19.6015625 13.7002734,19.5472266 13.6058203,19.4527734 C13.5113672,19.3583203 13.4570312,19.2273047 13.4570312,19.09375 C13.4570312,18.9601953 13.5113164,18.8291797 13.6058203,18.7347266 C13.7002734,18.6402734 13.8312891,18.5859375 13.9648438,18.5859375 C14.0983984,18.5859375 14.2294141,18.6402734 14.3238164,18.7347266 C14.4182695,18.8291797 14.4726562,18.9601953 14.4726562,19.09375 C14.4726562,19.2278125 14.4183203,19.3583203 14.3238164,19.4527734 C14.2294141,19.5472266 14.0983984,19.6015625 13.9648438,19.6015625" id="Fill-8" fill="#0A090B"></path>
                <path d="M11.9674648,19.6015625 L3.25,19.6015625 C2.96958594,19.6015625 2.7421875,19.3742148 2.7421875,19.09375 C2.7421875,18.8132852 2.96958594,18.5859375 3.25,18.5859375 L11.9674648,18.5859375 C12.2478789,18.5859375 12.4752773,18.8132852 12.4752773,19.09375 C12.4752773,19.3742148 12.2479297,19.6015625 11.9674648,19.6015625" id="Fill-9" fill="#0A090B"></path>
                <path d="M10.6640625,13.9140625 L3.25,13.9140625 C2.96958594,13.9140625 2.7421875,13.6867148 2.7421875,13.40625 C2.7421875,13.1257852 2.96958594,12.8984375 3.25,12.8984375 L10.6640625,12.8984375 C10.9444766,12.8984375 11.171875,13.1257852 11.171875,13.40625 C11.171875,13.6867148 10.9445273,13.9140625 10.6640625,13.9140625" id="Fill-10" fill="#0A090B"></path>
            </g>
        </g>
    </g>
</svg>