<?xml version="1.0" encoding="UTF-8"?>
<svg width="44px" height="51px" viewBox="0 0 44 51" version="1.1" xmlns="http://www.w3.org/2000/svg" xmlns:xlink="http://www.w3.org/1999/xlink">
    <!-- Generator: Sketch 52.1 (67048) - http://www.bohemiancoding.com/sketch -->
    <title>reloj-de-arena</title>
    <desc>Created with Sketch.</desc>
    <defs>
        <polygon id="path-1" points="0.0221167654 0 43.2 0 43.2 50.1801674 0.0221167654 50.1801674"></polygon>
    </defs>
    <g id="Page-1" stroke="none" stroke-width="1" fill="none" fill-rule="evenodd">
        <g id="17.-Dashboard-(Marketplace)" transform="translate(-595.000000, -287.000000)">
            <g id="Group-15" transform="translate(758.000000, 335.000000) scale(-1, 1) translate(-758.000000, -335.000000) translate(390.000000, 245.000000)">
                <g id="Group-17" transform="translate(467.000000, 42.000000)">
                    <g id="reloj-de-arena" transform="translate(42.200000, 25.491525) scale(-1, 1) translate(-42.200000, -25.491525) translate(20.600000, 0.398305)">
                        <g id="Group-3">
                            <mask id="mask-2" fill="white">
                                <use xlink:href="#path-1"></use>
                            </mask>
                            <g id="Clip-2"></g>
                            <path d="M31.8720583,-1.90022084e-14 C28.2590913,-0.00940995763 24.8611806,1.70968475 22.7353631,4.62248485 L0.647580583,4.62248485 C0.300198058,4.62530784 0.0204466019,4.90792023 0.0221242718,5.25472945 C0.0197126214,7.33600297 1.70430291,9.02854068 3.7919534,9.04192373 L3.7919534,15.0293752 C3.7919534,20.819113 7.61714563,25.7307972 12.8651068,27.4191528 C7.45608932,29.1684639 3.79237282,34.1931721 3.7919534,39.8637172 L3.7919534,45.7955453 C1.7075534,45.8020278 0.0212854369,47.4896514 0.0221242718,49.5685201 C0.0217048544,49.7335081 0.0880776699,49.8920136 0.205619417,50.0075469 C0.323161165,50.1239167 0.482539806,50.1881136 0.647580583,50.1864407 L33.1425786,50.1864407 C33.3072,50.1881136 33.4665786,50.1239167 33.583701,50.0075469 C33.7008233,49.8920136 33.7663573,49.7335081 33.7655184,49.5689383 C33.7655184,47.4892332 32.0785165,45.8016095 29.9928583,45.7955453 L29.9928583,39.8089303 C29.9814291,34.1560551 26.3221165,29.1528852 20.9283029,27.4138204 C23.862967,26.4679106 26.3708738,24.5226632 28.0124738,21.9186143 C32.2624311,23.4537966 37.0205126,22.3229288 40.1186447,19.0412584 C43.2176155,15.7600061 44.0633709,10.9558046 42.2710951,6.81814163 C40.479134,2.68047871 36.3918058,0.000836440678 31.8720583,-1.90022084e-14 Z M5.04936699,15.026134 L5.04936699,9.01139364 L20.7725942,9.01139364 C20.6210796,9.76607225 20.5449553,10.5339248 20.5452699,11.3033457 C20.5469476,13.4504889 21.1560466,15.5538235 22.301266,17.3720364 L5.27627184,17.3720364 C5.12842718,16.5989561 5.05272233,15.8131201 5.04936699,15.026134 Z M1.35576699,5.87630943 L21.9338563,5.87630943 C21.6106951,6.48116059 21.3341942,7.1105822 21.1068699,7.75746451 L3.81323883,7.75746451 C2.63121553,7.75746451 1.63593786,7.02599714 1.35576699,5.87630943 Z M32.4343922,48.9326161 L1.35576699,48.9326161 C1.66288544,47.8294554 2.66518835,47.0624393 3.81323883,47.051461 L29.9773398,47.051461 C31.1253903,47.0624393 32.1271689,47.8294554 32.4343922,48.9326161 Z M9.08426796,45.7972182 L14.1938214,40.6233099 C14.8663573,39.929796 15.7900194,39.5348914 16.7574058,39.5271543 L16.7783767,39.5271543 C17.7388427,39.5324867 18.6575767,39.9163084 19.3346214,40.5956028 L24.472066,45.7972182 L9.08426796,45.7972182 Z M28.7354447,39.8114396 L28.7354447,45.7972182 L26.2406447,45.7972182 L20.2561864,39.7603122 L20.2176,39.7019704 C19.3058913,38.7911911 18.0693437,38.2769892 16.7787961,38.2729115 L16.750066,38.2729115 C15.4488233,38.2806486 14.2053553,38.8103247 13.2993087,39.7415968 L7.31568932,45.7972182 L5.04936699,45.7972182 L5.04936699,39.8624625 C5.04936699,33.3612273 10.3219689,28.0314273 16.8446447,28.0314273 L16.8967573,28.0314273 C23.4284505,28.0252586 28.7284194,33.2991216 28.7354447,39.8114396 Z M16.9491845,26.7774982 L16.8676078,26.7774982 C11.7412777,26.7722704 7.19772816,23.484013 5.60320777,18.6259656 L23.226501,18.6259656 C24.2336272,19.7898728 25.462835,20.743206 26.8427184,21.4292965 C24.6624816,24.7636627 20.9414097,26.7755117 16.9491845,26.7774982 Z M31.8720583,21.3399019 C26.3106874,21.3399019 21.8027883,16.8443469 21.8032078,11.2996862 C21.8032078,5.75418909 26.3111068,1.25957511 31.8720583,1.25957511 C37.4330097,1.25999333 41.9409087,5.75502553 41.9404893,11.3001044 C41.9344078,16.8423604 37.4297592,21.3337332 31.8720583,21.3399019 Z" id="Fill-1" fill="#FC9712" mask="url(#mask-2)"></path>
                        </g>
                        <path d="M36.0641359,5.56264417 C36.4115184,5.56264417 36.6928427,5.28212288 36.6928427,4.93573189 C36.6928427,4.58944544 36.4115184,4.3088196 36.0641359,4.3088196 L27.6798757,4.3088196 C27.3321786,4.3088196 27.0511689,4.58944544 27.0511689,4.93573189 C27.0511689,5.28212288 27.3321786,5.56264417 27.6798757,5.56264417 L30.0788388,5.56264417 C31.4997204,5.56264417 32.6904466,6.50322172 32.9799495,7.8620196 L27.6798757,7.8620196 C27.3321786,7.8620196 27.0511689,8.14222722 27.0511689,8.48893189 C27.0511689,8.83532288 27.3321786,9.11594873 27.6798757,9.11594873 L32.9799495,9.11594873 C32.6907612,10.4747466 31.5001398,11.4153242 30.0792583,11.4153242 L27.6798757,11.4153242 C27.4206757,11.4194018 27.1896816,11.5790574 27.0954175,11.8196387 C27.0008388,12.0598017 27.0610252,12.3338406 27.2477709,12.5123161 L33.2441825,18.1651913 C33.3649748,18.2799928 33.526765,18.3416803 33.6934835,18.3376026 C33.8606214,18.3331068 34.0183223,18.2628458 34.1329282,18.1419801 C34.3717864,17.8862383 34.3602524,17.4876744 34.1079728,17.2458385 L29.2608699,12.6691487 L30.0788388,12.6691487 C32.1571573,12.6654893 33.9265748,11.1612553 34.2579146,9.11594873 L36.0641359,9.11594873 C36.4115184,9.11594873 36.6928427,8.83532288 36.6928427,8.48893189 C36.6928427,8.14222722 36.4115184,7.8620196 36.0641359,7.8620196 L34.2579146,7.8620196 C34.1223379,6.92144206 33.6988311,6.0854196 33.0836505,5.56264417 L36.0641359,5.56264417 Z" id="Fill-4" fill="#000000"></path>
                    </g>
                </g>
            </g>
        </g>
    </g>
</svg>