<?xml version="1.0" encoding="UTF-8"?>
<svg width="295px" height="190px" viewBox="0 0 295 190" version="1.1" xmlns="http://www.w3.org/2000/svg" xmlns:xlink="http://www.w3.org/1999/xlink">
    <!-- Generator: Sketch 52.1 (67048) - http://www.bohemiancoding.com/sketch -->
    <title>undraw_wallet_aym5</title>
    <desc>Created with Sketch.</desc>
    <defs>
        <linearGradient x1="49.9879247%" y1="99.9938906%" x2="49.9879247%" y2="-0.00738901634%" id="linearGradient-1">
            <stop stop-color="#808080" stop-opacity="0.25" offset="0%"></stop>
            <stop stop-color="#808080" stop-opacity="0.12" offset="54%"></stop>
            <stop stop-color="#808080" stop-opacity="0.1" offset="100%"></stop>
        </linearGradient>
    </defs>
    <g id="Page-1" stroke="none" stroke-width="1" fill="none" fill-rule="evenodd">
        <g id="20.-Deposit-Money" transform="translate(-447.000000, -270.000000)">
            <g id="undraw_wallet_aym5" transform="translate(424.000000, 237.000000)">
                <rect id="Rectangle" fill="#85848B" x="23.814978" y="220.742055" width="294.067348" height="2.14337093"></rect>
                <path d="M256.792705,182.896328 C256.792705,184.545075 247.157445,189.351591 235.712247,189.351591 C224.267048,189.351591 215.34904,184.545075 215.34904,182.896328 C215.34904,181.247581 224.625674,181.778534 236.082079,181.778534 C247.538485,181.778534 256.792705,181.244787 256.792705,182.896328 Z" id="Path" fill="#504F60"></path>
                <path d="M256.792705,182.896328 C256.792705,184.545075 247.157445,189.351591 235.712247,189.351591 C224.267048,189.351591 215.34904,184.545075 215.34904,182.896328" id="Path" fill="#000000" opacity="0.2"></path>
                <path d="M141.531013,152.643221 C143.388581,152.880752 145.316194,153.031654 147.095313,152.45599 C147.375489,152.369361 147.683683,152.176541 147.655665,151.897093 C147.635631,151.795548 147.592497,151.699944 147.529586,151.617644 C146.858939,150.614418 146.295512,149.543876 145.848529,148.423546 C145.830814,148.365116 145.794404,148.314078 145.744863,148.278233 C145.686932,148.257314 145.623482,148.257314 145.565551,148.278233 C144.744634,148.493409 144.035789,149.021566 143.220476,149.24792 C142.80477,149.361669 142.370894,149.393935 141.942872,149.342932 C141.57304,149.301015 141.068722,148.996416 140.732511,149.035539 C140.923031,150.256729 141.388123,151.39688 141.531013,152.643221 Z" id="Path" fill="#3F51B5"></path>
                <path d="M176.662308,149.549724 C177.886678,148.711378 179.155877,147.831115 179.878731,146.537268 C179.930339,146.459884 179.96032,146.370172 179.965586,146.277381 C179.953257,146.186059 179.917556,146.099442 179.861921,146.025877 C179.173357,144.934078 178.286885,143.979781 177.247877,143.21183 C176.705766,143.593784 176.215986,144.044715 175.79096,144.553183 C175.482767,144.877343 174.631031,145.391529 174.622626,145.886153 C174.622626,146.165602 174.94763,146.489762 175.098925,146.724499 C175.303454,147.026303 175.496775,147.333697 175.681692,147.646679 C175.788159,147.800376 176.76037,149.488246 176.662308,149.549724 Z" id="Path" fill="#3F51B5"></path>
                <path d="M148.812793,156.385038 C148.834667,156.672933 148.755423,156.959448 148.588652,157.195439 C148.45786,157.326648 148.295951,157.422772 148.117956,157.474887 C145.520722,158.402657 142.514432,157.245739 139.922802,158.159536 C139.390467,158.346767 138.88615,158.617832 138.351013,158.796679 C137.713034,158.98799 137.054826,159.104284 136.38978,159.143195 C135.473604,159.229825 134.551824,159.285714 133.632846,159.310865 C132.934608,159.360173 132.232946,159.298867 131.553938,159.129223 C130.867241,158.953917 130.28764,158.495708 129.959736,157.86891 C129.818862,157.591099 129.790764,157.269822 129.881286,156.97188 C129.921918,156.869719 129.979715,156.775215 130.052194,156.692431 C130.227831,156.495906 130.434069,156.32889 130.662978,156.197807 L131.618379,155.58302 C132.066387,155.267036 132.5532,155.009704 133.06689,154.817331 C133.445128,154.694373 133.84578,154.641278 134.229621,154.537882 C135.571665,154.146654 136.59711,153.084749 137.549709,152.064762 L138.849727,150.681491 C138.971264,150.529291 139.125386,150.406122 139.300811,150.321003 C139.481115,150.261029 139.672761,150.24287 139.861163,150.267907 C141.123969,150.357834 142.343332,150.765476 143.405392,151.452769 C143.676834,151.655851 143.970007,151.828299 144.279542,151.966955 C145.041621,152.26317 146.019436,152.039612 146.722678,151.66515 C147.056088,151.486303 146.983242,151.385702 147.12333,151.06713 C147.263419,150.748559 147.605233,150.544561 147.90222,150.835188 C147.991825,150.935691 148.055322,151.056598 148.087137,151.187293 C148.367313,152.109474 148.260846,153.101516 148.260846,154.068409 C148.252626,154.219589 148.271604,154.371016 148.316881,154.515526 C148.388373,154.661224 148.473753,154.799723 148.571841,154.92911 C148.591808,154.963355 148.609587,154.998822 148.625075,155.035301 C148.796463,155.463372 148.860888,155.926599 148.812793,156.385038 Z" id="Path" fill="#514E7F"></path>
                <path d="M148.812793,156.385038 C148.834667,156.672933 148.755423,156.959448 148.588652,157.195439 C148.45786,157.326648 148.295951,157.422772 148.117956,157.474887 C145.520722,158.402657 142.514432,157.245739 139.922802,158.159536 C139.390467,158.346767 138.88615,158.617832 138.351013,158.796679 C137.713034,158.98799 137.054826,159.104284 136.38978,159.143195 C135.473604,159.229825 134.551824,159.285714 133.632846,159.310865 C132.934608,159.360173 132.232946,159.298867 131.553938,159.129223 C130.867241,158.953917 130.28764,158.495708 129.959736,157.86891 C129.818862,157.591099 129.790764,157.269822 129.881286,156.97188 C129.921918,156.869719 129.979715,156.775215 130.052194,156.692431 C130.203489,157.008208 130.312758,157.427381 130.408018,157.578283 C130.668365,158.030687 131.111408,158.349379 131.623982,158.452957 C132.003213,158.476182 132.383432,158.42783 132.744687,158.310439 C135.098167,157.729185 137.600141,157.720802 139.861163,156.840539 C140.637251,156.53594 141.376916,156.130739 142.192229,155.946303 C143.007542,155.761867 143.873286,155.812168 144.713815,155.742306 C146.04185,155.636115 147.327859,155.236504 148.636282,155.026917 C148.805232,155.458506 148.865828,155.924748 148.812793,156.385038 Z" id="Path" fill="#464353"></path>
                <path d="M182.610449,149.379261 C182.487172,150.36292 181.862379,151.209649 181.175947,151.927832 C180.489515,152.646015 179.713427,153.291541 179.167084,154.118709 C178.494661,155.144286 178.19207,156.415777 177.317921,157.282068 C176.982368,157.597098 176.605329,157.865041 176.197216,158.078496 C175.740031,158.347536 175.256569,158.569445 174.754308,158.740789 C173.448687,159.157168 172.042203,159.062155 170.677744,158.961554 C170.234754,158.957307 169.7962,158.873043 169.38333,158.712845 C169.195377,158.61761 169.015475,158.507332 168.845392,158.383095 C168.503363,158.173023 168.215482,157.88589 168.004863,157.544749 C167.901441,157.359263 167.872405,157.141555 167.923612,156.935551 C168.001584,156.708636 168.135504,156.504914 168.313057,156.34312 C168.620097,156.024654 168.949686,155.728607 169.299278,155.457268 C169.778953,155.148516 170.211189,154.771998 170.582485,154.339474 C170.810283,153.997696 170.97799,153.619682 171.078396,153.221679 C171.276855,152.524404 171.398055,151.807526 171.439824,151.083897 C171.438289,150.603068 171.488067,150.123441 171.588317,149.65312 C171.795648,148.915376 172.344793,148.255877 172.283154,147.492982 C172.258219,147.38374 172.268011,147.269465 172.311172,147.166028 C172.376397,147.085201 172.467332,147.029007 172.568934,147.006742 C172.997096,146.836531 173.448626,146.73195 173.908176,146.696554 C174.374951,146.664441 174.831545,146.842912 175.152159,147.182794 C175.342678,147.411942 175.468758,147.741692 175.748934,147.831115 C175.887768,147.868907 176.033413,147.874641 176.174802,147.847882 C176.864035,147.77802 177.592493,147.691391 178.136035,147.247068 C178.643932,146.7927 178.938476,146.147399 178.948546,145.46698 C178.948546,145.212682 178.833674,144.947206 179.228722,144.908083 C179.525709,144.86896 179.761057,145.187531 179.912352,145.383145 C180.458696,146.112506 181.019048,146.875401 181.223577,147.764048 C181.303118,147.733256 181.387614,147.717158 181.472934,147.716541 C181.827619,147.713428 182.161406,147.883541 182.366696,148.172043 C182.589824,148.532526 182.676285,148.960735 182.610449,149.379261 Z" id="Path" fill="#514E7F"></path>
                <path d="M182.610449,149.379261 C182.487172,150.36292 181.862379,151.209649 181.175947,151.927832 C180.489515,152.646015 179.713427,153.291541 179.167084,154.118709 C178.494661,155.144286 178.19207,156.415777 177.317921,157.282068 C176.982368,157.597098 176.605329,157.865041 176.197216,158.078496 C175.740031,158.347536 175.256569,158.569445 174.754308,158.740789 C173.448687,159.157168 172.042203,159.062155 170.677744,158.961554 C170.234754,158.957307 169.7962,158.873043 169.38333,158.712845 C169.195377,158.61761 169.015475,158.507332 168.845392,158.383095 C168.503363,158.173023 168.215482,157.88589 168.004863,157.544749 C168.267498,157.418803 168.554055,157.350208 168.845392,157.343546 C169.450573,157.37708 169.893251,157.947155 170.473216,158.123208 C171.299736,158.371917 172.123454,157.790664 172.961181,157.592256 C173.507524,157.463709 174.081885,157.497243 174.622626,157.312807 C175.073256,157.139105 175.489628,156.88747 175.852599,156.569474 C176.3501,156.214698 176.792809,155.789144 177.166626,155.306366 C177.477071,154.823559 177.735342,154.309296 177.93711,153.772193 C178.379514,152.742874 178.900296,151.748857 179.49489,150.79886 C179.582837,150.648449 179.689185,150.509522 179.811489,150.385276 C179.943172,150.265113 180.091665,150.181278 180.240159,150.075088 C180.800511,149.65312 181.033057,148.957293 181.229181,148.275439 C181.282311,148.068189 181.356474,147.866878 181.45052,147.674624 C181.805205,147.671511 182.138992,147.841624 182.344282,148.130125 C182.585351,148.49913 182.680222,148.944365 182.610449,149.379261 Z" id="Path" fill="#464353"></path>
                <path d="M123.8603,62.2527694 C124.557677,62.7739888 125.131586,63.4418106 125.541357,64.2089098 C125.933604,64.974599 128.194626,70.9156767 128.062943,71.7791729 C128.799806,71.0386341 131.705233,70.9184712 132.450502,70.1779323 C132.761498,69.8677444 134.439753,68.319599 134.691912,67.9591103 C134.94407,67.5986216 136.815648,66.8413158 137.020176,66.4612657 C137.785057,65.0947619 131.595965,59.9165789 132.388863,58.5668421 C132.432732,58.5048259 132.455335,58.4303317 132.453304,58.3544612 C132.435249,58.2907543 132.399275,58.2335392 132.349639,58.1895865 C131.84252,57.6726065 131.170097,57.3512406 130.559313,56.968396 C129.948529,56.5855514 129.360159,56.0518045 129.194855,55.347594 C128.612395,55.6150145 128.07768,55.9756001 127.611859,56.4150877 C126.476211,57.3857059 125.360176,58.3758855 124.263753,59.3856266 C123.835084,59.7824436 123.005762,60.3106015 122.806837,60.8778822 C122.571489,61.4870802 123.451242,61.9202256 123.8603,62.2527694 Z" id="Path" fill="#A1616A"></path>
                <path d="M133.879401,60.0535088 C132.929837,60.6899564 132.042435,61.4141269 131.228934,62.2164411 C130.461251,62.9737469 129.732793,63.8512155 129.547877,64.9103258 C129.469427,65.3267043 129.480634,65.7486717 129.416194,66.1706391 C129.136018,68.0010276 127.55022,69.342381 126.84978,71.055401 C126.646886,71.584108 126.497646,72.1317713 126.4043,72.6901754 C126.207488,73.748713 126.099712,74.8218038 126.082097,75.8982456 C126.065286,76.940589 127.090731,77.6587719 127.466167,78.6312531 C127.841604,79.6037343 127.942467,80.6041604 128.132987,81.601792 C128.491612,83.4852757 129.150026,85.3016917 129.814044,87.1069298 C131.195313,90.9130201 135.672529,101.434261 137.053797,105.243145 C141.28726,104.184035 152.555947,101.750038 156.304705,99.5172431 C157.554291,98.7739098 147.633251,90.3876566 148.969692,89.809198 C149.124579,89.7851548 149.25912,89.6898779 149.332942,89.5519572 C149.406765,89.4140365 149.411278,89.2495227 149.345128,89.107782 C148.008687,83.2784837 143.828458,78.4887343 141.931665,72.8131328 C141.273251,70.8430201 140.090907,69.1607393 139.194344,67.2884336 C138.381833,65.5921805 137.947559,63.7170802 136.975348,62.1046617 C136.792032,61.7724625 136.552174,61.4746014 136.266502,61.2243985 C136.024027,61.0389542 135.761897,60.8805852 135.484811,60.7521303 C134.930062,60.4838596 134.414537,60.3245739 133.879401,60.0535088 Z" id="Path" fill="#514E7F"></path>
                <ellipse id="Oval" fill="#A1616A" cx="124.084441" cy="54.9815163" rx="6.6261674" ry="6.6089599"></ellipse>
                <path d="M130.82548,58.0861905 C131.501497,57.4642927 132.491785,57.3220793 133.316247,57.7284962 C133.764529,57.9604386 134.156775,58.4299123 134.055912,58.9217419 L137.342379,58.9720426 C137.865468,58.9577692 138.388402,59.0056116 138.900159,59.1145614 C139.415202,59.2264053 139.874971,59.514003 140.200176,59.9277569 C140.239401,59.9808521 140.284229,60.0451253 140.351471,60.0535088 C140.406166,60.0543568 140.459521,60.0366178 140.502767,60.003208 C141.008333,59.7503088 141.57787,59.6530386 142.138996,59.7237594 C143.915313,59.8383333 145.557145,60.7241855 146.949621,61.830802 C147.200726,62.0029734 147.395579,62.2449358 147.509974,62.5266291 C147.624846,62.8982957 147.487559,63.3649749 147.79015,63.6304511 C147.79015,66.704386 148.849216,69.5771178 149.55526,72.572807 C149.681339,73.1065539 150.194062,73.5788221 150.549885,73.997995 C150.989512,74.4626974 151.348388,74.9972516 151.611753,75.5796742 C152.21133,77.1334085 151.384811,78.9610025 151.967577,80.5203258 C152.214132,81.1798246 152.690432,81.7219549 153.088282,82.2948246 C153.612736,82.9563132 153.944274,83.7491652 154.046485,84.5863033 C154.0717,84.9607644 154.02407,85.3380201 154.046485,85.7040977 C154.08407,86.2075997 154.178048,86.7053228 154.326661,87.1879699 C154.565744,88.0896575 154.816035,88.9904135 155.077533,89.8902381 C155.503401,91.3433709 156.05815,92.9110777 157.363771,93.6851504 C154.211789,94.2188972 150.888899,94.7414662 147.88541,93.6488221 C147.466469,93.5062838 147.068758,93.3079443 146.703066,93.0591855 C145.618784,92.2879073 145.094855,90.9689098 144.62696,89.7225689 C144.105833,88.3253258 143.5763,86.9029323 143.469833,85.4162657 C143.470863,84.9434259 143.403872,84.4728845 143.270907,84.0190226 C142.965515,83.2086216 142.150203,82.7195865 141.410537,82.2696742 C140.575265,81.8131831 139.818572,81.2263815 139.169128,80.5315038 C138.517755,79.8240849 138.189136,78.8792317 138.261357,77.9214536 C138.317392,77.4603634 138.499507,77.0160401 138.516317,76.5521554 C138.533128,76.0882707 138.325797,75.5573183 137.880317,75.4343609 C135.585674,74.7413283 134.490185,72.0306767 133.980264,69.6944862 C133.760226,68.4870427 133.661675,67.2606946 133.686079,66.0337093 L133.65526,63.6500125 C133.015323,63.0693182 132.642563,62.2519819 132.624211,61.3892732 C132.654642,61.1402055 132.649927,60.8881131 132.610203,60.6403509 C132.499361,60.337506 132.31897,60.0647511 132.083471,59.8439223 C131.576842,59.3253278 131.152618,58.7325794 130.82548,58.0861905 Z" id="Path" fill="#464353"></path>
                <path d="M123.767841,65.6424812 C123.692194,66.3802256 123.8603,67.1375313 123.694996,67.8613033 C123.630555,68.1407519 123.518485,68.4202005 123.437233,68.6800877 C123.188834,69.7218279 123.296316,70.8164693 123.742626,71.7903509 C124.188336,72.7546604 124.721982,73.6760605 125.336828,74.5429198 C125.544786,74.8388395 125.716009,75.1588137 125.846749,75.4958396 C125.952723,75.8497246 126.01851,76.214362 126.042872,76.5828947 C126.205129,78.0627297 126.465327,79.5302425 126.821762,80.9758271 C127.135559,82.2277569 130.699401,92.9306391 131.528722,93.9226817 C131.679191,94.1423267 131.907399,94.2970649 132.167524,94.3558271 C132.355095,94.3628724 132.541587,94.3245202 132.711066,94.2440476 L134.392123,93.6013158 C134.535077,93.5576958 134.667598,93.4854265 134.781568,93.3889348 C134.939108,93.2053422 135.024697,92.9710795 135.02252,92.7294361 C135.142996,91.3657268 131.570749,80.5873935 131.116863,79.2991353 C129.744,75.4092105 127.917251,71.65901 127.023489,67.6321554 C126.774132,66.5143609 126.642449,64.7929574 125.821533,63.9015163 C125.48252,63.5326441 125.597392,63.6891353 125.191137,63.8819549 C124.985845,63.9708042 124.787327,64.0744754 124.597163,64.1921429 C124.115548,64.5260805 123.810807,65.0590191 123.767841,65.6424812 Z" id="Path" fill="#464353"></path>
                <g id="Group" transform="translate(0.151295, 0.215175)"></g>
                <path d="M128.86985,73.0227193 C129.320934,75.4008271 129.786026,77.7733459 130.248317,80.1514536 L136.826855,78.4328446 C136.880088,77.745401 136.513057,77.1082581 136.266502,76.4767043 C135.666925,74.9760652 135.652916,73.3049624 135.168211,71.762406 C134.801181,70.5887218 134.162379,69.5100501 133.817762,68.3279825 C133.618837,67.6405388 133.517974,66.9307393 133.32185,66.2349123 C133.111506,65.5515884 132.853103,64.8839126 132.548564,64.2368546 C132.179291,63.2984378 131.697629,62.4079887 131.114062,61.5848872 C130.273533,61.8978697 129.376969,62.2611529 128.897868,63.0184586 C128.652132,63.4451679 128.511905,63.9241502 128.488811,64.4157018 C128.373938,65.888396 128.909075,67.3694737 128.732564,68.8337845 C128.550769,70.2283067 128.597134,71.6430157 128.86985,73.0227193 Z" id="Path" fill="#3F51B5"></path>
                <path d="M136.936123,104.656303 C137.305956,106.053546 136.770819,107.523446 136.333744,108.906717 C135.675697,110.990274 135.227074,113.133952 134.994502,115.30609 C134.965978,115.858873 134.854537,116.404269 134.663894,116.924098 C134.456564,117.390777 134.103542,117.784799 133.86259,118.229123 C133.201374,119.397218 133.218185,120.822406 133.361075,122.15817 C133.456335,123.038434 133.599225,123.915902 133.775736,124.782193 C133.991471,125.841303 134.257639,126.94792 133.946643,127.98188 C134.467771,127.867306 134.820793,128.540777 134.787172,129.068935 C134.753551,129.597093 134.582643,130.186729 134.837604,130.642231 C135.482009,130.876967 135.487612,131.760025 135.468,132.444674 C135.478686,133.631817 135.629144,134.813598 135.916282,135.965727 C136.891295,140.641834 137.926079,145.3049 139.020634,149.954925 C141.388123,150.68708 144.153463,151.449975 146.411683,150.435576 C146.831947,150.248346 147.252211,149.949336 147.347471,149.496629 C147.372086,149.252639 147.341446,149.006251 147.257815,148.775652 L146.187542,144.891316 C145.926978,143.952368 145.666414,142.982682 145.8037,142.018584 C145.907366,141.300401 146.221163,140.526328 145.868141,139.89198 C145.747665,139.67401 145.557145,139.503546 145.417057,139.296754 C144.856705,138.47797 145.15089,137.382531 145.195718,136.390489 C145.213197,136.167798 145.198096,135.943755 145.15089,135.725401 C145.074132,135.470385 144.966895,135.225506 144.831489,134.99604 C143.946974,133.283302 143.52226,131.371279 143.598714,129.44619 C143.632186,129.200527 143.598298,128.950409 143.500652,128.722419 C143.432676,128.628314 143.371804,128.529303 143.318537,128.426203 C143.276767,128.246788 143.297519,128.058533 143.377374,127.892456 C143.056271,127.649448 142.766437,127.367875 142.514432,127.05411 C142.829303,126.858891 143.036814,126.530227 143.077276,126.162652 C143.117738,125.795076 142.986666,125.429335 142.721762,125.170627 C142.95477,125.123828 143.141579,124.950291 143.204919,124.721797 C143.268259,124.493302 143.197361,124.248698 143.021551,124.08916 C142.884264,123.994148 142.70215,123.952231 142.604088,123.809712 C142.452793,123.60292 142.57607,123.315088 142.699348,123.094323 L143.352159,121.917845 C143.839665,121.04317 143.948934,119.961704 144.472863,119.123358 C145.223736,117.902168 145.714044,116.541253 146.198749,115.194311 L148.084335,110.00495 L149.353533,111.103183 C149.776275,111.425311 150.130565,111.828077 150.395789,112.288045 C150.576252,112.742647 150.690419,113.220713 150.734802,113.707644 C151.199894,116.524486 152.976211,118.966867 153.634626,121.741792 C153.780317,122.359373 153.878379,123.007694 154.234203,123.535852 C154.361534,123.698006 154.475827,123.869935 154.576018,124.050038 C154.668757,124.324765 154.716992,124.612481 154.718907,124.902356 C154.837808,126.050839 155.451305,127.091075 156.399965,127.752732 C157.024758,128.180288 157.800846,128.473709 158.139859,129.149975 C158.207663,129.359393 158.301806,129.559395 158.420035,129.745201 C158.722626,130.108484 159.375436,130.150401 159.504317,130.605902 C159.577163,130.860201 159.442678,131.164799 159.585568,131.388358 C159.666768,131.491821 159.774104,131.571874 159.896564,131.620301 L161.720511,132.528509 C163.760194,133.545702 164.802449,135.881892 166.306996,137.583734 C166.826573,138.138028 167.28669,138.744929 167.679859,139.394561 C168.329868,140.554273 168.629656,142.010201 169.727947,142.747945 C170.023185,142.90063 170.291856,143.099722 170.523648,143.337581 C170.868264,143.790288 170.742185,144.424637 170.773004,144.994712 C170.803824,145.564787 171.240899,146.243847 171.784441,146.070589 C171.593973,146.761039 171.593973,147.489976 171.784441,148.180426 C174.170691,148.058169 176.446342,147.138854 178.245304,145.570376 C178.777639,145.106491 179.290361,144.51406 179.295965,143.80985 C179.304139,143.688303 179.276895,143.566993 179.217515,143.460539 C179.109797,143.322989 178.967784,143.216033 178.805656,143.150351 C177.099383,142.22817 176.586661,140.090388 175.723718,138.355013 C174.970044,136.823634 173.854943,135.504637 172.921956,134.082243 C170.89348,131.022281 169.50941,127.319586 166.44148,125.299173 C165.766256,124.85485 164.981762,124.460827 164.642749,123.725877 C164.455031,123.315088 164.432617,122.845614 164.284123,122.420852 C164.13563,121.99609 163.779806,121.582506 163.325921,121.582506 C163.578079,120.967719 163.527648,120.218797 163.544458,119.553709 C163.561682,119.258531 163.527557,118.962606 163.443595,118.679035 C163.327043,118.373972 163.175686,118.083297 162.992511,117.812744 C162.192059,116.461009 161.791838,114.910787 161.838185,113.341566 C161.860599,112.53396 162.003489,111.701203 161.759736,110.929925 C161.636458,110.541491 161.420722,110.186591 161.272229,109.81213 C161.048469,109.133621 160.930356,108.424899 160.922009,107.710677 L160.753903,105.025175 C160.728519,104.130805 160.612115,103.241319 160.406485,102.370414 C159.846132,100.285727 159.28578,91.5529574 157.366573,90.5692982 C155.447366,89.5856391 152.149692,96.3063784 149.989533,96.4377193 C149.033902,96.4773917 148.089568,96.6591749 147.187771,96.9770551 C145.750467,97.5135965 144.545709,98.5140226 143.371771,99.4920927 L139.398872,102.820326 C138.558344,103.510564 137.863507,104.170063 136.936123,104.656303 Z" id="Path" fill="#464353"></path>
                <path d="M117.86733,47.6431955 C118.74148,46.4527444 120.243225,45.8211905 121.722555,45.7680952 C123.201885,45.715 124.658802,46.1788847 125.984035,46.835589 C126.375199,47.0574514 126.793268,47.2283771 127.228018,47.3441855 C127.928458,47.4867043 128.707348,47.2966792 129.340546,47.6236341 C130.181075,48.0679574 130.343577,49.1997243 130.270731,50.1386717 C130.197885,51.077619 130.021374,52.1199624 130.52289,52.9331579 C130.700798,53.1650736 130.862738,53.4087526 131.007595,53.6625188 C131.22333,54.1459649 131.097251,54.7048622 130.96837,55.2162531 C130.640564,54.9368045 130.455648,54.5148371 130.164264,54.1906767 C129.872881,53.8665163 129.365762,53.6485464 129.004335,53.8916667 C128.642907,54.134787 128.648511,54.5763158 128.628899,54.9731328 C128.609286,55.3699499 128.508423,55.8450125 128.132987,55.9735589 C127.81213,56.0463749 127.47917,55.9168576 127.292458,55.646604 C126.650855,54.8641479 126.908617,53.6150125 126.272617,52.8269674 C125.911189,52.3798496 125.308811,52.1618797 124.975401,51.692406 C124.712035,51.3235338 124.644793,50.8540602 124.415048,50.4572431 C124.185304,50.0604261 123.650167,49.7697995 123.294344,50.0436591 C123.172907,50.1593775 123.071598,50.2944211 122.994555,50.4432707 C122.537755,51.0958257 121.691512,51.3501958 120.949269,51.0580576 C120.673769,50.8893598 120.375685,50.7604628 120.063912,50.675213 C119.647619,50.6544241 119.255565,50.8710644 119.052476,51.2341103 C118.851392,51.5896774 118.754324,51.994368 118.7723,52.4022055 C118.7723,52.9611028 118.873163,53.5563283 118.553762,54.0034461 C118.432299,54.1717635 118.280239,54.3158454 118.10548,54.428208 C117.637586,54.727218 116.984775,54.9284211 116.553304,54.5874937 C116.255879,54.3112124 116.12423,53.9003494 116.205885,53.5032331 C116.289892,53.1142793 116.40035,52.7314811 116.536493,52.3574937 C116.783048,51.491203 116.460846,50.5159273 116.729815,49.6999373 C117.011539,48.9650669 117.39438,48.2728536 117.86733,47.6431955 Z" id="Path" fill="#464353"></path>
                <path d="M121.417163,67.3582957 C121.375081,67.5619625 121.396593,67.7736007 121.478802,67.9646992 C121.562066,68.0948417 121.675448,68.2031371 121.80941,68.2804762 C122.751598,68.8659044 123.823203,69.2122642 124.930573,69.2892857 C125.081251,69.2918769 125.229148,69.330192 125.362044,69.4010652 C125.62541,69.5743233 125.64222,69.9599624 125.544159,70.2673559 C125.413415,70.5573261 125.345624,70.8715934 125.345233,71.1895363 C125.426485,71.773584 126.121322,72.0278822 126.70689,72.1145113 C127.527806,72.2179073 128.427172,72.164812 129.077181,71.6534211 C129.517499,71.2528672 129.853149,70.7511791 130.054996,70.1919048 C131.663207,66.5059774 132.226361,62.4316165 133.854185,58.7568672 C133.977542,58.5169251 134.059923,58.2581469 134.097938,57.9911779 C134.132957,57.7190261 134.017088,57.4493656 133.795348,57.2869674 C133.492758,57.0997368 133.022062,57.2059273 132.817533,56.9125063 C132.71667,56.7643985 132.727877,56.5631955 132.63822,56.4067043 C132.450502,56.0741604 131.957392,56.1272556 131.621181,55.9344361 C131.357815,55.7947118 131.1757,55.5068797 130.881515,55.45099 C130.588692,55.4344881 130.305216,55.556698 130.116634,55.7807393 C129.161233,56.669386 128.659718,57.9296992 128.127383,59.1201504 C127.314526,60.9449275 126.362886,62.7050012 125.280793,64.3849624 C125.406872,64.1893484 124.675612,62.7082707 124.389833,62.6439975 C123.888317,62.543396 123.246714,63.4208647 122.974943,63.7478195 C122.122105,64.779126 121.581726,66.0315658 121.417163,67.3582957 Z" id="Path" fill="#3F51B5"></path>
                <path d="M131.595965,56.1943233 C131.188309,56.2011038 130.805848,56.3923516 130.556511,56.7140977 C130.256722,57.1025313 130.197885,57.6167168 130.122238,58.1113409 C129.867215,59.6783998 129.306556,61.1803669 128.472,62.532218" id="Path" fill="#000000" opacity="0.1"></path>
                <path d="M133.024863,57.3093233 C132.459672,57.3218794 131.943089,57.6310246 131.666009,58.1225188 C131.480537,58.5620655 131.365203,59.0278639 131.324194,59.502995 C131.083975,60.5563814 130.620662,61.5463446 129.965339,62.4064662" id="Path" fill="#000000" opacity="0.1"></path>
                <path d="M199.611542,111.941529 L199.611542,108.470777 C199.609995,103.15039 195.285306,98.8381827 189.951066,98.838183 L52.5274361,98.838183 C47.1931966,98.8381827 42.8685074,103.15039 42.8669604,108.470777 L42.8669604,114.87015 L199.611542,111.941529 Z" id="Path" fill="#B6B6B6"></path>
                <path d="M90.7574802,94.769411 C90.7574802,94.769411 90.3652335,119.042318 94.6799471,127.02896 C98.9946608,135.015602 100.843824,169.759449 100.843824,169.759449 C100.843824,169.759449 146.075471,174.426241 177.595295,164.170476 C209.115119,153.914712 276.1837,149.720188 276.1837,149.720188 L264.881392,73.7409023 C264.881392,73.7409023 209.045075,70.1695489 177.281498,85.2793358 C145.517921,100.389123 90.7574802,94.769411 90.7574802,94.769411 Z" id="Path" fill="#8DD070"></path>
                <path d="M90.7574802,94.769411 C90.7574802,94.769411 90.3652335,119.042318 94.6799471,127.02896 C98.9946608,135.015602 100.843824,169.759449 100.843824,169.759449 C100.843824,169.759449 146.075471,174.426241 177.595295,164.170476 C209.115119,153.914712 276.1837,149.720188 276.1837,149.720188 L264.881392,73.7409023 C264.881392,73.7409023 209.045075,70.1695489 177.281498,85.2793358 C145.517921,100.389123 90.7574802,94.769411 90.7574802,94.769411 Z" id="Path" fill="#000000" opacity="0.1"></path>
                <path d="M100.768176,103.636316 C100.768176,103.636316 99.3532863,123.664398 102.903119,130.063772 C106.452952,136.463145 106.618256,165.031178 106.618256,165.031178 C106.618256,165.031178 147.325057,166.914662 176.281269,157.083659 C205.23748,147.252657 266.08615,140.875639 266.08615,140.875639 L259.171401,78.7402381 C259.171401,78.7402381 208.823736,78.2232581 179.438855,92.0615539 C150.053974,105.89985 100.768176,103.636316 100.768176,103.636316 Z" id="Path" fill="#8DD070"></path>
                <ellipse id="Oval" fill="#000000" opacity="0.1" transform="translate(176.190160, 123.273149) rotate(-7.100000) translate(-176.190160, -123.273149) " cx="176.19016" cy="123.273149" rx="10.5678299" ry="22.6082927"></ellipse>
                <path d="M234.269339,36.7279323 C234.269339,36.7279323 180.024423,50.4209148 154.444335,74.5233584 C128.864247,98.625802 75.0143789,110.038484 75.0143789,110.038484 C75.0143789,110.038484 82.1084405,133.25787 88.6701674,139.539875 C95.2318943,145.82188 107.677322,178.327343 107.677322,178.327343 C107.677322,178.327343 152.160899,168.921103 179.00178,149.505013 C205.842661,130.088922 268.397604,105.567306 268.397604,105.567306 L234.269339,36.7279323 Z" id="Path" fill="#000000" opacity="0.2"></path>
                <path d="M74.1990661,106.562143 C74.1990661,106.562143 81.290326,129.784323 87.8464493,136.066328 C94.4025727,142.348333 106.853604,174.851003 106.853604,174.851003 C106.853604,174.851003 151.342784,165.447556 178.186467,146.031466 C205.03015,126.615376 267.579489,102.102143 267.579489,102.102143 L233.451225,33.254386 C233.451225,33.254386 179.20911,46.9473684 153.629022,71.049812 C128.048934,95.1522556 74.1990661,106.562143 74.1990661,106.562143 Z" id="Path" fill="#8DD070"></path>
                <path d="M74.1990661,106.562143 C74.1990661,106.562143 81.290326,129.784323 87.8464493,136.066328 C94.4025727,142.348333 106.853604,174.851003 106.853604,174.851003 C106.853604,174.851003 151.342784,165.447556 178.186467,146.031466 C205.03015,126.615376 267.579489,102.102143 267.579489,102.102143 L233.451225,33.254386 C233.451225,33.254386 179.20911,46.9473684 153.629022,71.049812 C128.048934,95.1522556 74.1990661,106.562143 74.1990661,106.562143 Z" id="Path" fill="#000000" opacity="0.1"></path>
                <path d="M86.4455683,111.938734 C86.4455683,111.938734 91.2617974,131.435865 96.6103612,136.437995 C101.958925,141.440125 110.899348,168.574586 110.899348,168.574586 C110.899348,168.574586 150.219278,157.905238 174.754308,139.685188 C199.289339,121.465138 255.246132,96.798208 255.246132,96.798208 L229.551172,39.7571554 C229.551172,39.7571554 181.475736,54.6713283 157.764423,76.837193 C134.05311,99.0030576 86.4455683,111.938734 86.4455683,111.938734 Z" id="Path" fill="#8DD070"></path>
                <ellipse id="Oval" fill="#000000" opacity="0.1" transform="translate(164.278831, 107.543064) rotate(-24.970000) translate(-164.278831, -107.543064) " cx="164.278831" cy="107.543064" rx="10.5633804" ry="22.6178855"></ellipse>
                <path d="M203.321075,115.348008 L203.321075,211.757782 C203.321075,213.969098 202.440154,216.089804 200.872184,217.653179 C199.304213,219.216553 197.17769,220.094476 194.960617,220.093734 L51.2302203,220.093734 C46.6155083,220.092191 42.8753654,216.36051 42.8753656,211.757782 L42.8753656,105.628784 C46.9939559,107.154574 46.9939559,107.154574 51.2302203,107.026028 L194.960617,107.026028 C199.571413,107.026018 203.311804,110.749194 203.321075,115.348008 Z" id="Path" fill="#000000" opacity="0.1"></path>
                <path d="M203.321075,116.574787 L203.321075,212.984561 C203.319528,217.588833 199.576876,221.320514 194.960617,221.320514 L51.2302203,221.320514 C46.6155083,221.318971 42.8753654,217.58729 42.8753656,212.984561 L42.8753656,106.852769 C46.9939559,108.375764 46.9939559,108.375764 51.2302203,108.250013 L194.960617,108.250013 C199.572505,108.250006 203.313347,111.974882 203.321075,116.574787 Z" id="Path" fill="#EAEAEA"></path>
                <path d="M202.912018,152.218459 L202.912018,183.050025 L172.933163,183.050025 C164.478244,182.936483 157.683942,176.067968 157.683942,167.634242 C157.683942,159.200515 164.478244,152.332001 172.933163,152.218459 L202.912018,152.218459 Z" id="Path" fill="#000000" opacity="0.1"></path>
                <path d="M203.321075,151.39688 L203.321075,182.234035 L173.34222,182.234035 C164.887301,182.120493 158.092999,175.251978 158.092999,166.818252 C158.092999,158.384525 164.887301,151.516011 173.34222,151.402469 L203.321075,151.39688 Z" id="Path" fill="#CECECE"></path>
                <ellipse id="Oval" fill="#000000" opacity="0.1" cx="174.779524" cy="167.635639" rx="6.02659031" ry="6.01093985"></ellipse>
                <ellipse id="Oval" fill="#3F51B5" cx="175.188581" cy="166.819649" rx="6.02659031" ry="6.01093985"></ellipse>
                <path d="M255.358203,151.131404 C255.596352,153.705125 253.643524,156.203396 254.212282,158.724023 C254.335559,159.263358 254.568106,159.771955 254.652159,160.31688 C254.887507,161.814724 253.993744,163.231529 253.139207,164.483459 L245.79859,175.225464 C245.5046,175.697679 245.152585,176.131392 244.750731,176.516516 C243.34985,177.762857 241.242925,177.634311 239.399366,178.005977 C238.103348,178.268372 236.879806,178.808002 235.81311,179.587657 C235.720468,179.666587 235.705715,179.803925 235.779489,179.900639 C236.398493,180.741437 237.402768,181.211758 238.446767,181.149774 C238.640088,181.404073 238.446767,181.775739 238.16659,181.957381 C237.771542,182.23683 237.230802,182.303897 237.152352,182.968985 C237.124463,183.201122 237.171577,183.43608 237.286837,183.639662 C237.582597,184.091431 238.042653,184.411031 238.570044,184.531103 C241.111242,185.305175 243.856969,183.944261 245.759366,182.091516 C247.661762,180.238772 249.02622,177.899787 250.892194,176.013509 C251.926044,174.971165 253.099982,174.07693 254.164652,173.065326 C256.288388,171.047707 257.938626,168.594148 259.532828,166.137794 C260.01193,165.397256 260.493833,164.637155 260.695559,163.779248 C260.897286,162.921341 260.802026,162.05505 261.028969,161.225088 C261.325956,160.135238 262.124458,159.268947 262.788476,158.35515 C264.091295,156.566679 264.959841,154.378596 264.788934,152.176541 C264.618026,149.974486 263.247965,147.797581 261.163454,147.048659 C260.517458,146.789881 259.804807,146.746742 259.132176,146.925702 C258.277639,147.188383 257.647242,147.892594 257.064476,148.566065 L255.663595,150.172895 C255.314292,150.525446 255.03818,150.943286 254.851084,151.402469 C254.667792,151.873364 254.777338,152.407652 255.13126,152.768972" id="Path" fill="#FBBEBE"></path>
                <path d="M255.358203,151.131404 C255.596352,153.705125 253.643524,156.203396 254.212282,158.724023 C254.335559,159.263358 254.568106,159.771955 254.652159,160.31688 C254.887507,161.814724 253.993744,163.231529 253.139207,164.483459 L245.79859,175.225464 C245.5046,175.697679 245.152585,176.131392 244.750731,176.516516 C243.34985,177.762857 241.242925,177.634311 239.399366,178.005977 C238.103348,178.268372 236.879806,178.808002 235.81311,179.587657 C235.720468,179.666587 235.705715,179.803925 235.779489,179.900639 C236.398493,180.741437 237.402768,181.211758 238.446767,181.149774 C238.640088,181.404073 238.446767,181.775739 238.16659,181.957381 C237.771542,182.23683 237.230802,182.303897 237.152352,182.968985 C237.124463,183.201122 237.171577,183.43608 237.286837,183.639662 C237.582597,184.091431 238.042653,184.411031 238.570044,184.531103 C241.111242,185.305175 243.856969,183.944261 245.759366,182.091516 C247.661762,180.238772 249.02622,177.899787 250.892194,176.013509 C251.926044,174.971165 253.099982,174.07693 254.164652,173.065326 C256.288388,171.047707 257.938626,168.594148 259.532828,166.137794 C260.01193,165.397256 260.493833,164.637155 260.695559,163.779248 C260.897286,162.921341 260.802026,162.05505 261.028969,161.225088 C261.325956,160.135238 262.124458,159.268947 262.788476,158.35515 C264.091295,156.566679 264.959841,154.378596 264.788934,152.176541 C264.618026,149.974486 263.247965,147.797581 261.163454,147.048659 C260.517458,146.789881 259.804807,146.746742 259.132176,146.925702 C258.277639,147.188383 257.647242,147.892594 257.064476,148.566065 L255.663595,150.172895 C255.314292,150.525446 255.03818,150.943286 254.851084,151.402469 C254.667792,151.873364 254.777338,152.407652 255.13126,152.768972" id="Path" fill="#000000" opacity="0.05"></path>
                <path d="M260.914097,217.388672 C259.311489,218.363947 257.313833,218.422632 255.450661,218.196278 C255.150872,218.15995 254.795048,218.137594 254.610132,218.369536 C254.329956,218.704875 254.660564,219.207882 255.002379,219.467769 C256.101334,220.290761 257.392519,220.820705 258.753938,221.007531 C259.969617,221.179436 261.196453,221.260701 262.424247,221.250652 C265.786361,221.309336 269.148476,221.365226 272.457357,220.884574 C272.653373,220.869801 272.844181,220.81461 273.017709,220.722494 C273.231026,220.573089 273.379293,220.348268 273.43237,220.093734 C273.659313,219.233033 273.222238,218.310852 272.561022,217.712832 C271.899806,217.114812 271.050872,216.782268 270.221551,216.460902 L267.307718,215.329135 C266.624088,215.063659 265.528599,214.359449 264.786132,214.415338 C263.390855,214.51594 262.071225,216.712406 260.914097,217.388672 Z" id="Path" fill="#3F3D56"></path>
                <path d="M260.914097,217.388672 C259.311489,218.363947 257.313833,218.422632 255.450661,218.196278 C255.150872,218.15995 254.795048,218.137594 254.610132,218.369536 C254.329956,218.704875 254.660564,219.207882 255.002379,219.467769 C256.101334,220.290761 257.392519,220.820705 258.753938,221.007531 C259.969617,221.179436 261.196453,221.260701 262.424247,221.250652 C265.786361,221.309336 269.148476,221.365226 272.457357,220.884574 C272.653373,220.869801 272.844181,220.81461 273.017709,220.722494 C273.231026,220.573089 273.379293,220.348268 273.43237,220.093734 C273.659313,219.233033 273.222238,218.310852 272.561022,217.712832 C271.899806,217.114812 271.050872,216.782268 270.221551,216.460902 L267.307718,215.329135 C266.624088,215.063659 265.528599,214.359449 264.786132,214.415338 C263.390855,214.51594 262.071225,216.712406 260.914097,217.388672 Z" id="Path" fill="#000000" opacity="0.05"></path>
                <path d="M262.956581,178.807995 C261.743419,180.417619 260.488229,182.275952 260.788018,184.268421 C260.95052,185.341504 261.552899,186.288835 261.995577,187.280877 C262.595154,188.62782 262.908952,190.075363 263.217145,191.517318 C263.671031,193.624361 264.127718,195.736992 264.405093,197.877569 C264.721692,200.294799 263.233956,207.289398 263.09667,209.723396 C263.063048,210.310238 262.993004,210.944586 262.583947,211.366554 C262.424247,211.534223 262.211313,211.668358 262.138467,211.886328 C262.095765,212.096347 262.130591,212.314682 262.236529,212.501115 C262.920159,214.038083 264.318238,215.183822 265.878819,215.837732 C267.439401,216.491642 271.202167,217.620614 272.902837,217.679298 C273.12702,217.703932 273.353853,217.674214 273.564053,217.592669 C273.7903,217.45504 273.968394,217.251057 274.073974,217.008622 C275.29274,214.683609 274.121604,206.417519 274.138414,203.793496 C274.155225,201.605414 274.673551,199.431303 274.578291,197.246015 C274.499841,195.491078 274.017938,193.775263 273.858238,192.025915 C273.578062,189.158772 274.104793,186.277657 274.634326,183.444048 C275.03778,181.269937 275.444035,179.095827 275.962361,176.949662 C276.27896,175.639048 276.645991,174.317256 277.363242,173.1799 C277.923595,172.277281 278.71089,171.522769 279.3637,170.664862 C281.175603,168.295436 281.980668,165.310381 281.60511,162.35406 C281.565885,162.074612 277.402467,163.407581 277.035436,163.566867 C275.537849,164.199331 274.159991,165.083067 272.961674,166.179712 C271.997868,167.096303 271.23859,168.320288 270.39526,169.345865 C269.201709,170.797135 268.023101,172.258651 266.859436,173.730414 C265.531401,175.412694 264.230449,177.105221 262.956581,178.807995 Z" id="Path" fill="#464353"></path>
                <path d="M262.956581,178.710188 C261.743419,180.319812 260.488229,182.18094 260.788018,184.170614 C260.95052,185.246491 261.552899,186.193822 261.995577,187.185865 C262.595154,188.530013 262.908952,189.980351 263.217145,191.419511 C263.671031,193.529348 264.127718,195.64198 264.405093,197.779762 C264.721692,200.199787 263.233956,207.191591 263.09667,209.625589 C263.063048,210.212431 262.993004,210.849574 262.583947,211.271541 C262.424247,211.436416 262.211313,211.570551 262.138467,211.788521 C262.095508,211.998534 262.130348,212.21696 262.236529,212.403308 C262.920159,213.94307 264.318238,215.086015 265.878819,215.756692 C267.439401,216.427368 271.202167,217.011416 272.902837,217.067306 C273.12702,217.09194 273.353853,217.062221 273.564053,216.980677 C273.790705,216.844781 273.969017,216.641525 274.073974,216.399424 C275.29274,214.074411 274.121604,206.339273 274.138414,203.712456 C274.155225,201.521579 274.673551,199.350263 274.578291,197.16218 C274.499841,195.407243 274.017938,193.691429 273.858238,191.944875 C273.578062,189.074937 274.104793,186.193822 274.634326,183.360213 C275.03778,181.188897 275.444035,179.014787 275.962361,176.865827 C276.27896,175.555213 276.645991,174.233421 277.363242,173.096065 C277.923595,172.193446 278.71089,171.438935 279.3637,170.581028 C281.176155,168.211872 281.981281,165.226588 281.60511,162.270226 C281.565885,161.990777 277.402467,163.323747 277.035436,163.483033 C275.538267,164.117512 274.160586,165.002079 272.961674,166.098672 C271.997868,167.012469 271.23859,168.236454 270.39526,169.26203 C269.201709,170.7133 268.023101,172.175748 266.859436,173.649373 C265.531401,175.318613 264.230449,177.005551 262.956581,178.710188 Z" id="Path" fill="#000000" opacity="0.05"></path>
                <ellipse id="Oval" fill="#FBBEBE" cx="249.457692" cy="136.574925" rx="6.79987665" ry="6.78221805"></ellipse>
                <path d="M255.582344,136.289887 C256.851718,138.309366 258.889484,139.727559 261.227894,140.218935 L260.715172,142.077268 C259.829815,145.268571 258.835189,148.644311 256.364035,150.857544 C256.644211,149.776078 256.285586,148.621955 255.674802,147.683008 C255.064018,146.74406 254.206678,146.006316 253.36615,145.276955 L249.452088,141.895627 C249.33908,141.803912 249.244085,141.692109 249.171912,141.565877 C249.075323,141.327464 249.075323,141.060957 249.171912,140.822544 C249.670626,139.274398 251.093921,138.307506 252.25385,137.262368 C252.835905,136.72192 253.355587,136.118292 253.803225,135.462719 C254.584916,134.350514 255.069621,135.468308 255.582344,136.289887 Z" id="Path" fill="#FBBEBE"></path>
                <path d="M240.500458,129.756378 L240.346361,128.482093 C241.419436,128.761541 242.439278,127.850539 243.125709,126.908797 C243.812141,125.967055 244.448141,124.857644 245.493198,124.463622 C246.762396,123.988559 248.107242,124.74307 249.320405,125.380213 C250.678588,126.131917 252.169169,126.615786 253.710767,126.805401 C253.956676,126.81354 254.200536,126.852982 254.436423,126.922769 C255.22652,127.202218 255.601956,128.191466 255.716828,129.088496 C255.8317,129.985526 255.800881,130.938446 256.190326,131.737669 C256.470502,132.344073 256.99163,132.793985 257.311031,133.392005 C258.151559,134.99604 257.339048,137.189712 258.216,138.763008 L256.036229,136.770539 C255.837304,136.588897 255.557128,136.398872 255.335789,136.552569 C255.162079,136.675526 255.14807,136.941003 255.078026,137.153383 C254.867894,137.773759 254.089004,137.958195 253.52585,137.712281 C252.962696,137.466366 252.550837,136.932619 252.124969,136.446378 C251.161163,135.311817 250.012441,134.314185 248.667595,133.830739 C247.475135,133.386088 246.148645,133.473612 245.025304,134.071065 C244.008264,134.643935 243.262996,135.979699 242.016211,136.027206 C240.307137,136.091479 239.595489,132.916942 238.805392,131.662218 C239.402195,131.214377 239.591109,130.404153 239.253674,129.739612 C239.368546,129.692105 240.475242,129.560764 240.500458,129.756378 Z" id="Path" fill="#464353"></path>
                <path d="M156.394361,90.1054135 C155.848012,90.5901016 155.342898,91.1191405 154.884211,91.6870927 C154.422487,92.2629329 154.176743,92.9814485 154.189374,93.7186842 C154.19182,93.9324885 154.260306,94.1403401 154.385498,94.3139098 C154.516652,94.4842053 154.741734,94.5526768 154.94585,94.4843734 C155.058436,94.4271264 155.154782,94.3425621 155.226026,94.2384586 C155.522162,93.8835473 155.836373,93.544036 156.167419,93.2212657 C156.287894,93.1011028 156.447595,92.9753509 156.610097,93.0200627 C156.682942,93.0458416 156.748353,93.0890155 156.800617,93.1458145 C156.989115,93.308346 157.126335,93.5218923 157.195665,93.7606015 C157.293727,94.1881579 157.04437,94.6157143 156.761392,94.9510526 C156.478414,95.286391 156.145004,95.6077569 156.030132,96.0297243 C155.986665,96.1411616 155.986665,96.2648033 156.030132,96.3762406 C156.084288,96.4568616 156.15999,96.5207511 156.24867,96.5606767 C157.060925,97.0067136 158.029765,97.0701798 158.893533,96.7339348 C159.453885,96.5075815 159.952599,96.1191479 160.529762,95.9179449 C160.779674,95.8497353 161.021897,95.756094 161.252617,95.6384962 C161.586096,95.417131 161.817084,95.0720528 161.89422,94.6799875 C161.967048,94.2921209 161.981214,93.8955614 161.936247,93.5035088 C161.866372,91.9854243 161.540543,90.4899333 160.972441,89.0798371 C160.939542,88.9888892 160.883551,88.9080092 160.809938,88.8451003 C160.725655,88.7938539 160.628452,88.7676774 160.529762,88.7696491 C159.812511,88.694198 158.635771,88.3281203 157.943736,88.5935965 C157.701689,88.7259577 157.492864,88.91131 157.332952,89.1357268 C157.20407,89.2782456 156.394361,89.918183 156.394361,90.1054135 Z" id="Path" fill="#A1616A"></path>
                <path d="M156.167419,89.4738596 C156.167419,88.792005 155.32689,87.1460526 156.66333,87.0370677 C156.66333,86.3077068 155.62948,85.855 155.822802,85.0809273 C155.884441,84.8238346 156.102978,84.6142481 156.128194,84.3515664 C156.212247,83.6054386 154.861797,83.2002381 155.085938,82.4848496 C155.169991,82.205401 155.466978,82.0433208 155.531419,81.7666667 C155.682714,81.1211404 154.525586,80.8333083 154.503172,80.171015 C154.503172,79.9474561 154.629251,79.7378697 154.618044,79.5143108 C154.618044,79.2348622 154.374291,79.0224812 154.239806,78.7793609 C153.889586,78.1561905 154.060493,77.1920927 153.421692,76.8707268 C153.844758,76.9070551 153.982044,76.2810902 153.808335,75.8982456 C153.634626,75.515401 153.278802,75.1828571 153.276,74.7580952 C153.296985,74.6041753 153.296985,74.4481305 153.276,74.2942105 C153.158326,73.8862155 152.488705,73.8526817 152.376634,73.4558647 C152.362128,73.3035564 152.357448,73.1504758 152.362626,72.9975689 C152.317797,72.681792 151.992793,72.480589 151.687401,72.3911654 C151.370165,72.3374312 151.064825,72.2286642 150.785233,72.0697995 C150.58911,71.9216917 150.362167,71.6757769 150.152035,71.7903509 C150.073586,71.8378571 150.034361,71.9272807 149.975524,71.9943484 C149.723366,72.2877694 149.241463,72.1592231 148.924863,71.9440476 C147.989075,71.3096992 147.523982,70.1723434 147.325057,69.0629323 C147.126132,67.9535213 147.131736,66.807782 146.882379,65.7095489 C146.806327,65.3672787 146.705192,65.0310372 146.579789,64.7035338 C146.473322,64.4240852 146.131507,63.9853509 146.109093,63.7031078 C146.058661,63.0603759 147.3923,63.4991103 147.899419,63.5633835 C148.391765,63.6113424 148.878569,63.7048953 149.353533,63.8428321 C149.860484,64.0338604 150.357073,64.2511955 150.841269,64.4939474 C152.864141,65.3853885 155.307278,65.4943734 156.9323,66.992218 C157.467436,67.4840476 157.91852,68.1295739 158.613357,68.3531328 C158.932032,68.414064 159.246472,68.4952699 159.554749,68.5962531 C160.325233,68.9567419 160.445709,69.9767293 160.865974,70.7144737 C160.998095,70.9092985 161.113382,71.1149671 161.21059,71.3292607 C161.291601,71.5819825 161.329485,71.8464796 161.322661,72.1117168 L161.381498,74.0482957 C161.476758,77.2926942 161.572018,80.5454762 161.224599,83.7703133 C161.112529,84.8350125 160.944423,85.9304511 161.261022,86.9532331 C161.345075,87.2326817 161.462749,87.4953634 161.541198,87.7776065 C161.610491,88.1085245 161.64616,88.4455668 161.647665,88.7836216 L161.692493,90.0383459 C161.708061,90.1359166 161.686041,90.2357492 161.630855,90.3177945 C161.535987,90.394622 161.411319,90.4244234 161.291841,90.3988346 C159.54074,90.2423434 157.770026,89.2586842 156.116987,89.8539098" id="Path" fill="#464353"></path>
                <ellipse id="Oval" fill="#504F60" cx="236.079278" cy="182.896328" rx="20.7218326" ry="2.98730576"></ellipse>
                <path d="M253.90689,183.041642 C253.542661,181.485113 253.315718,180.118609 253.315718,180.118609 C253.315718,180.118609 253.399771,178.42515 252.637692,177.153659 L252.637692,176.728897 L252.637692,173.599073 C252.854638,173.030746 253.119904,172.48196 253.43059,171.958709 C253.990943,170.97505 253.43059,167.370163 253.43059,167.370163 C253.43059,167.370163 251.337674,162.286992 251.844793,159.062155 C252.351912,155.837318 247.54689,144.743208 247.54689,144.743208 C247.576492,143.673267 247.727823,142.610139 247.997974,141.574261 C248.049278,141.356478 248.070022,141.132646 248.059612,140.909173 C248.059612,140.881228 248.059612,140.856078 248.059612,140.828133 C248.059612,140.800188 248.059612,140.8449 248.059612,140.853283 C247.986767,138.726679 246.300106,134.741742 246.300106,134.741742 L246.527048,127.146328 C246.527048,127.146328 247.602925,122.67515 245.849022,116.653033 C245.235436,114.554373 244.843189,112.874887 244.593833,111.578246 C244.565815,111.432932 244.537797,111.298797 244.515383,111.156278 C248.126855,110.597381 250.88659,110.150263 250.88659,110.150263 C250.88659,110.150263 248.790872,101.406316 247.375982,99.8749373 C245.961093,98.3435589 244.829181,93.5342481 244.829181,93.5342481 C244.829181,93.5342481 244.092317,87.3612281 245.283066,85.55599 C246.473815,83.7507519 246.641921,80.6376942 246.641921,80.6376942 C246.641921,80.6376942 249.356828,78.6815539 249.698643,77.7957018 C250.040458,76.9098496 250.603612,74.9537093 250.603612,73.9169549 C250.603612,72.8802005 250.264599,71.9608145 250.37667,71.4019173 C250.48874,70.8430201 249.583771,68.7778947 250.037656,67.7942356 C250.155077,67.4920727 250.215857,67.1709686 250.216969,66.8469048 C250.218034,66.8376201 250.218034,66.8282446 250.216969,66.8189599 C250.216969,66.8189599 250.216969,66.8189599 250.216969,66.8189599 C250.221153,65.9581688 250.141395,65.0990121 249.978819,64.2536216 C249.193469,63.5921881 248.276899,63.1036683 247.289128,62.8200501 L247.230291,62.5853133 L247.076194,61.9705263 C246.990235,61.9138215 246.901394,61.861588 246.810026,61.8140351 L246.810026,61.5904762 L246.784811,60.7018296 L247.210678,58.7065664 C248.051207,55.2358145 243.403084,54.7188346 243.403084,54.7188346 C243.121219,54.1864516 242.652339,53.776501 242.086256,53.5675063 C241.153269,53.2405514 241.932159,58.7876065 242.366432,59.1564787 C242.694238,59.4359273 243.708476,61.1629198 244.198784,62.0180326 L244.277233,62.1577569 C244.200468,62.2265719 244.129269,62.3013238 244.0643,62.3813158 L244.240811,63.5857393 L244.268828,63.7701754 C243.960765,64.1517277 243.710603,64.5763703 243.526361,65.0304887 C243.526361,65.0304887 244.36689,65.9582581 244.207189,66.9866291 C244.047489,68.015 244.467753,69.3200251 244.487366,69.3898872 C244.436934,69.331203 243.840159,68.6884712 243.243383,68.8449624 C242.646608,69.0014536 240.979559,69.5016667 240.979559,69.5016667 C240.979559,69.5016667 239.735577,69.7196366 239.858855,69.9934962 C239.982132,70.2673559 239.018326,71.468985 239.018326,71.468985 L235.673022,68.3056266 C235.639401,68.210614 235.602978,68.1156015 235.57496,68.0261779 C235.438432,67.5700782 235.344638,67.1023246 235.294784,66.6289348 C235.659362,66.5425158 236.017082,66.4295008 236.365057,66.290802 C236.716568,66.1704308 237.033747,65.9671964 237.289639,65.6983709 C237.628652,65.2987594 237.693093,64.7566291 237.830379,64.2592105 C238.093744,63.2867293 238.670907,62.4232331 239.071559,61.4982581 C239.750071,59.9352589 239.968715,58.2119711 239.701956,56.5296617 C239.650602,56.0112283 239.474728,55.5127766 239.189233,55.0765288 C238.64289,54.3276065 237.651066,54.0230075 236.931013,53.4249875 C236.21096,52.8269674 235.745868,51.9131704 234.905339,51.4688471 C234.146062,51.0636466 233.224282,51.1111529 232.366943,51.2508772 C230.692454,51.5262723 229.083955,52.1100068 227.623559,52.9722807 C227.136053,53.2517293 226.598115,53.5954511 226.037762,53.4920551 C225.555859,53.4054261 225.197233,53.0225815 224.894643,52.6537093 C224.89805,52.6384406 224.902736,52.6234841 224.908652,52.6089975 C224.894999,52.5953849 224.882793,52.5804014 224.872229,52.5642857 C224.517685,53.3490916 224.339806,54.2018339 224.351101,55.0625564 C224.351101,55.1966917 224.351101,55.342005 224.367912,55.4621679 L224.367912,55.6018922 C224.367912,55.641015 224.367912,55.6801378 224.367912,55.7164662 C224.3678,55.7760376 224.359312,55.8352989 224.342696,55.8925188 C224.272132,56.0634586 224.165046,56.2169957 224.028899,56.3424311 C223.926054,56.4589419 223.832383,56.5832002 223.748722,56.7140977 C223.748722,56.669386 223.77674,56.6246742 223.793551,56.5771679 C223.579835,56.8883331 223.459334,57.2537438 223.446132,57.6306892 C223.430476,57.905085 223.5207,58.175053 223.698291,58.3852005 C223.865958,58.5476636 224.048916,58.6936503 224.244634,58.8211404 C224.178041,59.1900442 224.144288,59.5640995 224.143771,59.9389348 C224.156599,62.1990307 225.353092,64.2879867 227.298555,65.4468672 C227.33778,65.5390852 227.374203,65.6340977 227.410626,65.7263158 C227.839295,66.8441103 228.161498,68.1575188 228.018608,69.3591479 C228.018608,69.4457769 227.993392,69.5352005 227.979383,69.6218296 C227.965374,69.7084586 227.89533,69.7140476 227.858907,69.7615539 C227.858907,69.7615539 222.331031,69.8174436 221.031013,68.6437594 C219.730996,67.4700752 217.747348,71.5136967 217.747348,71.5136967 C217.747348,71.5136967 215.766502,71.8965414 215.368652,71.5136967 C214.970802,71.1308521 212.653744,71.4606015 212.653744,71.4606015 C211.704427,70.6185536 210.469121,70.1688828 209.199172,70.2030827 C208.4297,69.6198559 207.580581,69.1493481 206.677586,68.8058396 L206.615947,68.7834837 C206.217409,68.6385923 205.791267,68.5851047 205.369163,68.6269925 C205.369163,68.6269925 202.651454,66.3914035 201.858555,65.1841855 C201.065656,63.9769674 197.291683,59.5197619 197.274872,59.5002005 L197.274872,59.2850251 L197.232846,58.6367043 C197.120676,58.6542515 197.007369,58.6635914 196.893833,58.6646491 C196.87422,58.6003759 196.846203,58.5249248 196.818185,58.4382957 C196.600739,57.8059151 196.332778,57.1919532 196.016881,56.6023183 C196.016881,56.6023183 196.016881,55.7835338 196.255031,55.5767419 C196.493181,55.3699499 196.156969,52.3658772 196.156969,52.3658772 C196.156969,52.3658772 193.708229,46.6567419 191.514449,50.9183333 C191.514449,50.9183333 187.367841,53.6764912 190.84763,56.8901504 C190.84763,56.8901504 192.248511,57.5608271 192.433427,58.0917794 C192.562308,58.4355013 193.033004,59.399599 193.349604,60.0479198 L193.492493,60.3273684 L193.453269,60.3609023 L193.5037,60.8974436 L193.526115,61.1042356 C192.870502,61.4759023 192.425022,61.8447744 192.534291,62.1214286 C192.727309,62.5948488 192.860028,63.0905476 192.929339,63.5969173 C192.929339,63.5969173 197.742767,69.6106516 198.364758,72.1787845 C198.364758,72.1787845 211.272476,79.8300877 215.517145,80.3750125 L214.766273,84.1894862 C214.656873,85.2245545 214.600764,86.2645377 214.598167,87.3053383 C214.654203,88.1241228 214.088247,91.8407895 214.088247,91.8407895 C214.088247,91.8407895 213.351383,97.3068045 212.729392,98.0724937 C212.107401,98.838183 212.219471,102.116115 212.219471,102.116115 C212.072633,103.68534 211.79143,105.239153 211.378943,106.760551 C210.756952,108.836855 211.208035,111.407782 211.208035,111.407782 C211.208035,111.407782 209.059084,116.326078 214.208722,112.992256 C214.208722,112.992256 216.730308,112.835764 219.649744,112.735163 C219.649744,112.830175 219.649744,112.927982 219.649744,113.014612 C219.649744,113.389073 219.649744,113.794273 219.630132,114.219035 C219.590907,117.035877 219.574097,120.925802 219.702978,123.854424 C219.929921,129.046579 221.515718,139.321905 221.515718,139.321905 L221.515718,144.494499 C221.413333,144.979642 221.36262,145.474216 221.364423,145.969987 C221.330903,147.789946 221.816742,149.581916 222.765304,151.136992 L223.163154,154.579799 C223.163154,154.579799 224.093339,156.848922 224.11015,158.212632 C224.106557,158.322541 224.093433,158.431934 224.070925,158.539586 C224.034689,158.713193 224.019637,158.890533 224.026097,159.067744 C223.972863,160.632657 224.917057,164.377268 224.917057,164.377268 C224.917057,164.377268 224.973093,168.14703 225.539048,168.367794 C226.023753,168.555025 224.891841,170.53911 224.55563,171.109185 C224.54664,171.074283 224.540087,171.038801 224.536018,171.002995 L224.465974,171.114774 C224.349173,171.419938 224.28935,171.743845 224.289463,172.070489 C224.224342,172.5959 224.46872,173.11168 224.917057,173.395075 C225.992934,174.051779 226.570097,174.596704 225.656722,174.814674 C225.320729,174.8667 224.987775,174.936663 224.659295,175.024261 C224.659295,174.982343 224.625674,174.937632 224.611665,174.898509 C224.346005,175.001971 224.190178,175.277759 224.239031,175.558008 C224.247685,176.001299 224.361969,176.436174 224.572441,176.826704 C225.47741,178.849912 226.105004,179.62119 226.105004,179.62119 L226.539278,179.573684 C226.475204,179.739187 226.390485,179.895981 226.287119,180.040363 C226.121831,180.274729 225.902824,180.466341 225.648317,180.599261 C225.411067,180.74088 225.146684,180.831318 224.872229,180.864737 C224.251633,180.884853 223.668914,181.167326 223.269621,181.641604 C222.709269,182.370965 222.350643,183.363008 223.465744,184.234887 L227.514291,185.63213 C227.514291,185.63213 234.479471,186.534749 234.109639,184.975426 C233.739806,183.416103 233.515665,182.052393 233.515665,182.052393 C233.545566,181.100329 233.35376,180.154314 232.955313,179.288647 C232.882273,179.147355 232.799906,179.011057 232.708758,178.880652 L232.955313,178.855501 C232.955313,178.855501 233.465233,175.4099 234.14326,174.75599 C234.300159,174.605088 234.336581,174.476541 234.300159,174.398296 C234.370203,174.211065 234.19089,174.10208 233.963947,174.037807 L233.913515,174.174737 C233.691639,174.126504 233.465368,174.10122 233.238291,174.099286 C233.238291,174.099286 233.011348,172.296842 233.748211,171.640138 C233.868406,171.488807 233.920161,171.29447 233.891101,171.103596 C233.896665,170.856271 233.870298,170.60926 233.812652,170.368647 C233.805322,170.384129 233.796895,170.399071 233.787436,170.413358 C233.417604,168.775789 232.162414,166.174123 232.162414,166.174123 C232.162414,166.174123 232.106379,164.536554 232.560264,163.87985 C233.01415,163.223145 232.501427,154.971028 232.501427,154.971028 C232.501427,154.971028 232.672335,150.983296 232.162414,149.124962 C231.652493,147.266629 232.784405,145.078546 232.784405,145.078546 C232.784405,145.078546 232.784405,145.036629 232.784405,144.961178 L232.784405,144.933233 L232.719965,144.304474 C232.718381,144.317467 232.718381,144.330603 232.719965,144.343596 C232.605093,143.287281 232.389357,141.373058 232.229656,140.49 C232.002714,139.232481 232.288493,133.224336 232.288493,133.224336 L233.305533,130.653409 L235.118273,135.082669 L237.043084,140.984624 C237.043084,140.984624 237.995683,142.230965 238.018097,143.499662 C238.018097,143.56114 238.018097,143.622619 238.018097,143.684098 C238.002567,143.814859 237.995082,143.946446 237.995683,144.07812 C237.961566,144.823797 238.166688,145.560903 238.581251,146.182368 C238.581251,146.182368 239.091172,148.976855 239.88407,149.678271 C240.676969,150.379687 240.676969,151.754574 240.676969,151.754574 C240.676969,151.754574 241.637974,155.80099 242.07785,156.505201 C242.45889,157.103221 242.478502,158.740789 242.4757,159.25218 C242.4757,159.344398 242.4757,159.397494 242.4757,159.397494 C242.4757,159.397494 242.610185,160.845038 242.604581,162.057845 C242.604581,162.208747 242.604581,162.35406 242.604581,162.49099 C242.605901,162.480786 242.605901,162.470455 242.604581,162.460251 C242.60432,162.791614 242.564821,163.121787 242.486907,163.44391 L242.470097,163.499799 C242.470097,163.429937 242.470097,163.36287 242.489709,163.295802 C242.292723,164.119422 242.198617,164.964179 242.209533,165.81084 C242.184317,167.263972 242.405656,168.985376 243.288211,170.002569 C244.817974,171.751917 245.778978,171.533947 245.778978,171.533947 C245.778978,171.533947 245.044916,173.719236 244.137145,174.15797 C244.102785,174.174133 244.070747,174.19481 244.041885,174.219449 C244.041885,174.174737 244.025075,174.13282 244.019471,174.090902 C243.814856,174.311302 243.713101,174.607654 243.739295,174.906892 C243.674855,175.868195 244.282837,177.42193 244.86,178.145702 C245.074352,178.355033 245.337024,178.50858 245.624881,178.59282 C245.579305,178.624939 245.531562,178.653885 245.481991,178.679449 C245.381215,178.734638 245.277383,178.784087 245.170996,178.827556 C245.023636,178.889992 244.867873,178.930479 244.708705,178.947719 C244.087228,178.964262 243.503117,179.24741 243.106097,179.724586 C242.545744,180.451153 242.187119,181.443195 243.30222,182.315075 L247.350767,183.712318 C247.350767,183.712318 254.271119,184.59817 253.90689,183.041642 Z" id="Path" fill="url(#linearGradient-1)"></path>
                <path d="M227.315366,185.623747 L223.392899,184.226504 C222.311419,183.354624 222.656035,182.362581 223.202379,181.633221 C223.582793,181.162574 224.148873,180.87925 224.754555,180.856353 C225.020161,180.822586 225.275328,180.732032 225.502626,180.590877 C225.751266,180.456138 225.964404,180.264619 226.124617,180.03198 C226.410805,179.578998 226.565046,179.055556 226.570097,178.520163 C226.570097,178.520163 230.873604,177.262644 232.050344,178.520163 C232.260362,178.747802 232.435924,179.004812 232.571471,179.283058 C232.962404,180.15115 233.153855,181.095418 233.131824,182.046805 C233.131824,182.046805 233.350361,183.410514 233.706185,184.969837 C234.062009,186.52916 227.315366,185.623747 227.315366,185.623747 Z" id="Path" fill="#2D293D"></path>
                <path d="M246.490626,183.695551 L242.568159,182.298308 C241.486678,181.426429 241.831295,180.434386 242.377639,179.70782 C242.755257,179.23523 243.321469,178.951328 243.927013,178.930952 C244.081928,178.915098 244.233283,178.874527 244.375295,178.810789 C244.478886,178.767168 244.579912,178.717719 244.677885,178.662682 C245.773374,178.061867 245.745357,176.586378 245.745357,176.586378 C245.745357,176.586378 250.046062,175.32886 251.225604,176.586378 C251.383444,176.756704 251.521597,176.944179 251.637463,177.145276 C252.374326,178.416767 252.293075,180.11302 252.293075,180.11302 C252.293075,180.11302 252.511612,181.479524 252.853427,183.036053 C253.195242,184.592581 246.490626,183.695551 246.490626,183.695551 Z" id="Path" fill="#2D293D"></path>
                <path d="M232.053145,178.517368 C232.263164,178.745008 232.438725,179.002018 232.574273,179.280263 L226.13022,180.026391 C226.416409,179.57341 226.570649,179.049967 226.5757,178.514574 C226.5757,178.514574 230.876405,177.25985 232.053145,178.517368 Z" id="Path" fill="#000000" opacity="0.1"></path>
                <path d="M251.643066,177.150865 L251.643066,178.355288 C250.640035,180.001241 245.790185,179.640752 244.380899,178.816378 C244.484489,178.772757 244.585515,178.723308 244.683489,178.668271 C245.778978,178.067456 245.75096,176.591967 245.75096,176.591967 C245.75096,176.591967 250.051665,175.334449 251.231207,176.591967 C251.389048,176.762293 251.527201,176.949768 251.643066,177.150865 Z" id="Path" fill="#000000" opacity="0.1"></path>
                <path d="M252.407947,171.958709 C252.108078,172.483528 251.852245,173.032186 251.643066,173.599073 L251.643066,177.916554 C250.544775,179.718997 244.848793,179.118183 244.078308,178.134524 C243.307824,177.150865 242.503718,174.591115 243.369463,174.146792 C244.235207,173.702469 244.958062,171.522769 244.958062,171.522769 C244.958062,171.522769 244.025075,171.740739 242.545744,169.991391 C241.066414,168.242043 241.506291,164.363296 241.780863,163.435526 C242.055436,162.507757 241.780863,159.391905 241.780863,159.391905 C241.780863,159.391905 241.836899,157.203822 241.399824,156.494023 C240.962749,155.784223 240.029762,151.743396 240.029762,151.743396 C240.029762,151.743396 240.029762,150.376892 239.262079,149.667093 C238.494396,148.957293 238.001286,146.168396 238.001286,146.168396 C237.552455,145.471475 237.359405,144.641048 237.454943,143.818233 C237.617445,142.451729 236.521956,140.976241 236.521956,140.976241 L234.658784,135.071491 L232.904881,130.645025 L231.918661,133.213158 C231.918661,133.213158 231.638485,139.224098 231.865427,140.478822 C232.09237,141.733546 232.42578,145.070163 232.42578,145.070163 C232.42578,145.070163 231.330291,147.255451 231.823401,149.113784 C232.316511,150.972118 232.137198,154.965439 232.137198,154.965439 C232.137198,154.965439 232.630308,163.214762 232.190432,163.871466 C231.750555,164.52817 231.80659,166.168534 231.80659,166.168534 C231.80659,166.168534 234.048,170.97505 233.341956,171.631754 C232.635912,172.288459 232.848846,174.090902 232.848846,174.090902 C232.848846,174.090902 234.38141,174.090902 233.725797,174.747607 C233.070185,175.404311 232.574273,178.847118 232.574273,178.847118 L225.948106,179.62119 C225.948106,179.62119 225.342925,178.858296 224.465974,176.826704 C223.589022,174.795113 224.628476,175.024261 225.511031,174.803496 C226.393586,174.582732 225.836035,174.040602 224.79378,173.383897 C223.751524,172.727193 224.356705,171.251704 224.356705,171.251704 C224.356705,171.251704 225.945304,168.574586 225.396159,168.356617 C224.847013,168.138647 224.79378,164.36609 224.79378,164.36609 C224.79378,164.36609 223.698291,159.894912 223.972863,158.682105 C224.247436,157.469298 223.095912,154.585388 223.095912,154.585388 L222.71207,151.142581 C221.53971,149.188924 221.112026,146.879479 221.507313,144.637018 L221.507313,139.327494 C221.507313,139.327494 219.971947,129.054962 219.75341,123.862807 C219.613322,120.537368 219.652546,115.999123 219.697374,113.168308 C219.725392,111.58104 219.75341,110.527519 219.75341,110.527519 L243.422696,108.068371 C243.422696,108.068371 243.400282,109.158221 243.851366,111.575451 C244.095119,112.872093 244.473357,114.551579 245.06733,116.650238 C246.765198,122.661178 245.725744,127.140739 245.725744,127.140739 L245.504405,134.738947 C245.504405,134.738947 247.586115,139.819323 247.14904,141.568672 C246.884864,142.60739 246.736406,143.67201 246.706361,144.743208 C246.706361,144.743208 251.36289,155.837318 250.86978,159.062155 C250.37667,162.286992 252.402344,167.370163 252.402344,167.370163 C252.402344,167.370163 252.957093,170.97505 252.407947,171.958709 Z" id="Path" fill="#464353"></path>
                <path d="M238.875436,143.488484 L246.081568,142.529975 C246.081568,142.529975 241.999401,146.685376 238.875436,143.488484 Z" id="Path" fill="#000000" opacity="0.05"></path>
                <path d="M245.039313,135.507431 C245.039313,135.507431 245.285868,138.050414 243.725286,139.006128 C243.725286,139.006128 246.518643,138.570188 245.039313,135.507431 Z" id="Path" fill="#000000" opacity="0.1"></path>
                <path d="M244.596634,127.420188 C244.596634,127.420188 238.572846,132.366429 236.381868,131.955639 C234.19089,131.54485 244.596634,127.420188 244.596634,127.420188 Z" id="Path" fill="#000000" opacity="0.1"></path>
                <path d="M229.943419,145.807907 C229.943419,145.807907 225.368141,146.844662 225.230855,148.677845 C225.093568,150.511028 229.943419,145.807907 229.943419,145.807907 Z" id="Path" fill="#000000" opacity="0.1"></path>
                <path d="M230.949251,168.599737 C230.949251,168.599737 224.485586,169.801366 226.32074,170.62015 C228.155894,171.438935 231.17059,172.095639 231.17059,172.095639 C231.17059,172.095639 233.257903,172.204624 230.949251,168.599737 Z" id="Path" fill="#000000" opacity="0.05"></path>
                <g id="Group" opacity="0.05" transform="translate(219.377974, 110.102757)" fill="#000000">
                    <path d="M5.63714537,61.8196241 C5.30788272,61.6145124 5.09026728,61.2709351 5.04597357,60.8862657 L4.97873128,61.0008396 C4.97873128,61.0008396 4.37635242,62.4763283 5.41860793,63.1302381 C5.53628194,63.2056892 5.65115419,63.2811404 5.75481938,63.353797 C5.94814097,63.3174687 6.15547137,63.2895238 6.35439648,63.2392231 C7.23695154,63.0212531 6.67940088,62.4763283 5.63714537,61.8196241 Z" id="Path"></path>
                    <path d="M13.9639824,61.3808897 C14.1432952,61.2188095 14.1376916,60.7996366 14.0284229,60.2630952 C13.7482467,60.6850627 13.6669956,61.3445614 13.6613921,61.8447744 C13.7294074,61.6711438 13.8323911,61.5132651 13.9639824,61.3808897 Z" id="Path"></path>
                    <path d="M12.9693568,34.1933333 C12.7313003,34.8397228 12.5842094,35.5159003 12.5322819,36.2025689 C12.6572283,35.7282221 12.8250889,35.2661673 13.0337974,34.8220927 L12.9693568,34.1933333 Z" id="Path"></path>
                    <path d="M27.7738678,31.3261905 C27.8169003,31.1298376 27.8366481,30.929121 27.8327048,30.7281704 C27.7514537,31.1361654 27.6954185,31.5134211 27.6533921,31.8459649 C27.689815,31.6755013 27.7290396,31.5134211 27.7738678,31.3261905 Z" id="Path"></path>
                    <path d="M12.8152599,53.623396 C12.9049163,53.4892607 12.955348,53.0365539 12.9777621,52.4077945 C12.7750178,52.8943422 12.66755,53.4151087 12.661163,53.9419674 C12.6994594,53.8299671 12.751201,53.7229994 12.8152599,53.623396 Z" id="Path"></path>
                    <path d="M14.1601057,63.9294612 C13.8203567,65.0256154 13.5683412,66.1469282 13.4064317,67.2828446 L6.78026432,68.0457393 C6.78026432,68.0457393 6.1750837,67.2828446 5.29813216,65.2512531 C5.2274039,65.0943247 5.16474976,64.9338989 5.1104141,64.7706015 C4.71256388,64.9522431 4.55006167,65.3630326 5.07679295,66.5618672 C5.95374449,68.5850752 6.56172687,69.3563534 6.56172687,69.3563534 L13.1878943,68.5906642 C13.1878943,68.5906642 13.6810044,65.1478571 14.3366167,64.4911529 C14.6728282,64.1753759 14.4654978,64.0105013 14.1601057,63.9294612 Z" id="Path"></path>
                    <path d="M5.41860793,54.1152256 C5.41860793,54.1152256 5.47184141,57.8849875 6.02098678,58.1029574 C6.301163,57.479787 6.48327753,56.8873559 6.23672247,56.7895489 C5.67637004,56.5715789 5.63434361,52.7990226 5.63434361,52.7990226 C5.63434361,52.7990226 4.53885463,48.3278446 4.81342731,47.1150376 C5.088,45.9022306 3.93647577,43.0183208 3.93647577,43.0183208 L3.55263436,39.5755138 C2.38027378,37.6218568 1.95259037,35.3124117 2.34787665,33.0699499 L2.34787665,27.7604261 C2.34787665,27.7604261 0.812511013,17.4878947 0.593973568,12.2957393 C0.453885463,8.97030075 0.493110132,4.43205514 0.537938326,1.6012406 C0.537938326,1.08984962 0.554748899,0.637142857 0.563154185,0.254298246 L0.375436123,0.273859649 C0.375436123,0.273859649 0.34461674,1.32458647 0.319400881,2.91464912 C0.274572687,5.74546366 0.232546256,10.2837093 0.375436123,13.6063534 C0.593973568,18.7985088 2.12653744,29.0738346 2.12653744,29.0738346 L2.12653744,34.3833584 C1.73329313,36.6252509 2.16191937,38.9334251 3.33409692,40.8861278 L3.71513656,44.3289348 C3.71513656,44.3289348 4.86666079,47.2240226 4.59208811,48.4284461 C4.31751542,49.6328697 5.41860793,54.1152256 5.41860793,54.1152256 Z" id="Path"></path>
                    <path d="M24.9244758,66.5730451 C24.3861933,65.7957699 24.0273648,64.9091404 23.873815,63.9769674 C23.1985903,64.5861654 23.9746784,66.9503008 24.7143436,67.8892481 C25.4792247,68.8729073 31.1780088,69.4737218 32.2791013,67.6684837 L32.2791013,66.6289348 C30.7857621,68.0904511 25.6473304,67.503609 24.9244758,66.5730451 Z" id="Path"></path>
                    <path d="M33.2513128,60.3972306 C32.9508322,60.9221378 32.6940751,61.4707691 32.48363,62.037594 L32.48363,62.8116667 C32.6097093,62.532218 32.7862203,62.1577569 33.0439824,61.7162281 C33.2173974,61.2859311 33.2994428,60.8244353 33.2849339,60.3609023 C33.2849339,60.3609023 33.2597181,60.3860526 33.2513128,60.3972306 Z" id="Path"></path>
                    <path d="M25.2606872,61.2607268 C25.4690498,60.8397601 25.6496794,60.4056945 25.8014273,59.9612907 C25.8014273,59.9612907 24.8684405,60.1792607 23.3891101,58.4299123 C22.3132335,57.1584211 22.2515947,54.7551629 22.4056916,53.1846617 C22.1255154,54.1152256 21.6912423,57.9939724 23.1705727,59.7433208 C24.1371806,60.8862657 24.8684405,61.1880702 25.2606872,61.2607268 Z" id="Path"></path>
                    <path d="M22.4028899,49.1410401 C22.4995513,50.2177839 22.5360307,51.2990605 22.5121586,52.3798496 C22.5395714,52.2092091 22.5769924,52.0403186 22.6242291,51.8740476 C22.9044053,50.9434837 22.6242291,47.8304261 22.6242291,47.8304261 C22.6242291,47.8304261 22.6802643,45.6423434 22.2403877,44.9325439 C21.800511,44.2227444 20.8843348,40.1763283 20.8843348,40.1763283 C20.8843348,40.1763283 20.8843348,38.8098246 20.116652,38.1000251 C19.3489692,37.3902256 18.855859,34.6013283 18.855859,34.6013283 C18.4029935,33.9058093 18.2050363,33.0755607 18.2955066,32.2511654 C18.4608106,30.8846617 17.3653216,29.4091729 17.3653216,29.4091729 L15.5021498,23.507218 L13.7482467,19.0807519 L12.7592247,21.6516792 C12.7592247,21.6516792 12.7592247,21.9758396 12.7256035,22.4900251 L13.5269075,20.4025439 L15.2808106,24.8206266 L17.1439824,30.7225815 C17.1439824,30.7225815 18.2394714,32.1980702 18.0741674,33.5645739 C17.9836971,34.3889692 18.1816543,35.2192179 18.6345198,35.9147368 C18.6345198,35.9147368 19.12763,38.7092231 19.8953128,39.4134336 C20.6629956,40.1176441 20.6601938,41.4897368 20.6601938,41.4897368 C20.6601938,41.4897368 21.5931806,45.5333584 22.0302555,46.2403634 C22.4673304,46.9473684 22.4028899,49.1410401 22.4028899,49.1410401 Z" id="Path"></path>
                </g>
                <path d="M246.381357,58.698183 L245.969498,60.6934461 L245.994714,61.5820927 L246.011524,62.2360025 L243.725286,62.4707393 L243.470326,61.9984712 C242.996828,61.1433584 242.01341,59.405188 241.696811,59.1369173 C241.273744,58.784812 240.52007,53.2349624 241.416634,53.5647118 C241.968555,53.7773166 242.421789,54.1865578 242.688634,54.7132456 C242.688634,54.7132456 247.191066,55.2274311 246.381357,58.698183 Z" id="Path" fill="#FFCDD3"></path>
                <path d="M246.011524,62.2360025 L243.725286,62.4707393 L243.470326,61.9984712 C244.10441,61.2784656 245.160052,61.1053219 245.991912,61.5848872 L246.011524,62.2360025 Z" id="Path" fill="#000000" opacity="0.1"></path>
                <path d="M246.588687,63.3174687 L243.573991,64.0132957 L243.509551,63.5661779 L243.338643,62.3617544 C243.338643,62.3617544 244.532194,60.7744862 246.258079,61.9649373 L246.409374,62.5769298 L246.588687,63.3174687 Z" id="Path" fill="#3F51B5"></path>
                <path d="M197.753974,58.9161529 L194.534749,60.6375564 L194.254573,60.0339474 C193.949181,59.39401 193.492493,58.4299123 193.366414,58.077807 C193.175894,57.5468546 191.83385,56.8761779 191.83385,56.8761779 C188.471736,53.6653133 192.478256,50.9043609 192.478256,50.9043609 C194.601991,46.6427694 196.961075,52.3519048 196.961075,52.3519048 C196.961075,52.3519048 197.291683,55.3615664 197.059137,55.5627694 C196.82659,55.7639724 196.82659,56.5883459 196.82659,56.5883459 C197.133417,57.1789711 197.392922,57.7928782 197.602678,58.4243233 C197.70074,58.7289223 197.753974,58.9161529 197.753974,58.9161529 Z" id="Path" fill="#FFCDD3"></path>
                <path d="M197.753974,58.9161529 L194.534749,60.6375564 L194.254573,60.0339474 C194.708458,59.6538972 196.319471,58.3572556 196.849004,58.4103509 C197.10177,58.4418215 197.35703,58.4483737 197.611084,58.4299123 C197.70074,58.7289223 197.753974,58.9161529 197.753974,58.9161529 Z" id="Path" fill="#000000" opacity="0.1"></path>
                <path d="M198.08178,59.8858396 L194.464705,61.6631328 L194.391859,60.8890602 L194.341427,60.3525188 C194.341427,60.3525188 196.437145,58.5612531 197.056335,58.6311153 C197.369431,58.6763657 197.687432,58.6763657 198.000529,58.6311153 L198.042555,59.2794361 L198.08178,59.8858396 Z" id="Path" fill="#3F51B5"></path>
                <path d="M237.614643,71.9524311 C237.614643,71.9524311 221.846326,73.7269298 224.79378,72.7712155 C226.84467,72.1033333 227.659982,70.8150752 227.83089,69.3619424 C227.970978,68.1519298 227.657181,66.8469048 227.245322,65.7291103 C226.874724,64.7374804 226.405418,63.7853919 225.844441,62.8871178 C225.844441,62.8871178 237.892018,56.2753634 235.485304,62.2863033 C235.114147,63.1954853 234.88364,64.1556355 234.801674,65.1338847 C234.72931,66.1060415 234.834687,67.0832224 235.11267,68.0177945 C235.567181,69.5342507 236.433045,70.8959196 237.614643,71.9524311 Z" id="Path" fill="#FFCDD3"></path>
                <path d="M235.476899,62.2779198 C235.105742,63.1871019 234.875235,64.147252 234.793269,65.1255013 C233.658555,66.0784211 232.414573,66.0141479 230.814767,66.0141479 C229.587595,66.0141479 228.225938,66.3103634 227.245322,65.7207268 C226.874724,64.7290969 226.405418,63.7770084 225.844441,62.8787343 C225.844441,62.8787343 237.889216,56.2669799 235.476899,62.2779198 Z" id="Path" fill="#000000" opacity="0.1"></path>
                <ellipse id="Oval" fill="#FFCDD3" cx="230.601833" cy="59.9305514" rx="6.51970044" ry="6.50276942"></ellipse>
                <path d="M237.614643,71.9524311 C237.614643,71.9524311 221.846326,73.7269298 224.79378,72.7712155 C226.84467,72.1033333 227.659982,70.8150752 227.83089,69.3619424 C228.615383,68.5235965 230.192775,67.9004261 231.193004,67.5762657 C232.117766,67.2661034 233.116191,67.2495062 234.050802,67.5287594 C234.418312,67.6391963 234.768276,67.8010224 235.090256,68.009411 C235.549634,69.5314416 236.423529,70.8964401 237.614643,71.9524311 Z" id="Path" fill="#000000" opacity="0.1"></path>
                <path d="M246.588687,63.3174687 L243.573991,64.0132957 L243.509551,63.5661779 C244.170788,62.6601753 245.330348,62.2646023 246.409374,62.5769298 L246.588687,63.3174687 Z" id="Path" fill="#000000" opacity="0.1"></path>
                <path d="M198.08178,59.8858396 L194.464705,61.6631328 L194.391859,60.8890602 C195.563463,60.2607679 196.781032,59.7217578 198.03415,59.2766416 L198.08178,59.8858396 Z" id="Path" fill="#000000" opacity="0.1"></path>
                <path d="M243.851366,111.58104 C237.740722,112.553521 229.05526,113.794273 227.676793,113.3751 C226.530872,113.028584 222.877374,113.064912 219.697374,113.173897 C219.725392,111.586629 219.75341,110.533108 219.75341,110.533108 L243.422696,108.07396 C243.422696,108.07396 243.400282,109.16381 243.851366,111.58104 Z" id="Path" fill="#000000" opacity="0.1"></path>
                <path d="M249.942396,110.150263 C249.942396,110.150263 229.83415,113.59307 227.676793,112.944749 C225.519436,112.296429 214.438467,112.997845 214.438467,112.997845 C209.45133,116.331667 211.53304,111.413371 211.53304,111.413371 C211.53304,111.413371 211.095965,108.845238 211.698344,106.768935 C212.102917,105.244526 212.379381,103.689132 212.524863,102.11891 C212.524863,102.11891 212.415595,98.838183 213.017974,98.0724937 C213.620352,97.3068045 214.334802,91.843584 214.334802,91.843584 C214.334802,91.843584 214.881145,88.1269173 214.827912,87.3081328 C214.774678,86.4893484 214.990414,84.1922807 214.990414,84.1922807 L215.704863,80.3666291 C211.594678,79.8217043 199.101621,72.170401 199.101621,72.170401 C198.499242,69.6022682 193.842714,63.5913283 193.842714,63.5913283 C193.774883,63.0858612 193.646,62.5904333 193.458872,62.1158396 C193.131066,61.2411654 198.062167,59.491817 198.062167,59.491817 C198.062167,59.491817 201.732476,63.962995 202.500159,65.175802 C203.267841,66.388609 205.895894,68.618609 205.895894,68.618609 C206.304216,68.5767209 206.716707,68.6303011 207.100652,68.7751003 L207.165093,68.7946617 C208.045813,69.1395146 208.871622,69.6101794 209.616634,70.1919048 C210.85218,70.1626758 212.050739,70.613599 212.959137,71.4494236 C212.959137,71.4494236 215.200546,71.1196742 215.589991,71.5025188 C215.979436,71.8853634 217.890238,71.5025188 217.890238,71.5025188 C217.890238,71.5025188 219.806643,67.4588972 221.067436,68.6325815 C222.328229,69.8062657 227.676793,69.7503759 227.676793,69.7503759 C228.388441,68.8058396 230.122731,68.1295739 231.207013,67.7942356 C232.131995,67.4853497 233.130022,67.4687591 234.064811,67.7467293 C234.468069,67.8667425 234.8473,68.0558654 235.185515,68.3056266 L238.438361,71.4745739 C238.438361,71.4745739 239.368546,70.2701504 239.259278,69.9990852 C239.150009,69.7280201 240.354767,69.5072556 240.354767,69.5072556 C240.354767,69.5072556 241.943366,69.0154261 242.545744,68.8505514 C243.148123,68.6856767 243.70007,69.336792 243.750502,69.3954762 C243.73089,69.325614 243.319031,67.9982331 243.470326,66.992218 C243.621621,65.986203 242.811912,65.0360777 242.811912,65.0360777 C244.728317,60.3357519 249.05704,64.2703885 249.05704,64.2703885 C249.05704,64.2703885 249.55015,66.8385213 249.113075,67.8221805 C248.676,68.8058396 249.55015,70.8821429 249.440881,71.4298622 C249.331612,71.9775815 249.66222,72.9053509 249.66222,73.9448997 C249.66222,74.9844486 249.101868,76.9489724 248.785269,77.8236466 C248.46867,78.6983208 245.826608,80.6656391 245.826608,80.6656391 C245.826608,80.6656391 245.661304,83.7814912 244.50978,85.5839348 C243.358256,87.3863784 244.08111,93.551015 244.08111,93.551015 C244.08111,93.551015 245.176599,98.3603258 246.546661,99.8917043 C247.916722,101.423083 249.942396,110.150263 249.942396,110.150263 Z" id="Path" fill="#3F3D56"></path>
                <path d="M220.630361,74.1908145 C220.630361,74.1908145 220.027982,72.3883709 219.478837,72.2346742 C218.933622,72.0346634 218.402837,71.7975045 217.890238,71.5248747 L218.24326,70.8514035 C218.24326,70.8514035 220.299753,71.4103008 220.630361,72.0167043 C220.960969,72.6231078 220.630361,74.1908145 220.630361,74.1908145 Z" id="Path" fill="#000000" opacity="0.1"></path>
                <path d="M209.616634,70.2030827 C209.507366,70.7619799 204.629498,71.2398371 204.629498,71.2398371 L207.095048,68.7751003 L207.156687,68.7974561 C208.040847,69.1441744 208.869558,69.617704 209.616634,70.2030827 Z" id="Path" fill="#000000" opacity="0.1"></path>
                <ellipse id="Oval" fill="#575988" cx="195.50696" cy="62.7026817" rx="1" ry="1"></ellipse>
                <ellipse id="Oval" fill="#575988" cx="196.067313" cy="63.5773559" rx="1" ry="1"></ellipse>
                <ellipse id="Oval" fill="#575988" cx="196.616458" cy="64.3849624" rx="1" ry="1"></ellipse>
                <ellipse id="Oval" fill="#575988" cx="197.190819" cy="65.2568421" rx="1" ry="1"></ellipse>
                <ellipse id="Oval" fill="#575988" cx="248.838502" cy="65.2093358" rx="1" ry="1"></ellipse>
                <ellipse id="Oval" fill="#575988" cx="248.894537" cy="66.0169424" rx="1" ry="1"></ellipse>
                <ellipse id="Oval" fill="#575988" cx="248.942167" cy="66.8217544" rx="1" ry="1"></ellipse>
                <path d="M220.649974,89.0015915 C220.59674,88.9373183 232.949709,104.494223 242.537339,95.5043609 C242.545744,95.5071554 227.396617,97.5555138 220.649974,89.0015915 Z" id="Path" fill="#000000" opacity="0.1"></path>
                <path d="M213.561515,97.0888346 C213.561515,97.0888346 220.952564,97.2900376 221.72585,99.4110526 L221.72585,101.618697 C221.298018,101.855467 220.778017,101.855467 220.350185,101.618697 C219.604916,101.216291 215.136106,98.9527569 213.561515,100.042607 L213.561515,97.0888346 Z" id="Path" fill="#000000" opacity="0.1"></path>
                <path d="M213.698802,97.0888346 C213.698802,97.0888346 220.767648,97.2816541 221.507313,99.3048622 L221.507313,101.406316 C221.097829,101.633152 220.599969,101.633152 220.190485,101.406316 C219.478837,101.026266 215.20615,98.8661278 213.698802,99.9056767 L213.698802,97.0888346 Z" id="Path" fill="#3F3D56"></path>
                <path d="M217.596053,81.0820175 C218.351171,82.8253376 219.313462,84.4719008 220.462256,85.9863409 C221.71162,87.6602748 223.225664,89.1203642 224.945075,90.309411 C224.945075,90.309411 217.71933,82.0936216 217.596053,81.0820175 Z" id="Path" fill="#000000" opacity="0.1"></path>
                <path d="M215.178132,72.5169173 C215.178132,72.5169173 216.410907,77.8264411 219.588106,79.6288847 L215.178132,72.5169173 Z" id="Path" fill="#000000" opacity="0.1"></path>
                <path d="M213.286943,73.0534586 C213.256123,72.9556516 212.191454,77.245188 217.383119,79.6288847 C217.383119,79.6288847 215.178132,78.8827569 213.286943,73.0534586 Z" id="Path" fill="#000000" opacity="0.1"></path>
                <path d="M245.560441,69.4932832 C245.479189,69.4932832 248.121251,71.1699749 248.841304,71.9524311 C248.841304,71.9524311 247.121022,69.3815038 245.560441,69.4932832 Z" id="Path" fill="#000000" opacity="0.1"></path>
                <path d="M228.839524,65.8241228 C228.841493,66.1109341 228.963787,66.3838181 229.176737,66.5765677 C229.389686,66.7693173 229.67383,66.8643182 229.960229,66.8385213 C231.946678,66.9614787 234.017181,67.0481078 235.84393,66.2796241 C236.186559,66.1576448 236.494271,65.954315 236.740493,65.687193 C237.065498,65.2875815 237.129938,64.7454511 237.261621,64.2480326 C237.519383,63.2755514 238.068529,62.4120551 238.463577,61.4870802 C239.131949,59.9243387 239.355873,58.2081787 239.110784,56.5268672 C239.059075,56.0114941 238.888375,55.515073 238.61207,55.0765288 C238.085339,54.324812 237.124335,54.020213 236.426696,53.422193 C235.729057,52.8241729 235.280775,51.9103759 234.465463,51.4660526 C233.731401,51.0580576 232.832035,51.1083584 232.005515,51.2480827 C230.379767,51.5234344 228.821941,52.1068136 227.416229,52.9666917 C226.942731,53.2461404 226.424405,53.5898622 225.880863,53.4864662 C225.404564,53.3970426 225.057145,52.9974311 224.760159,52.6229699 C224.378102,53.5172469 224.217612,54.4901484 224.292264,55.4593734 C224.312912,55.6016009 224.30817,55.7463504 224.278256,55.8869298 C224.20976,56.0568901 224.105637,56.2102868 223.972863,56.3368421 C223.482555,56.8957393 223.177163,57.8039474 223.661868,58.3796115 C223.872,58.6283208 224.197004,58.7652506 224.401533,59.0195489 C224.768564,59.4750501 224.645286,60.1373434 224.636881,60.7185965 C224.616667,60.9215579 224.668201,61.1251841 224.782573,61.2942607 C224.998174,61.4947062 225.303287,61.5678705 225.586678,61.4870802 C225.864255,61.4036899 226.155677,61.3761432 226.444018,61.4060401 C226.747808,61.5045588 227.010036,61.7012107 227.189286,61.9649373 C228.094256,63.141416 228.452881,64.4212907 228.839524,65.8241228 Z" id="Path" fill="#2D293D"></path>
                <g id="Group" opacity="0.1" transform="translate(223.300441, 52.536341)" fill="#000000">
                    <path d="M13.6725991,12.6562281 C13.4263768,12.9233501 13.118665,13.1266799 12.7760352,13.2486591 C10.9380793,14.0115539 8.87037885,13.9249248 6.8923348,13.8075564 C6.67996117,13.8096683 6.46997045,13.7628061 6.2787489,13.6706266 C5.97615859,13.4945739 5.86128634,13.1257018 5.76882819,12.7903634 C5.38218502,11.3931203 5.02636123,10.1104511 4.10738326,8.94515038 C3.93027612,8.67635241 3.66783889,8.47462339 3.36211454,8.3722807 C3.07376806,8.34515288 2.78287892,8.37264921 2.50477533,8.4533208 C2.22187197,8.53484321 1.91682555,8.46275509 1.7006696,8.26329574 C1.58629841,8.09421915 1.53476379,7.89059295 1.55497797,7.68763158 C1.55497797,7.10078947 1.68666079,6.44408521 1.31962996,5.98858396 C1.11510132,5.73428571 0.790096916,5.59735589 0.579964758,5.34585213 C0.300685259,4.96806395 0.252243952,4.46773001 0.453885463,4.04362155 C0.103665198,4.6025188 -0.0448281938,5.30393484 0.361427313,5.78458647 C0.571559471,6.03329574 0.896563877,6.17022556 1.10109251,6.42452381 C1.46812335,6.88281955 1.34484581,7.5423183 1.33644053,8.12357143 C1.31492652,8.32623421 1.36550291,8.52999267 1.4793304,8.69923559 C1.69553128,8.90067167 2.00199008,8.97390342 2.28623789,8.89205514 C2.56381403,8.80866487 2.85523662,8.78111811 3.14357709,8.81101504 C3.44736744,8.90953371 3.70959543,9.1061856 3.88884581,9.36991228 C4.80502203,10.535213 5.16364758,11.8150877 5.55029075,13.2179198 C5.59556836,13.5631207 5.76842104,13.8790283 6.03499559,14.1037719 C6.22706241,14.1960955 6.43821542,14.2420456 6.65138326,14.2379073 C8.6378326,14.3608647 10.7083348,14.4502882 12.5350837,13.67901 C12.8781225,13.5578474 13.1860198,13.3543952 13.4316476,13.0865789 C13.555151,12.9291648 13.6499829,12.7513437 13.7118238,12.5612155 C13.7146256,12.5975439 13.6950132,12.6282832 13.6725991,12.6562281 Z" id="Path"></path>
                    <path d="M0.991823789,3.18012531 C1.07986344,3.08479922 1.1475437,2.97260864 1.1907489,2.85037594 C1.21601616,2.70897125 1.21601616,2.56422424 1.1907489,2.42281955 C1.13614422,1.62609288 1.23992954,0.826457029 1.49614097,0.0698621554 L1.45971806,0.0279448622 C1.07639576,0.920870632 0.915844985,1.89318029 0.991823789,2.86155388 C1.00023053,2.96757884 1.00023053,3.07410036 0.991823789,3.18012531 Z" id="Path"></path>
                </g>
                <path d="M227.676793,69.7643484 C227.676793,69.7643484 235.821515,70.8430201 236.552775,69.6218296" id="Path" fill="#000000" opacity="0.1"></path>
                <path d="M243.509551,66.4025815 C243.509551,66.4025815 248.037198,66.4025815 249.031824,68.1016291" id="Path" fill="#000000" opacity="0.1"></path>
                <path d="M268.840282,217.346754 C267.49739,218.544205 265.752333,219.194533 263.951207,219.168759 C263.491718,219.168759 262.855718,219.255388 262.852916,219.713684 C262.864019,219.848113 262.910401,219.97726 262.987401,220.088145 C263.555958,221.033395 264.453602,221.736713 265.508987,222.063847 C266.489604,222.360063 267.537463,222.309762 268.560106,222.256667 L271.543982,222.10297 C272.104335,222.072231 272.664687,222.044286 273.22504,221.974424 C273.785392,221.904561 274.396176,221.789987 274.981744,221.694975 C276.420615,221.490969 277.875647,221.423599 279.327278,221.493772 C279.713921,221.507744 280.167806,221.493772 280.397551,221.214323 C280.627295,220.934875 280.509621,220.401128 280.422767,219.981955 C280.243454,219.118459 280.422767,218.213045 280.257463,217.346754 C279.977286,215.826554 278.657656,214.661253 277.211947,214.110739 C275.867101,213.602143 273.485604,213.018095 272.213604,213.867619 C270.871559,214.75906 270.050643,216.248521 268.840282,217.346754 Z" id="Path" fill="#3F3D56"></path>
                <path d="M271.804546,166.414449 C272.067912,167.663584 273.281075,168.619298 273.314696,169.893584 C273.345515,170.916366 272.614256,171.774273 272.087524,172.648947 C271.591183,173.554872 271.172239,174.50089 270.835137,175.476967 C269.8434,178.018448 268.612602,180.460551 267.159225,182.770576 C266.458784,183.888371 265.674291,185.081617 265.833991,186.381053 C265.945579,186.988712 266.160689,187.57282 266.469991,188.108045 L268.571313,192.27183 C269.031575,193.103163 269.391763,193.985816 269.644388,194.901441 C269.826502,195.692281 269.843313,196.511065 269.94978,197.315877 C270.280388,199.870038 271.482344,202.440965 270.770696,204.91688 C270.709057,205.129261 270.49052,205.386353 270.319612,205.238246 C271.014449,206.532093 271.572,207.834323 271.518767,209.301429 C271.490749,210.069912 271.255401,210.87193 271.538379,211.587318 C271.658855,211.886328 271.868987,212.165777 271.866185,212.487143 C271.866185,212.699524 271.768123,212.897932 271.745709,213.104724 C271.686872,213.694361 272.230414,214.18619 272.793568,214.373421 C273.356722,214.560652 273.970308,214.546679 274.539066,214.717143 C275.631753,215.044098 276.413445,215.983045 277.340828,216.63416 C278.292254,217.287859 279.413536,217.651912 280.568458,217.682093 C280.733224,217.699603 280.899419,217.666451 281.044758,217.58708 C281.211353,217.441816 281.307288,217.232122 281.308123,217.011416 C281.411176,215.951547 280.978375,214.910074 280.153797,214.233697 C279.975808,214.122586 279.828459,213.968896 279.725128,213.786579 C279.672814,213.625234 279.659376,213.453861 279.685903,213.286366 C279.855033,210.995931 279.813769,208.694867 279.562626,206.41193 C279.449366,205.688409 279.412742,204.955012 279.453357,204.223847 C279.512194,203.614649 279.69711,203.01104 279.629868,202.404637 C279.562626,201.798233 279.25163,201.244925 279.069515,200.660877 C278.744511,199.621328 278.834167,198.503534 278.789339,197.416479 C278.733304,195.527406 278.299031,193.671867 277.867559,191.827506 C277.696652,191.103734 277.508934,190.346429 276.996211,189.809887 C276.559137,189.354386 275.853093,188.918446 276.018396,188.312043 C276.109953,188.088512 276.246286,187.885971 276.419048,187.716817 C276.829113,187.203571 277.009461,186.544687 276.917762,185.894812 C277.297834,185.991526 277.693402,185.806548 277.861956,185.453283 C281.274502,183.846454 284.025833,180.632794 285.253004,177.069825 C285.325377,176.805218 285.436798,176.552817 285.583612,176.320902 C285.900211,175.879373 286.449357,175.689348 286.936863,175.446228 C288.466626,174.677744 289.52289,173.238584 290.4923,171.830163 C291.052652,171.014173 291.613004,170.170238 291.865163,169.208935 C291.997722,168.587182 292.06068,167.952675 292.052881,167.317068 L292.139736,164.033546 C292.15877,163.817346 292.137878,163.599496 292.078097,163.390815 C291.995001,163.195855 291.874074,163.019209 291.722273,162.87104 C290.790394,161.888176 289.566615,161.229874 288.231278,160.993145 C287.334714,160.83386 286.418537,160.864599 285.510767,160.789148 C283.75126,160.643835 282.014167,160.09891 280.254661,160.230251 C277.489322,160.434248 275.026573,162.345677 273.723753,164.788058 C273.267066,165.648759 272.785163,166.397682 271.804546,166.414449 Z" id="Path" fill="#464353"></path>
                <path d="M256.45089,145.064574 C256.488194,145.571481 256.4195,146.080589 256.249163,146.559624 C256.033427,147.01792 255.492687,147.375614 255.019189,147.188383 C255.162079,146.867018 254.783841,146.50094 254.430819,146.540063 C254.078286,146.621129 253.788171,146.86975 253.654731,147.20515 C253.420679,147.674479 253.342189,148.205844 253.43059,148.722556 C253.542661,149.365288 253.915295,149.98287 253.817233,150.628396 C253.738784,151.164937 253.343736,151.698684 253.553868,152.196103 C253.690181,152.423368 253.861288,152.627974 254.060987,152.802506 C254.63587,153.508743 254.555842,154.540256 253.878872,155.149875 L259.179806,155.256065 C258.986485,156.139123 259.384335,157.041742 259.83822,157.826992 C262.415338,162.203498 266.899113,165.123208 271.95304,165.715827 C271.680083,165.874785 271.493109,166.147585 271.443701,166.458966 C271.394293,166.770347 271.487674,167.0874 271.698079,167.322657 C272.129551,167.750213 272.860811,167.697118 273.401551,167.420464 C273.942291,167.14381 274.365357,166.685514 274.858467,166.330614 C275.728998,165.715405 276.790978,165.430039 277.853551,165.525802 C278.517568,165.590075 279.161974,165.805251 279.828793,165.838784 C281.790026,165.94218 283.471084,164.533759 285.359471,163.958095 C286.735137,163.536128 288.295718,163.536128 289.450044,162.678221 C289.948758,162.309348 290.357815,161.702945 290.212123,161.104925 C290.091561,160.76123 289.900748,160.446254 289.651771,160.17995 C288.987753,159.322043 288.595507,158.290877 288.119207,157.315602 C287.175589,155.384721 285.876343,153.648044 284.289198,152.196103 C283.091203,151.151716 281.821735,150.191816 280.490009,149.323371 C280.168052,149.086362 279.82477,148.879617 279.464564,148.705789 C278.999471,148.501792 278.483947,148.403985 278.063683,148.146892 C277.441692,147.755664 277.083066,147.065426 276.603965,146.509323 C275.553304,145.285338 273.939489,144.723647 272.645075,143.762343 C271.776529,143.116817 271.008846,142.267293 269.972194,141.957105 C269.467877,141.803409 268.93274,141.792231 268.428423,141.641328 C267.282502,141.294812 266.447577,140.280414 265.32407,139.869624 C264.435912,139.545464 263.455295,139.629298 262.522308,139.514724 C261.470612,139.385331 260.466006,139.003709 259.594467,138.402519 C259.313699,138.174416 258.998903,137.991497 258.66148,137.860388 C257.240987,137.430038 257.126115,140.068033 256.980423,140.98183 C256.792705,142.33995 256.45089,143.689687 256.45089,145.064574 Z" id="Path" fill="#3F51B5"></path>
                <path d="M257.83496,153.911917 C258.07311,156.488434 256.123084,158.98391 256.691841,161.507331 C256.812317,162.043872 257.044863,162.555263 257.128916,163.100188 C257.367066,164.595238 256.470502,166.012043 255.615965,167.263972 L248.275348,178.008772 C247.980626,178.480468 247.628681,178.914095 247.227489,179.299825 C245.826608,180.543371 243.719683,180.417619 241.876123,180.786491 C240.581074,181.051911 239.358156,181.591265 238.289868,182.36817 C238.189791,182.445309 238.169875,182.58808 238.24504,182.689536 C238.863491,183.529471 239.866486,183.999686 240.909515,183.938672 C241.102837,184.190175 240.909515,184.564637 240.643348,184.746278 C240.251101,185.025727 239.707559,185.09 239.62911,185.757882 C239.602579,185.989965 239.649609,186.224507 239.763595,186.428559 C240.060307,186.87886 240.520106,187.19728 241.046802,187.317206 C243.588,188.094073 246.333727,186.730363 248.236123,184.877619 C250.13852,183.024875 251.502978,180.68589 253.368952,178.802406 C254.402802,177.757268 255.57674,176.865827 256.64141,175.854223 C258.765145,173.83381 260.418185,171.383045 262.009586,168.926692 C262.488687,168.186153 262.973392,167.426053 263.172317,166.568145 C263.371242,165.710238 263.278784,164.841153 263.505727,164.01119 C263.802714,162.924135 264.601216,162.05505 265.265233,161.144048 C266.568053,159.355576 267.439401,157.167494 267.265692,154.962644 C267.091982,152.757794 265.724722,150.583684 263.640211,149.834762 C262.993643,149.578534 262.281824,149.535446 261.608934,149.711805 C260.754396,149.974486 260.124,150.678697 259.541233,151.354962 L258.140352,152.958997 C257.799268,153.314188 257.531736,153.732961 257.353057,154.191366 C257.16855,154.663055 257.278172,155.198805 257.633233,155.560664" id="Path" fill="#FBBEBE"></path>
                <path d="M261.5557,143.34317 C260.591894,143.39906 259.530026,143.494073 258.849198,144.181516 C258.563682,144.497176 258.332667,144.857908 258.165568,145.24901 C257.504352,146.593158 256.859947,147.998784 256.812317,149.496629 C256.773093,150.692669 257.120511,151.863559 257.302626,153.045627 C257.453921,154.029286 257.070079,155.032506 256.997233,156.027343 C258.193586,155.661266 259.77378,155.163847 260.858062,154.546266 C261.597727,154.124298 262.312176,153.643647 263.119084,153.375376 C264.270608,152.992531 266.201022,153.654825 267.296511,154.185777 C267.355348,153.420088 266.778185,152.084323 266.839824,151.31584 C266.848378,150.992342 266.906001,150.672002 267.010731,150.365714 C267.174597,150.041721 267.368781,149.733892 267.590696,149.446328 C268.446178,148.059073 268.309338,146.280269 267.251683,145.039424 C266.279471,143.949574 264.758115,143.541579 263.306802,143.362732 C262.392828,143.257048 261.47178,143.225274 260.55267,143.267719" id="Path" fill="#3F51B5"></path>
            </g>
        </g>
    </g>
</svg>