<?xml version="1.0" encoding="UTF-8"?>
<svg width="21px" height="21px" viewBox="0 0 21 21" version="1.1" xmlns="http://www.w3.org/2000/svg" xmlns:xlink="http://www.w3.org/1999/xlink">
    <!-- Generator: Sketch 52.1 (67048) - http://www.bohemiancoding.com/sketch -->
    <title>genero</title>
    <desc>Created with Sketch.</desc>
    <defs>
        <polygon id="path-1" points="0.0024609375 0 21 0 21 9.88476563 0.0024609375 9.88476563"></polygon>
    </defs>
    <g id="Page-1" stroke="none" stroke-width="1" fill="none" fill-rule="evenodd" opacity="0.799999952">
        <g id="5.-Dashboard" transform="translate(-109.000000, -733.000000)">
            <g id="genero" transform="translate(109.000000, 733.000000)">
                <g id="Group-3" transform="translate(0.000000, 11.115234)">
                    <mask id="mask-2" fill="white">
                        <use xlink:href="#path-1"></use>
                    </mask>
                    <g id="Clip-2"></g>
                    <path d="M21,3.69140625 L21,2.4609375 L12.7244414,2.4609375 L12.2354531,0 L8.76454688,0 L8.27555859,2.4609375 L0,2.4609375 L0,3.69140625 L8.03106445,3.69140625 L7.53407813,6.19335938 L4.96289062,6.19335938 L4.96289062,9.88476563 L16.0371094,9.88476563 L16.0371094,6.19335938 L13.4659219,6.19335938 L12.9689355,3.69140625 L21,3.69140625 Z M6.19335938,8.65429688 L14.8066406,8.65429688 L14.8066406,7.42382813 L6.19335938,7.42382813 L6.19335938,8.65429688 Z M8.78854102,6.19335938 L9.77451563,1.23046875 L11.2254844,1.23046875 L12.211459,6.19335938 L8.78854102,6.19335938 Z" id="Fill-1" fill="#000000" mask="url(#mask-2)"></path>
                </g>
                <path d="M2.50195312,12.3457031 L6.19335937,12.3457031 L6.19335937,9.84375 L7.567875,9.84375 L6.69965625,5.74444336 C6.56475586,5.10788086 6.16854492,4.54920703 5.61241406,4.2118125 C5.32128516,4.03524023 4.61105859,3.69140625 4.34765625,3.69140625 C4.08425391,3.69140625 3.37402734,4.03524023 3.08289844,4.2118125 C2.52676758,4.54920703 2.13055664,5.10788086 1.99582031,5.74444336 L1.1274375,9.84375 L2.50195312,9.84375 L2.50195312,12.3457031 Z M3.19954687,5.99935547 C3.32177344,5.42189648 3.79058203,5.17711523 4.34765625,4.95841992 C4.90567383,5.17756641 5.37370312,5.42255273 5.49576562,5.99935547 L6.0493125,8.61328125 L4.96289062,8.61328125 L4.96289062,11.1152344 L3.73242187,11.1152344 L3.73242187,8.61328125 L2.646,8.61328125 L3.19954687,5.99935547 Z" id="Fill-4" fill="#000000"></path>
                <path d="M6.19335937,1.84570312 C6.19335937,0.828023437 5.36533594,0 4.34765625,0 C3.32997656,0 2.50195312,0.828023437 2.50195312,1.84570312 C2.50195312,2.86338281 3.32997656,3.69140625 4.34765625,3.69140625 C5.36533594,3.69140625 6.19335937,2.86338281 6.19335937,1.84570312 Z M4.34765625,2.4609375 C4.00845703,2.4609375 3.73242188,2.18490234 3.73242188,1.84570312 C3.73242188,1.50650391 4.00845703,1.23046875 4.34765625,1.23046875 C4.68685547,1.23046875 4.96289062,1.50650391 4.96289062,1.84570312 C4.96289062,2.18490234 4.68685547,2.4609375 4.34765625,2.4609375 Z" id="Fill-5" fill="#000000"></path>
                <path d="M18.4980469,1.84570312 C18.4980469,0.828023437 17.6700234,0 16.6523437,0 C15.6346641,0 14.8066406,0.828023437 14.8066406,1.84570312 C14.8066406,2.86338281 15.6346641,3.69140625 16.6523437,3.69140625 C17.6700234,3.69140625 18.4980469,2.86338281 18.4980469,1.84570312 Z M16.6523438,2.4609375 C16.3131445,2.4609375 16.0371094,2.18490234 16.0371094,1.84570312 C16.0371094,1.50650391 16.3131445,1.23046875 16.6523438,1.23046875 C16.991543,1.23046875 17.2675781,1.50650391 17.2675781,1.84570312 C17.2675781,2.18490234 16.991543,2.4609375 16.6523438,2.4609375 Z" id="Fill-6" fill="#000000"></path>
                <path d="M14.8066406,8.18438086 L14.8066406,12.3457031 L18.4980469,12.3457031 L18.4980469,8.18438086 L19.5803262,6.56090039 C20.3971113,5.33572266 19.516875,3.69140625 18.0446191,3.69140625 L15.2600684,3.69140625 C13.7876484,3.69140625 12.9077402,5.33605078 13.7243613,6.56090039 L14.8066406,8.18438086 Z M15.2600684,4.921875 L18.0446191,4.921875 C18.5363555,4.921875 18.8295352,5.46885938 18.5565352,5.87835937 L17.2675781,7.81171289 L17.2675781,11.1152344 L16.0371094,11.1152344 L16.0371094,7.81171289 L14.7481523,5.87835937 C14.4753164,5.4691875 14.7678809,4.921875 15.2600684,4.921875 Z" id="Fill-7" fill="#000000"></path>
            </g>
        </g>
    </g>
</svg>